<svg width="233" height="53" viewBox="0 0 233 53" fill="none" xmlns="http://www.w3.org/2000/svg">
<path d="M1.16876 14.5948L1.08731 5.86789L4.03605 5.84037C4.71784 5.834 5.27856 5.94525 5.71821 6.17411C6.15784 6.40013 6.48465 6.71386 6.69863 7.11529C6.91261 7.51672 7.02201 7.97452 7.0268 8.48871C7.0316 9.00289 6.93075 9.45982 6.72424 9.85949C6.51774 10.2592 6.19822 10.5747 5.7657 10.806C5.33316 11.0345 4.77883 11.1518 4.10273 11.1582L1.71647 11.1804L1.70756 10.2259L4.05973 10.204C4.52562 10.1996 4.89996 10.1279 5.18277 9.98894C5.46842 9.8499 5.67399 9.65479 5.79949 9.40361C5.92781 9.14956 5.99034 8.84783 5.98708 8.49841C5.98382 8.14899 5.91563 7.84422 5.78251 7.58409C5.6494 7.32395 5.43872 7.12421 5.15047 6.98485C4.8622 6.84264 4.48228 6.77374 4.01071 6.77814L2.15284 6.79548L2.22553 14.5849L1.16876 14.5948ZM5.23995 10.6362L7.42417 14.5364L6.19695 14.5479L4.04682 10.6473L5.23995 10.6362ZM11.383 14.6358C10.7524 14.6417 10.207 14.5076 9.74708 14.2335C9.28993 13.9565 8.93544 13.5677 8.6836 13.0672C8.43457 12.5638 8.30693 11.9769 8.30067 11.3065C8.29441 10.6361 8.41105 10.044 8.65059 9.53042C8.89294 9.01393 9.23293 8.61017 9.67058 8.31914C10.111 8.02524 10.6267 7.87554 11.2176 7.87002C11.5585 7.86684 11.8956 7.92052 12.2291 8.03105C12.5625 8.14158 12.8668 8.3234 13.1419 8.57653C13.417 8.82681 13.6374 9.16 13.8032 9.57608C13.969 9.99217 14.0548 10.5056 14.0605 11.1164L14.0645 11.5425L9.01925 11.5896L9.01114 10.7203L13.0337 10.6827C13.0302 10.3134 12.9533 9.9846 12.8029 9.69622C12.6553 9.40781 12.4458 9.18106 12.1743 9.01598C11.9058 8.85086 11.5896 8.77 11.226 8.77339C10.8255 8.77713 10.4798 8.87979 10.1891 9.08138C9.90115 9.2801 9.68053 9.53785 9.52723 9.85464C9.37393 10.1714 9.29896 10.5102 9.30233 10.871L9.30774 11.4505C9.31235 11.9448 9.40149 12.363 9.57514 12.7052C9.75161 13.0444 9.99408 13.3021 10.3026 13.4782C10.611 13.6515 10.9683 13.7362 11.3746 13.7325C11.6388 13.73 11.8771 13.6908 12.0894 13.615C12.3046 13.5363 12.4896 13.4209 12.6445 13.2689C12.7993 13.114 12.9182 12.9226 13.0013 12.6945L13.9754 12.9581C13.8762 13.2886 13.7071 13.58 13.4679 13.8322C13.2288 14.0816 12.9323 14.2776 12.5785 14.4201C12.2247 14.5598 11.8262 14.6317 11.383 14.6358ZM20.2104 9.3373L19.3094 9.6014C19.2512 9.45137 19.166 9.30585 19.0539 9.16485C18.9446 9.02098 18.7957 8.90304 18.6074 8.81104C18.419 8.71905 18.1785 8.67442 17.8859 8.67715C17.4854 8.68088 17.1524 8.77633 16.8871 8.96347C16.6246 9.14774 16.4947 9.3805 16.4973 9.66174C16.4997 9.91173 16.5924 10.1083 16.7756 10.2515C16.9587 10.3947 17.2439 10.5128 17.6312 10.6057L18.605 10.8353C19.1915 10.9719 19.6296 11.1851 19.9192 11.4751C20.2088 11.7621 20.3558 12.1344 20.3601 12.5917C20.3636 12.9667 20.2587 13.3029 20.0456 13.6004C19.8353 13.8978 19.5392 14.1335 19.1573 14.3076C18.7754 14.4816 18.3302 14.571 17.8217 14.5757C17.1541 14.582 16.6002 14.4422 16.16 14.1566C15.7198 13.8709 15.4389 13.4502 15.3172 12.8945L16.2695 12.647C16.3637 12.9984 16.538 13.2609 16.7925 13.4347C17.0498 13.6085 17.3844 13.6934 17.7963 13.6896C18.2651 13.6852 18.6363 13.5823 18.91 13.3809C19.1865 13.1766 19.3234 12.9338 19.3208 12.6526C19.3187 12.4253 19.2374 12.2357 19.0769 12.0838C18.9163 11.929 18.6709 11.8148 18.3407 11.7412L17.2474 11.4957C16.6467 11.3593 16.2043 11.1432 15.9203 10.8476C15.6391 10.549 15.4964 10.1739 15.4922 9.72226C15.4887 9.35296 15.5894 9.0253 15.7941 8.73928C16.0017 8.45324 16.2851 8.22758 16.6443 8.06229C17.0064 7.89697 17.4176 7.81216 17.8778 7.80787C18.5255 7.80182 19.0353 7.93912 19.4073 8.21975C19.7821 8.50035 20.0498 8.87287 20.2104 9.3373ZM24.6763 7.82965L24.6842 8.68188L21.2923 8.71354L21.2844 7.8613L24.6763 7.82965ZM22.2583 6.28397L23.2639 6.27458L23.3222 12.5129C23.3248 12.797 23.368 13.0097 23.4517 13.151C23.5382 13.2894 23.6471 13.3821 23.7782 13.4292C23.9121 13.4734 24.053 13.4948 24.2007 13.4934C24.3115 13.4924 24.4023 13.4859 24.4732 13.4738C24.5441 13.459 24.6008 13.4471 24.6434 13.4382L24.8563 14.3396C24.7884 14.3658 24.6935 14.3923 24.5715 14.419C24.4497 14.4485 24.295 14.4642 24.1075 14.4659C23.8234 14.4686 23.5444 14.4101 23.2706 14.2905C22.9996 14.1709 22.7734 13.9869 22.5921 13.7386C22.4136 13.4902 22.3226 13.1757 22.3191 12.795L22.2583 6.28397ZM28.1775 14.4961C27.7628 14.5 27.3856 14.4254 27.0461 14.2723C26.7066 14.1164 26.436 13.8902 26.2344 13.5938C26.0327 13.2945 25.9299 12.9318 25.9259 12.5057C25.9224 12.1307 25.9934 11.8261 26.139 11.5917C26.2845 11.3546 26.4802 11.1681 26.7261 11.0322C26.972 10.8964 27.2438 10.7945 27.5415 10.7263C27.842 10.6553 28.144 10.5985 28.4476 10.5559C28.8448 10.5011 29.1669 10.4597 29.4138 10.4319C29.6635 10.4011 29.8449 10.3525 29.9579 10.2861C30.0738 10.2197 30.131 10.1055 30.1295 9.94362L30.1291 9.90953C30.1252 9.4891 30.0071 9.16348 29.7748 8.93268C29.5454 8.70186 29.1992 8.58861 28.7361 8.59293C28.256 8.59741 27.8806 8.70603 27.6098 8.9188C27.3391 9.13156 27.1494 9.35777 27.0409 9.59743L26.0832 9.26545C26.2499 8.86614 26.4743 8.55438 26.7563 8.33015C27.0411 8.10305 27.3521 7.94389 27.6894 7.85267C28.0294 7.75858 28.3642 7.71 28.6937 7.70692C28.904 7.70496 29.1457 7.72828 29.4189 7.77686C29.6949 7.82259 29.9614 7.92096 30.2185 8.07197C30.4785 8.22296 30.6951 8.45248 30.8684 8.76054C31.0418 9.06859 31.1309 9.48255 31.1357 10.0024L31.176 14.3147L30.1703 14.3241L30.1621 13.4378L30.1109 13.4383C30.0441 13.5809 29.9319 13.734 29.7743 13.8974C29.6167 14.0608 29.4064 14.2006 29.1432 14.3167C28.8801 14.4328 28.5582 14.4926 28.1775 14.4961ZM28.3225 13.5913C28.7202 13.5876 29.0547 13.5064 29.326 13.3476C29.6001 13.1888 29.8056 12.9851 29.9424 12.7367C30.0822 12.4882 30.1508 12.2276 30.1482 11.9549L30.1396 11.0345C30.0975 11.086 30.0042 11.1338 29.8597 11.1777C29.718 11.2188 29.5536 11.2559 29.3664 11.2889C29.182 11.319 29.0019 11.3463 28.826 11.3706C28.6529 11.3921 28.5124 11.4105 28.4046 11.4257C28.1435 11.4622 27.8998 11.5199 27.6732 11.5987C27.4495 11.6747 27.2687 11.7886 27.1309 11.9404C26.9959 12.0894 26.9296 12.2918 26.932 12.5474C26.9353 12.8969 27.067 13.1598 27.3272 13.3364C27.5902 13.5101 27.922 13.5951 28.3225 13.5913ZM33.0115 14.2976L32.9504 7.75243L33.9219 7.74336L33.9312 8.73196L33.9993 8.73132C34.1156 8.40636 34.3291 8.14157 34.6397 7.93696C34.9503 7.73234 35.3016 7.62821 35.6936 7.62455C35.7675 7.62386 35.8598 7.62442 35.9707 7.62623C36.0815 7.62803 36.1653 7.63151 36.2222 7.63666L36.2317 8.65935C36.1976 8.65114 36.1193 8.63909 35.997 8.62318C35.8775 8.60441 35.751 8.59565 35.6175 8.59689C35.2993 8.59986 35.0159 8.66927 34.7671 8.80512C34.5212 8.93811 34.3269 9.12174 34.1842 9.35604C34.0443 9.58747 33.9757 9.85091 33.9785 10.1463L34.0171 14.2882L33.0115 14.2976ZM40.6716 7.68037L40.6796 8.5326L37.2877 8.56426L37.2798 7.71202L40.6716 7.68037ZM38.2537 6.13468L39.2593 6.1253L39.3176 12.3637C39.3202 12.6477 39.3634 12.8604 39.4471 13.0017C39.5336 13.1401 39.6425 13.2328 39.7736 13.2799C39.9075 13.3241 40.0484 13.3455 40.1961 13.3441C40.3069 13.3431 40.3977 13.3366 40.4686 13.3246C40.5395 13.3097 40.5962 13.2978 40.6388 13.2889L40.8517 14.1903C40.7838 14.2165 40.6889 14.243 40.5669 14.2697C40.4451 14.2992 40.2904 14.3149 40.1029 14.3166C39.8188 14.3193 39.5398 14.2608 39.266 14.1412C38.995 14.0216 38.7688 13.8376 38.5875 13.5893C38.409 13.3409 38.318 13.0264 38.3145 12.6458L38.2537 6.13468ZM42.2455 14.2114L42.1844 7.66625L43.19 7.65687L43.2511 14.202L42.2455 14.2114ZM42.6855 6.57062C42.4895 6.57245 42.3199 6.50727 42.1766 6.37507C42.0361 6.24286 41.965 6.083 41.9633 5.89551C41.9615 5.70802 42.0296 5.54686 42.1676 5.41205C42.3084 5.27721 42.4768 5.20887 42.6728 5.20704C42.8688 5.20521 43.037 5.2704 43.1775 5.40262C43.3208 5.53481 43.3933 5.69466 43.395 5.88215C43.3968 6.06964 43.3273 6.23081 43.1865 6.36565C43.0485 6.50047 42.8815 6.56879 42.6855 6.57062ZM46.0619 10.2381L46.0986 14.1755L45.093 14.1848L45.0319 7.63968L46.0034 7.63061L46.013 8.65329L46.0982 8.6525C46.2485 8.31869 46.479 8.04948 46.7896 7.84487C47.1001 7.63742 47.5026 7.53139 47.9969 7.52677C48.44 7.52264 48.8287 7.60992 49.1627 7.78863C49.4968 7.9645 49.7578 8.2348 49.9459 8.59954C50.1339 8.96144 50.2306 9.42078 50.2358 9.97758L50.2746 14.1365L49.2689 14.1459L49.2308 10.0551C49.226 9.54096 49.0887 9.14165 48.819 8.85723C48.5493 8.56996 48.1814 8.4285 47.7156 8.43285C47.3945 8.43584 47.1083 8.50812 46.8567 8.64968C46.6081 8.79121 46.4125 8.99617 46.2701 9.26455C46.1277 9.53294 46.0583 9.85747 46.0619 10.2381ZM54.7783 16.6855C54.2925 16.69 53.8744 16.6314 53.5238 16.5097C53.1732 16.3908 52.8805 16.2316 52.6457 16.0321C52.4137 15.8353 52.2285 15.624 52.09 15.398L52.8859 14.8281C52.9779 14.9465 53.0942 15.0818 53.2349 15.2339C53.3755 15.3889 53.5671 15.522 53.8097 15.6334C54.055 15.7476 54.3752 15.8028 54.77 15.7992C55.2984 15.7942 55.7333 15.6623 56.0746 15.4034C56.416 15.1446 56.5841 14.7424 56.579 14.197L56.5666 12.8675L56.4814 12.8683C56.4087 12.9883 56.3049 13.137 56.1702 13.3144C56.0383 13.4889 55.8466 13.6455 55.595 13.7843C55.3463 13.9201 55.0089 13.99 54.5827 13.994C54.0544 13.9989 53.5788 13.8784 53.156 13.6323C52.7361 13.3862 52.4017 13.0257 52.153 12.5507C51.907 12.0757 51.7809 11.4973 51.7745 10.8155C51.7683 10.1451 51.8807 9.56022 52.1119 9.06088C52.343 8.5587 52.6675 8.16929 53.0854 7.89265C53.5033 7.61317 53.9877 7.47086 54.5389 7.46572C54.965 7.46174 55.3037 7.52961 55.555 7.66931C55.8091 7.80615 56.0038 7.96343 56.139 8.14116C56.277 8.31601 56.3834 8.45991 56.4584 8.57285L56.5606 8.5719L56.5509 7.53217L57.5225 7.5231L57.5853 14.2558C57.5906 14.8182 57.467 15.2768 57.2146 15.6314C56.9651 15.9889 56.6266 16.252 56.1992 16.4208C55.7747 16.5924 55.301 16.6806 54.7783 16.6855ZM54.7107 13.0894C55.1141 13.0856 55.4541 12.9901 55.7308 12.8028C56.0074 12.6156 56.2166 12.348 56.3582 12.0001C56.4999 11.6521 56.5685 11.2367 56.5639 10.7538C56.5595 10.2822 56.4846 9.8667 56.3392 9.50724C56.1938 9.14779 55.981 8.86709 55.7007 8.66516C55.4204 8.46322 55.0757 8.36416 54.6666 8.36797C54.2405 8.37195 53.8864 8.48322 53.6043 8.70177C53.3251 8.92029 53.1162 9.21203 52.9775 9.57697C52.8417 9.94189 52.7759 10.3459 52.78 10.7891C52.7843 11.2436 52.859 11.6449 53.0043 11.993C53.1524 12.3382 53.3681 12.609 53.6511 12.8052C53.9371 12.9986 54.2902 13.0933 54.7107 13.0894ZM62.4024 8.02304L62.3952 7.25603C62.393 7.02308 62.4319 6.77555 62.5119 6.51343C62.5946 6.24844 62.7144 5.99305 62.8712 5.74726C63.0308 5.4986 63.2234 5.2823 63.449 5.09837L63.9985 5.53644C63.822 5.79379 63.6682 6.06228 63.5373 6.34192C63.4092 6.6187 63.3466 6.91475 63.3495 7.23007L63.3569 8.01413L62.4024 8.02304ZM64.5841 8.00268L64.5769 7.23567C64.5747 7.00272 64.6136 6.75519 64.6936 6.49307C64.7763 6.22808 64.8961 5.97269 65.0529 5.7269C65.2125 5.47824 65.4051 5.26194 65.6307 5.07801L66.1803 5.51608C66.0037 5.77342 65.8499 6.04192 65.719 6.32156C65.5909 6.59833 65.5283 6.89439 65.5313 7.20971L65.5386 7.99377L64.5841 8.00268ZM70.0296 14.0885C69.4387 14.094 68.919 13.9582 68.4703 13.6811C68.0245 13.404 67.6743 13.0138 67.4196 12.5105C67.1677 12.0072 67.0386 11.4174 67.0323 10.7413C67.026 10.0595 67.144 9.46323 67.3864 8.95242C67.6316 8.44159 67.9745 8.04348 68.4151 7.75811C68.8584 7.47271 69.3756 7.32725 69.9665 7.32174C70.5573 7.31622 71.0757 7.45202 71.5215 7.72912C71.9701 8.00619 72.3203 8.39783 72.5722 8.90402C72.827 9.41019 72.9575 10.0042 72.9639 10.686C72.9702 11.3621 72.8507 11.9541 72.6054 12.4621C72.363 12.9701 72.0201 13.3668 71.5767 13.6522C71.1362 13.9375 70.6205 14.083 70.0296 14.0885ZM70.0212 13.1851C70.47 13.1809 70.8382 13.0624 71.1259 12.8296C71.4135 12.5968 71.6251 12.2923 71.7608 11.916C71.8965 11.5397 71.9623 11.1328 71.9582 10.6953C71.9542 10.2579 71.8808 9.85086 71.738 9.47433C71.5953 9.09781 71.378 8.79442 71.086 8.56418C70.7941 8.33394 70.4237 8.22092 69.9749 8.22511C69.526 8.2293 69.1578 8.34921 68.8702 8.58486C68.5827 8.82051 68.371 9.1279 68.2353 9.50702C68.0997 9.88614 68.0339 10.2944 68.038 10.7319C68.042 11.1694 68.1154 11.575 68.2581 11.9487C68.4008 12.3224 68.6181 12.6229 68.91 12.8503C69.202 13.0777 69.5723 13.1893 70.0212 13.1851ZM74.5521 16.3646L74.4681 7.36495L75.4397 7.35589L75.4494 8.39561L75.5687 8.3945C75.6415 8.28018 75.7424 8.13435 75.8714 7.957C76.0033 7.77678 76.1921 7.61592 76.438 7.47442C76.6866 7.33005 77.024 7.25587 77.4501 7.25189C78.0013 7.24675 78.4883 7.37999 78.9113 7.65163C79.3343 7.92326 79.6661 8.31081 79.9066 8.81426C80.1471 9.31772 80.2706 9.91319 80.277 10.6007C80.2834 11.2938 80.1712 11.8957 79.9401 12.4064C79.7091 12.9143 79.386 13.3094 78.971 13.5917C78.556 13.8711 78.0758 14.0134 77.5303 14.0185C77.1099 14.0224 76.7726 13.956 76.5185 13.8191C76.2643 13.6794 76.0682 13.5207 75.9302 13.343C75.7922 13.1625 75.6857 13.0129 75.6107 12.8943L75.5255 12.8951L75.5577 16.3552L74.5521 16.3646ZM75.4873 10.6283C75.4919 11.1226 75.5684 11.558 75.7168 11.9345C75.8652 12.3081 76.0795 12.6001 76.3599 12.8106C76.6403 13.0182 76.9822 13.1202 77.3856 13.1164C77.806 13.1125 78.1558 12.9984 78.435 12.7742C78.7169 12.5471 78.9272 12.244 79.0657 11.8649C79.207 11.4828 79.2755 11.0589 79.2712 10.593C79.2669 10.1328 79.192 9.7187 79.0465 9.35072C78.9038 8.97988 78.6895 8.68783 78.4034 8.47458C78.1201 8.25847 77.7654 8.1524 77.3393 8.15638C76.9302 8.16019 76.5874 8.26709 76.311 8.47707C76.0345 8.6842 75.8269 8.97308 75.6883 9.34371C75.5497 9.7115 75.4827 10.1397 75.4873 10.6283ZM83.7689 13.9773C83.3541 13.9812 82.977 13.9066 82.6375 13.7535C82.2979 13.5976 82.0273 13.3714 81.8257 13.0749C81.624 12.7757 81.5212 12.413 81.5172 11.9869C81.5137 11.6119 81.5848 11.3072 81.7303 11.0729C81.8758 10.8357 82.0715 10.6493 82.3174 10.5134C82.5633 10.3776 82.8351 10.2756 83.1328 10.2075C83.4333 10.1365 83.7353 10.0797 84.0389 10.0371C84.4362 9.98227 84.7582 9.94091 85.0051 9.91304C85.2549 9.8823 85.4362 9.83373 85.5493 9.76733C85.6651 9.7009 85.7223 9.58673 85.7208 9.4248L85.7205 9.39071C85.7165 8.97028 85.5984 8.64466 85.3662 8.41386C85.1367 8.18304 84.7905 8.06979 84.3274 8.07411C83.8473 8.07859 83.4719 8.18721 83.2012 8.39998C82.9304 8.61274 82.7408 8.83895 82.6322 9.07861L81.6745 8.74663C81.8412 8.34733 82.0656 8.03556 82.3476 7.81133C82.6324 7.58423 82.9435 7.42507 83.2807 7.33385C83.6208 7.23976 83.9555 7.19118 84.2851 7.18811C84.4953 7.18614 84.737 7.20946 85.0102 7.25805C85.2862 7.30377 85.5528 7.40214 85.8099 7.55315C86.0698 7.70414 86.2864 7.93366 86.4598 8.24172C86.6331 8.54977 86.7222 8.96373 86.7271 9.4836L86.7673 13.7959L85.7617 13.8053L85.7534 12.919L85.7023 12.9194C85.6354 13.0621 85.5232 13.2152 85.3656 13.3786C85.208 13.542 84.9977 13.6817 84.7346 13.7978C84.4714 13.9139 84.1495 13.9738 83.7689 13.9773ZM83.9138 13.0725C84.3115 13.0688 84.646 12.9875 84.9173 12.8288C85.1914 12.6699 85.3969 12.4663 85.5338 12.2179C85.6735 11.9694 85.7421 11.7088 85.7396 11.4361L85.731 10.5157C85.6888 10.5672 85.5955 10.6149 85.451 10.6589C85.3094 10.7 85.1449 10.7371 84.9577 10.7701C84.7734 10.8002 84.5932 10.8274 84.4173 10.8518C84.2442 10.8733 84.1037 10.8917 83.9959 10.9069C83.7349 10.9434 83.4911 11.0011 83.2645 11.0799C83.0408 11.1559 82.86 11.2698 82.7222 11.4216C82.5873 11.5706 82.521 11.7729 82.5234 12.0286C82.5266 12.378 82.6583 12.641 82.9185 12.8176C83.1815 12.9913 83.5133 13.0762 83.9138 13.0725ZM91.2631 13.8903C90.6494 13.896 90.1197 13.7561 89.6738 13.4705C89.228 13.1849 88.8834 12.7889 88.64 12.2826C88.3966 11.7764 88.2719 11.1965 88.2658 10.5431C88.2596 9.8784 88.3763 9.29064 88.6158 8.77986C88.8582 8.26621 89.1982 7.86387 89.6358 7.57285C90.0763 7.27895 90.592 7.12924 91.1829 7.12373C91.6431 7.11943 92.0586 7.20079 92.4295 7.36779C92.8004 7.53479 93.1052 7.77059 93.3438 8.07519C93.5825 8.3798 93.7321 8.73637 93.7927 9.14492L92.7871 9.1543C92.7076 8.85673 92.5347 8.59413 92.2684 8.36649C92.0048 8.13599 91.6515 8.0228 91.2083 8.02694C90.8163 8.0306 90.4735 8.13608 90.18 8.34337C89.8893 8.5478 89.6633 8.83543 89.5019 9.20627C89.3434 9.57424 89.2665 10.0054 89.2711 10.4997C89.2758 11.0053 89.3595 11.4449 89.5221 11.8184C89.6875 12.1919 89.9175 12.4809 90.212 12.6856C90.5094 12.8902 90.8569 12.9907 91.2546 12.987C91.516 12.9845 91.7528 12.9368 91.965 12.844C92.1772 12.7511 92.3563 12.6187 92.5025 12.4469C92.6486 12.275 92.7518 12.0695 92.8121 11.8303L93.8177 11.8209C93.7645 12.2078 93.6271 12.5571 93.4056 12.8689C93.1869 13.1777 92.8951 13.4248 92.5304 13.61C92.1684 13.7924 91.746 13.8858 91.2631 13.8903ZM95.3056 13.7162L95.2446 7.17105L96.2502 7.16167L96.3113 13.7068L95.3056 13.7162ZM95.7457 6.07542C95.5497 6.07725 95.3801 6.01207 95.2368 5.87988C95.0963 5.74766 95.0252 5.5878 95.0235 5.40031C95.0217 5.21282 95.0898 5.05167 95.2278 4.91685C95.3686 4.78201 95.537 4.71367 95.733 4.71184C95.929 4.71001 96.0972 4.77521 96.2377 4.90743C96.381 5.03962 96.4535 5.19946 96.4552 5.38695C96.457 5.57444 96.3875 5.73561 96.2467 5.87045C96.1087 6.00527 95.9417 6.07359 95.7457 6.07542ZM100.939 7.11791L100.947 7.97015L97.5546 8.0018L97.5467 7.14957L100.939 7.11791ZM98.5206 5.57223L99.5263 5.56284L99.5845 11.8012C99.5871 12.0853 99.6303 12.298 99.714 12.4392C99.8005 12.5776 99.9094 12.6704 100.04 12.7174C100.174 12.7617 100.315 12.7831 100.463 12.7817C100.574 12.7807 100.665 12.7741 100.736 12.7621C100.806 12.7472 100.863 12.7353 100.906 12.7264L101.119 13.6279C101.051 13.6541 100.956 13.6805 100.834 13.7072C100.712 13.7368 100.557 13.7524 100.37 13.7542C100.086 13.7568 99.8067 13.6984 99.5329 13.5788C99.2619 13.4591 99.0357 13.2751 98.8544 13.0268C98.6759 12.7785 98.5849 12.464 98.5814 12.0833L98.5206 5.57223ZM103.183 16.0974C103.013 16.0989 102.86 16.0862 102.727 16.059C102.593 16.0347 102.5 16.01 102.449 15.9849L102.696 15.0962C102.941 15.1564 103.157 15.1771 103.345 15.1583C103.532 15.1395 103.697 15.0542 103.841 14.9022C103.987 14.7531 104.12 14.5118 104.239 14.1783L104.422 13.6652L101.94 7.10857L103.031 7.09839L104.886 12.2972L104.954 12.2966L106.712 7.06403L107.803 7.05385L105.095 14.5794C104.973 14.9187 104.821 15.1999 104.638 15.4232C104.456 15.6494 104.243 15.8176 104 15.9278C103.759 16.038 103.487 16.0945 103.183 16.0974ZM109.515 13.6518C109.305 13.6538 109.124 13.5802 108.972 13.431C108.82 13.2818 108.743 13.1022 108.741 12.8919C108.739 12.6817 108.813 12.5006 108.962 12.3487C109.111 12.1967 109.291 12.1197 109.501 12.1178C109.711 12.1158 109.892 12.1894 110.044 12.3386C110.196 12.4877 110.273 12.6674 110.275 12.8776C110.276 13.0168 110.242 13.145 110.172 13.2621C110.105 13.3792 110.014 13.4738 109.898 13.5459C109.785 13.6152 109.657 13.6505 109.515 13.6518ZM112.82 13.621C112.609 13.6229 112.428 13.5493 112.276 13.4002C112.124 13.251 112.048 13.0713 112.046 12.8611C112.044 12.6509 112.117 12.4698 112.266 12.3178C112.415 12.1659 112.595 12.0889 112.805 12.0869C113.016 12.085 113.197 12.1586 113.349 12.3077C113.501 12.4569 113.578 12.6366 113.58 12.8468C113.581 12.986 113.547 13.1141 113.477 13.2313C113.41 13.3484 113.318 13.443 113.202 13.5151C113.089 13.5843 112.962 13.6196 112.82 13.621ZM116.124 13.5901C115.914 13.5921 115.733 13.5185 115.581 13.3693C115.429 13.2202 115.352 13.0405 115.35 12.8303C115.348 12.62 115.422 12.4389 115.571 12.287C115.72 12.135 115.9 12.0581 116.11 12.0561C116.32 12.0541 116.501 12.1277 116.653 12.2769C116.805 12.426 116.882 12.6057 116.884 12.8159C116.885 12.9551 116.851 13.0833 116.781 13.2004C116.714 13.3176 116.623 13.4122 116.507 13.4843C116.394 13.5535 116.266 13.5888 116.124 13.5901ZM121.951 13.4676L123.301 4.7273L124.153 4.71934L122.803 13.4596L121.951 13.4676ZM117.957 11.0843L118.085 10.2308L124.596 10.17L124.468 11.0235L117.957 11.0843ZM118.883 13.4962L120.233 4.75593L121.085 4.74798L119.735 13.4882L118.883 13.4962ZM118.44 8.04554L118.568 7.19203L125.079 7.13126L124.951 7.98477L118.44 8.04554ZM126.288 15.8817L126.204 6.88212L127.176 6.87305L127.185 7.91278L127.305 7.91166C127.378 7.79734 127.478 7.65151 127.607 7.47416C127.739 7.29394 127.928 7.13308 128.174 6.99158C128.423 6.84721 128.76 6.77303 129.186 6.76905C129.737 6.76391 130.224 6.89716 130.647 7.16879C131.07 7.44042 131.402 7.82797 131.643 8.33143C131.883 8.83488 132.007 9.43035 132.013 10.1178C132.019 10.811 131.907 11.4129 131.676 11.9236C131.445 12.4315 131.122 12.8265 130.707 13.1088C130.292 13.3883 129.812 13.5306 129.266 13.5356C128.846 13.5396 128.509 13.4731 128.255 13.3363C128 13.1966 127.804 13.0379 127.666 12.8602C127.528 12.6797 127.422 12.5301 127.347 12.4115L127.261 12.4123L127.294 15.8723L126.288 15.8817ZM127.223 10.1455C127.228 10.6398 127.304 11.0752 127.453 11.4516C127.601 11.8253 127.816 12.1173 128.096 12.3278C128.376 12.5354 128.718 12.6373 129.122 12.6335C129.542 12.6296 129.892 12.5156 130.171 12.2914C130.453 12.0643 130.663 11.7612 130.802 11.382C130.943 11 131.012 10.576 131.007 10.1102C131.003 9.64995 130.928 9.23586 130.783 8.86788C130.64 8.49704 130.425 8.20499 130.139 7.99175C129.856 7.77563 129.501 7.66956 129.075 7.67354C128.666 7.67736 128.323 7.78425 128.047 7.99423C127.77 8.20136 127.563 8.49024 127.424 8.86087C127.286 9.22866 127.219 9.65686 127.223 10.1455ZM136.238 13.4706C135.647 13.4761 135.127 13.3403 134.678 13.0632C134.233 12.7861 133.882 12.3959 133.628 11.8926C133.376 11.3892 133.247 10.7995 133.24 10.1234C133.234 9.44162 133.352 8.84532 133.594 8.33452C133.84 7.82368 134.183 7.42558 134.623 7.14021C135.066 6.85481 135.584 6.70935 136.175 6.70383C136.765 6.69832 137.284 6.83411 137.73 7.11122C138.178 7.38829 138.528 7.77993 138.78 8.28612C139.035 8.79229 139.166 9.38626 139.172 10.0681C139.178 10.7442 139.059 11.3362 138.813 11.8442C138.571 12.3522 138.228 12.7489 137.785 13.0343C137.344 13.3196 136.829 13.4651 136.238 13.4706ZM136.229 12.5672C136.678 12.563 137.046 12.4445 137.334 12.2117C137.622 11.9789 137.833 11.6744 137.969 11.2981C138.105 10.9218 138.17 10.5149 138.166 10.0774C138.162 9.63996 138.089 9.23295 137.946 8.85643C137.803 8.4799 137.586 8.17652 137.294 7.94628C137.002 7.71604 136.632 7.60302 136.183 7.6072C135.734 7.61139 135.366 7.73131 135.078 7.96696C134.791 8.20261 134.579 8.51 134.443 8.88912C134.308 9.26824 134.242 9.67654 134.246 10.114C134.25 10.5515 134.323 10.9571 134.466 11.3308C134.609 11.7045 134.826 12.005 135.118 12.2324C135.41 12.4598 135.78 12.5714 136.229 12.5672ZM141.661 4.55594L141.743 13.2828L140.737 13.2922L140.656 4.56533L141.661 4.55594ZM143.585 13.2656L143.524 6.72048L144.529 6.71109L144.59 13.2563L143.585 13.2656ZM144.025 5.62484C143.829 5.62667 143.659 5.56149 143.516 5.4293C143.375 5.29708 143.304 5.13723 143.303 4.94974C143.301 4.76224 143.369 4.60109 143.507 4.46627C143.648 4.33143 143.816 4.2631 144.012 4.26127C144.208 4.25944 144.376 4.32463 144.517 4.45685C144.66 4.58904 144.733 4.74888 144.734 4.93637C144.736 5.12387 144.667 5.28503 144.526 5.41988C144.388 5.55469 144.221 5.62301 144.025 5.62484ZM149.093 13.3506C148.479 13.3563 147.949 13.2164 147.503 12.9308C147.057 12.6451 146.713 12.2492 146.469 11.7429C146.226 11.2366 146.101 10.6568 146.095 10.0034C146.089 9.3387 146.206 8.75093 146.445 8.24015C146.688 7.7265 147.028 7.32417 147.465 7.03314C147.906 6.73924 148.421 6.58954 149.012 6.58402C149.473 6.57973 149.888 6.66108 150.259 6.82808C150.63 6.99508 150.935 7.23088 151.173 7.53549C151.412 7.84009 151.562 8.19667 151.622 8.60521L150.617 8.61459C150.537 8.31703 150.364 8.05442 150.098 7.82679C149.834 7.59628 149.481 7.4831 149.038 7.48723C148.646 7.49089 148.303 7.59637 148.01 7.80366C147.719 8.00809 147.493 8.29572 147.331 8.66656C147.173 9.03453 147.096 9.46567 147.101 9.95996C147.105 10.4656 147.189 10.9052 147.352 11.2787C147.517 11.6522 147.747 11.9412 148.042 12.1459C148.339 12.3505 148.686 12.451 149.084 12.4472C149.345 12.4448 149.582 12.3971 149.794 12.3042C150.007 12.2114 150.186 12.079 150.332 11.9072C150.478 11.7353 150.581 11.5298 150.642 11.2906L151.647 11.2812C151.594 11.6681 151.457 12.0174 151.235 12.3292C151.016 12.638 150.725 12.8851 150.36 13.0703C149.998 13.2527 149.575 13.3461 149.093 13.3506ZM153.806 15.6249C153.635 15.6265 153.483 15.6137 153.349 15.5866C153.216 15.5622 153.123 15.5375 153.072 15.5124L153.319 14.6237C153.564 14.6839 153.78 14.7047 153.967 14.6859C154.155 14.6671 154.32 14.5817 154.464 14.4298C154.61 14.2807 154.743 14.0394 154.862 13.7059L155.044 13.1928L152.563 6.63612L153.654 6.62594L155.509 11.8248L155.577 11.8241L157.335 6.59158L158.426 6.5814L155.718 14.107C155.596 14.4462 155.444 14.7275 155.261 14.9508C155.079 15.1769 154.866 15.3451 154.622 15.4553C154.382 15.5656 154.11 15.6221 153.806 15.6249ZM160.325 14.8822L160.224 3.9736L162.746 3.95006L162.754 4.78525L161.186 4.79988L161.272 14.0381L162.84 14.0235L162.848 14.8587L160.325 14.8822ZM166.993 13.1665C166.351 13.1725 165.802 13.0029 165.347 12.6577C164.892 12.3097 164.542 11.803 164.297 11.1376C164.052 10.4694 163.926 9.66089 163.917 8.71207C163.908 7.76893 164.02 6.96245 164.252 6.29264C164.487 5.61996 164.829 5.10538 165.278 4.74891C165.729 4.38957 166.273 4.20693 166.909 4.20099C167.545 4.19505 168.091 4.36753 168.546 4.71841C169.004 5.06642 169.355 5.57453 169.6 6.24273C169.848 6.90806 169.976 7.7123 169.985 8.65544C169.994 9.60426 169.882 10.415 169.649 11.0876C169.417 11.7575 169.077 12.2706 168.628 12.6271C168.18 12.9807 167.635 13.1605 166.993 13.1665ZM166.984 12.2291C167.62 12.2231 168.112 11.9117 168.458 11.2948C168.805 10.6779 168.973 9.8013 168.962 8.66498C168.955 7.90933 168.868 7.26665 168.701 6.73693C168.537 6.20719 168.303 5.80453 167.999 5.52894C167.699 5.25333 167.338 5.11748 166.917 5.12141C166.287 5.12729 165.797 5.44296 165.448 6.0684C165.098 6.69101 164.929 7.56905 164.939 8.70252C164.946 9.45817 165.032 10.0994 165.196 10.6263C165.36 11.1532 165.592 11.5531 165.893 11.8259C166.197 12.0986 166.561 12.233 166.984 12.2291ZM173.588 3.84888L173.69 14.7575L171.167 14.781L171.159 13.9458L172.727 13.9312L172.641 4.69298L171.073 4.70761L171.065 3.87242L173.588 3.84888ZM176.814 4.22787L176.821 4.99489C176.823 5.22783 176.783 5.4768 176.7 5.74179C176.62 6.00391 176.501 6.2593 176.341 6.50796C176.184 6.75375 175.993 6.96861 175.767 7.15254L175.218 6.71447C175.394 6.45713 175.547 6.19007 175.675 5.91329C175.806 5.63365 175.87 5.33617 175.867 5.02084L175.86 4.23678L176.814 4.22787ZM178.996 4.20751L179.003 4.97452C179.005 5.20747 178.965 5.45644 178.882 5.72142C178.802 5.98355 178.682 6.23894 178.523 6.48759C178.366 6.73339 178.175 6.94825 177.949 7.13218L177.4 6.69411C177.576 6.43677 177.729 6.16971 177.857 5.89293C177.988 5.61329 178.052 5.3158 178.049 5.00048L178.041 4.21642L178.996 4.20751Z" fill="white"/>
<path d="M1.16876 31.5948L1.08731 22.8679L4.03605 22.8404C4.71784 22.834 5.27856 22.9453 5.71821 23.1741C6.15784 23.4001 6.48465 23.7139 6.69863 24.1153C6.91261 24.5167 7.02201 24.9745 7.0268 25.4887C7.0316 26.0029 6.93075 26.4598 6.72424 26.8595C6.51774 27.2592 6.19822 27.5747 5.7657 27.806C5.33316 28.0345 4.77883 28.1518 4.10273 28.1582L1.71647 28.1804L1.70756 27.2259L4.05973 27.204C4.52562 27.1996 4.89996 27.1279 5.18277 26.9889C5.46842 26.8499 5.67399 26.6548 5.79949 26.4036C5.92781 26.1496 5.99034 25.8478 5.98708 25.4984C5.98382 25.149 5.91563 24.8442 5.78251 24.5841C5.6494 24.324 5.43872 24.1242 5.15047 23.9848C4.8622 23.8426 4.48228 23.7737 4.01071 23.7781L2.15284 23.7955L2.22553 31.5849L1.16876 31.5948ZM5.23995 27.6362L7.42417 31.5364L6.19695 31.5479L4.04682 27.6473L5.23995 27.6362ZM11.383 31.6358C10.7524 31.6417 10.207 31.5076 9.74708 31.2335C9.28993 30.9565 8.93544 30.5677 8.6836 30.0672C8.43457 29.5638 8.30693 28.9769 8.30067 28.3065C8.29441 27.6361 8.41105 27.044 8.65059 26.5304C8.89294 26.0139 9.23293 25.6102 9.67058 25.3191C10.111 25.0252 10.6267 24.8755 11.2176 24.87C11.5585 24.8668 11.8956 24.9205 12.2291 25.031C12.5625 25.1416 12.8668 25.3234 13.1419 25.5765C13.417 25.8268 13.6374 26.16 13.8032 26.5761C13.969 26.9922 14.0548 27.5056 14.0605 28.1164L14.0645 28.5425L9.01925 28.5896L9.01114 27.7203L13.0337 27.6827C13.0302 27.3134 12.9533 26.9846 12.8029 26.6962C12.6553 26.4078 12.4458 26.1811 12.1743 26.016C11.9058 25.8509 11.5896 25.77 11.226 25.7734C10.8255 25.7771 10.4798 25.8798 10.1891 26.0814C9.90115 26.2801 9.68053 26.5379 9.52723 26.8546C9.37393 27.1714 9.29896 27.5102 9.30233 27.871L9.30774 28.4505C9.31235 28.9448 9.40149 29.363 9.57514 29.7052C9.75161 30.0444 9.99408 30.3021 10.3026 30.4782C10.611 30.6515 10.9683 30.7362 11.3746 30.7325C11.6388 30.73 11.8771 30.6908 12.0894 30.615C12.3046 30.5363 12.4896 30.4209 12.6445 30.2689C12.7993 30.114 12.9182 29.9226 13.0013 29.6945L13.9754 29.9581C13.8762 30.2886 13.7071 30.58 13.4679 30.8322C13.2288 31.0816 12.9323 31.2776 12.5785 31.4201C12.2247 31.5598 11.8262 31.6317 11.383 31.6358ZM20.2104 26.3373L19.3094 26.6014C19.2512 26.4514 19.166 26.3059 19.0539 26.1648C18.9446 26.021 18.7957 25.903 18.6074 25.811C18.419 25.719 18.1785 25.6744 17.8859 25.6771C17.4854 25.6809 17.1524 25.7763 16.8871 25.9635C16.6246 26.1477 16.4947 26.3805 16.4973 26.6617C16.4997 26.9117 16.5924 27.1083 16.7756 27.2515C16.9587 27.3947 17.2439 27.5128 17.6312 27.6057L18.605 27.8353C19.1915 27.9719 19.6296 28.1851 19.9192 28.4751C20.2088 28.7621 20.3558 29.1344 20.3601 29.5917C20.3636 29.9667 20.2587 30.3029 20.0456 30.6004C19.8353 30.8978 19.5392 31.1335 19.1573 31.3076C18.7754 31.4816 18.3302 31.571 17.8217 31.5757C17.1541 31.582 16.6002 31.4422 16.16 31.1566C15.7198 30.8709 15.4389 30.4502 15.3172 29.8945L16.2695 29.647C16.3637 29.9984 16.538 30.2609 16.7925 30.4347C17.0498 30.6085 17.3844 30.6934 17.7963 30.6896C18.2651 30.6852 18.6363 30.5823 18.91 30.3809C19.1865 30.1766 19.3234 29.9338 19.3208 29.6526C19.3187 29.4253 19.2374 29.2357 19.0769 29.0838C18.9163 28.929 18.6709 28.8148 18.3407 28.7412L17.2474 28.4957C16.6467 28.3593 16.2043 28.1432 15.9203 27.8476C15.6391 27.549 15.4964 27.1739 15.4922 26.7223C15.4887 26.353 15.5894 26.0253 15.7941 25.7393C16.0017 25.4532 16.2851 25.2276 16.6443 25.0623C17.0064 24.897 17.4176 24.8122 17.8778 24.8079C18.5255 24.8018 19.0353 24.9391 19.4073 25.2197C19.7821 25.5004 20.0498 25.8729 20.2104 26.3373ZM24.5511 31.5129C23.9375 31.5187 23.4078 31.3787 22.9619 31.0931C22.516 30.8075 22.1714 30.4115 21.928 29.9052C21.6847 29.399 21.5599 28.8191 21.5538 28.1658C21.5476 27.501 21.6643 26.9132 21.9039 26.4025C22.1463 25.8888 22.4863 25.4865 22.9239 25.1955C23.3644 24.9016 23.88 24.7518 24.4709 24.7463C24.9311 24.742 25.3467 24.8234 25.7176 24.9904C26.0885 25.1574 26.3932 25.3932 26.6319 25.6978C26.8705 26.0024 27.0202 26.359 27.0808 26.7675L26.0752 26.7769C25.9957 26.4793 25.8228 26.2167 25.5564 25.9891C25.2929 25.7586 24.9396 25.6454 24.4964 25.6495C24.1044 25.6532 23.7616 25.7587 23.4681 25.966C23.1773 26.1704 22.9513 26.458 22.79 26.8289C22.6315 27.1968 22.5545 27.628 22.5592 28.1223C22.5639 28.6279 22.6475 29.0675 22.8101 29.441C22.9755 29.8145 23.2055 30.1035 23.5001 30.3082C23.7974 30.5128 24.145 30.6133 24.5427 30.6096C24.804 30.6071 25.0408 30.5595 25.253 30.4666C25.4652 30.3737 25.6444 30.2413 25.7905 30.0695C25.9367 29.8977 26.0399 29.6921 26.1001 29.4529L27.1058 29.4435C27.0526 29.8304 26.9152 30.1797 26.6937 30.4915C26.4749 30.8003 26.1832 31.0474 25.8184 31.2326C25.4565 31.415 25.034 31.5084 24.5511 31.5129ZM30.5212 31.4743C30.1064 31.4781 29.7293 31.4035 29.3898 31.2504C29.0502 31.0945 28.7797 30.8683 28.578 30.5719C28.3764 30.2726 28.2735 29.9099 28.2696 29.4838C28.2661 29.1088 28.3371 28.8042 28.4826 28.5699C28.6281 28.3327 28.8239 28.1462 29.0698 28.0104C29.3157 27.8746 29.5875 27.7726 29.8851 27.7045C30.1856 27.6335 30.4877 27.5767 30.7912 27.5341C31.1885 27.4792 31.5105 27.4379 31.7575 27.41C32.0072 27.3792 32.1886 27.3307 32.3016 27.2643C32.4174 27.1979 32.4746 27.0837 32.4731 26.9218L32.4728 26.8877C32.4689 26.4672 32.3508 26.1416 32.1185 25.9108C31.889 25.68 31.5428 25.5667 31.0798 25.5711C30.5997 25.5755 30.2242 25.6842 29.9535 25.8969C29.6827 26.1097 29.4931 26.3359 29.3845 26.5756L28.4268 26.2436C28.5936 25.8443 28.8179 25.5325 29.0999 25.3083C29.3848 25.0812 29.6958 24.922 30.033 24.8308C30.3731 24.7367 30.7079 24.6881 31.0374 24.6851C31.2476 24.6831 31.4893 24.7064 31.7625 24.755C32.0385 24.8007 32.3051 24.8991 32.5622 25.0501C32.8221 25.2011 33.0388 25.4306 33.2121 25.7387C33.3854 26.0467 33.4745 26.4607 33.4794 26.9805L33.5196 31.2929L32.514 31.3022L32.5057 30.4159L32.4546 30.4164C32.3877 30.5591 32.2755 30.7121 32.1179 30.8755C31.9604 31.0389 31.75 31.1787 31.4869 31.2948C31.2237 31.4109 30.9019 31.4707 30.5212 31.4743ZM30.6662 30.5695C31.0639 30.5657 31.3984 30.4845 31.6696 30.3257C31.9437 30.1669 32.1492 29.9633 32.2861 29.7148C32.4258 29.4663 32.4944 29.2057 32.4919 28.933L32.4833 28.0126C32.4411 28.0641 32.3478 28.1119 32.2034 28.1559C32.0617 28.197 31.8973 28.234 31.7101 28.267C31.5257 28.2971 31.3455 28.3244 31.1696 28.3487C30.9965 28.3703 30.856 28.3886 30.7482 28.4038C30.4872 28.4403 30.2434 28.498 30.0169 28.5768C29.7931 28.6528 29.6124 28.7667 29.4746 28.9186C29.3396 29.0676 29.2733 29.2699 29.2757 29.5256C29.2789 29.875 29.4107 30.138 29.6708 30.3145C29.9338 30.4882 30.2656 30.5732 30.6662 30.5695ZM36.2793 22.5394L36.3608 31.2663L35.3551 31.2757L35.2737 22.5488L36.2793 22.5394ZM38.2027 31.2492L38.1416 24.704L39.1472 24.6946L39.2083 31.2398L38.2027 31.2492ZM38.6427 23.6083C38.4467 23.6102 38.2771 23.545 38.1338 23.4128C37.9933 23.2806 37.9222 23.1207 37.9205 22.9332C37.9187 22.7457 37.9868 22.5846 38.1248 22.4498C38.2656 22.3149 38.434 22.2466 38.63 22.2448C38.826 22.2429 38.9943 22.3081 39.1347 22.4404C39.278 22.5725 39.3505 22.7324 39.3522 22.9199C39.354 23.1074 39.2845 23.2685 39.1437 23.4034C39.0057 23.5382 38.8387 23.6065 38.6427 23.6083ZM42.0191 27.2759L42.0558 31.2132L41.0502 31.2226L40.9891 24.6774L41.9607 24.6683L41.9702 25.691L42.0554 25.6902C42.2057 25.3564 42.4362 25.0872 42.7468 24.8826C43.0574 24.6751 43.4598 24.5691 43.9541 24.5645C44.3973 24.5604 44.7859 24.6477 45.1199 24.8264C45.454 25.0022 45.715 25.2725 45.9031 25.6373C46.0912 25.9992 46.1878 26.4585 46.193 27.0153L46.2318 31.1742L45.2261 31.1836L45.188 27.0929C45.1832 26.5787 45.0459 26.1794 44.7762 25.895C44.5065 25.6077 44.1386 25.4662 43.6728 25.4706C43.3518 25.4736 43.0655 25.5459 42.814 25.6874C42.5653 25.8289 42.3697 26.0339 42.2273 26.3023C42.0849 26.5707 42.0155 26.8952 42.0191 27.2759ZM50.7355 33.7232C50.2498 33.7277 49.8316 33.6691 49.481 33.5474C49.1304 33.4285 48.8377 33.2693 48.6029 33.0698C48.371 32.8731 48.1857 32.6617 48.0473 32.4357L48.8431 31.8658C48.9351 31.9843 49.0515 32.1195 49.1921 32.2716C49.3327 32.4266 49.5243 32.5597 49.7669 32.6711C50.0123 32.7853 50.3324 32.8406 50.7273 32.8369C51.2556 32.832 51.6905 32.7 52.0319 32.4412C52.3732 32.1823 52.5413 31.7801 52.5362 31.2347L52.5238 29.9052L52.4386 29.906C52.3659 30.026 52.2621 30.1747 52.1274 30.3521C51.9955 30.5266 51.8038 30.6833 51.5522 30.822C51.3035 30.9578 50.9661 31.0278 50.5399 31.0317C50.0116 31.0367 49.536 30.9161 49.1132 30.67C48.6933 30.4239 48.3589 30.0634 48.1102 29.5884C47.8643 29.1134 47.7381 28.535 47.7318 27.8533C47.7255 27.1828 47.8379 26.5979 48.0691 26.0986C48.3002 25.5964 48.6247 25.207 49.0426 24.9304C49.4605 24.6509 49.945 24.5086 50.4961 24.5034C50.9222 24.4995 51.2609 24.5673 51.5122 24.707C51.7663 24.8439 51.961 25.0012 52.0962 25.1789C52.2342 25.3537 52.3406 25.4976 52.4156 25.6106L52.5178 25.6096L52.5081 24.5699L53.4797 24.5608L53.5425 31.2935C53.5478 31.856 53.4242 32.3145 53.1718 32.6692C52.9223 33.0266 52.5838 33.2897 52.1564 33.4585C51.7319 33.6301 51.2582 33.7183 50.7355 33.7232ZM50.6679 30.1271C51.0713 30.1233 51.4113 30.0278 51.688 29.8406C51.9646 29.6533 52.1738 29.3857 52.3154 29.0378C52.4571 28.6899 52.5257 28.2744 52.5212 27.7915C52.5168 27.3199 52.4419 26.9044 52.2964 26.545C52.151 26.1855 51.9382 25.9048 51.6579 25.7029C51.3776 25.5009 51.0329 25.4019 50.6238 25.4057C50.1977 25.4097 49.8436 25.5209 49.5615 25.7395C49.2823 25.958 49.0734 26.2498 48.9347 26.6147C48.7989 26.9796 48.7331 27.3837 48.7372 27.8268C48.7415 28.2814 48.8162 28.6827 48.9615 29.0308C49.1097 29.376 49.3253 29.6467 49.6084 29.8429C49.8943 30.0363 50.2474 30.131 50.6679 30.1271ZM60.6839 31.1928C60.2692 31.1966 59.892 31.122 59.5525 30.9689C59.213 30.813 58.9424 30.5868 58.7408 30.2904C58.5391 29.9911 58.4363 29.6284 58.4323 29.2023C58.4288 28.8273 58.4998 28.5227 58.6454 28.2884C58.7909 28.0512 58.9866 27.8647 59.2325 27.7289C59.4784 27.5931 59.7502 27.4911 60.0479 27.423C60.3484 27.352 60.6504 27.2952 60.954 27.2526C61.3512 27.1977 61.6733 27.1564 61.9202 27.1285C62.1699 27.0977 62.3513 27.0492 62.4643 26.9828C62.5802 26.9163 62.6374 26.8022 62.6359 26.6402L62.6355 26.6062C62.6316 26.1857 62.5135 25.8601 62.2812 25.6293C62.0518 25.3985 61.7056 25.2852 61.2425 25.2896C60.7624 25.294 60.387 25.4027 60.1162 25.6154C59.8455 25.8282 59.6558 26.0544 59.5473 26.2941L58.5896 25.9621C58.7563 25.5628 58.9807 25.251 59.2627 25.0268C59.5475 24.7997 59.8585 24.6405 60.1958 24.5493C60.5358 24.4552 60.8706 24.4066 61.2001 24.4036C61.4104 24.4016 61.6521 24.4249 61.9253 24.4735C62.2013 24.5192 62.4678 24.6176 62.7249 24.7686C62.9849 24.9196 63.2015 25.1491 63.3748 25.4572C63.5482 25.7652 63.6373 26.1792 63.6421 26.699L63.6824 31.0114L62.6767 31.0207L62.6685 30.1344L62.6173 30.1349C62.5505 30.2776 62.4383 30.4306 62.2807 30.594C62.1231 30.7574 61.9128 30.8972 61.6496 31.0133C61.3865 31.1294 61.0646 31.1892 60.6839 31.1928ZM60.8289 30.288C61.2266 30.2842 61.5611 30.203 61.8324 30.0442C62.1065 29.8854 62.3119 29.6818 62.4488 29.4333C62.5886 29.1848 62.6572 28.9242 62.6546 28.6515L62.646 27.7311C62.6039 27.7826 62.5106 27.8304 62.3661 27.8744C62.2244 27.9155 62.06 27.9525 61.8728 27.9855C61.6884 28.0156 61.5083 28.0429 61.3324 28.0672C61.1592 28.0888 61.0188 28.1071 60.911 28.1223C60.6499 28.1588 60.4061 28.2165 60.1796 28.2953C59.9559 28.3713 59.7751 28.4852 59.6373 28.6371C59.5023 28.7861 59.436 28.9884 59.4384 29.2441C59.4417 29.5935 59.5734 29.8565 59.8336 30.033C60.0966 30.2067 60.4284 30.2917 60.8289 30.288ZM65.5179 30.9942L65.4568 24.4491L66.4283 24.44L66.4379 25.4627L66.5231 25.4619C66.6562 25.1112 66.8738 24.8378 67.176 24.6418C67.4781 24.443 67.8423 24.3416 68.2684 24.3376C68.7002 24.3336 69.0604 24.4282 69.3492 24.6215C69.6408 24.812 69.8691 25.0812 70.0343 25.4291L70.1025 25.4285C70.2669 25.0889 70.5159 24.8181 70.8492 24.6161C71.1825 24.4112 71.5836 24.3066 72.0523 24.3023C72.6375 24.2968 73.1179 24.4756 73.4934 24.8386C73.869 25.1987 74.0603 25.7637 74.0675 26.5336L74.1084 30.9141L73.1028 30.9234L73.0619 26.5429C73.0574 26.06 72.9221 25.7161 72.6559 25.5112C72.3898 25.3063 72.0778 25.2055 71.7198 25.2088C71.2596 25.2131 70.9044 25.3556 70.6542 25.6364C70.4039 25.9143 70.2808 26.2649 70.2847 26.6882L70.3245 30.9494L69.3018 30.9589L69.26 26.4762C69.2565 26.104 69.133 25.8054 68.8894 25.5804C68.6458 25.3526 68.3336 25.2404 67.953 25.244C67.6916 25.2464 67.4479 25.3183 67.222 25.4596C66.9989 25.6009 66.8188 25.7958 66.682 26.0442C66.5479 26.2898 66.4823 26.5731 66.4853 26.8941L66.5235 30.9848L65.5179 30.9942ZM75.97 33.3513L75.886 24.3517L76.8576 24.3427L76.8673 25.3824L76.9866 25.3813C77.0594 25.2669 77.1603 25.1211 77.2893 24.9438C77.4212 24.7635 77.61 24.6027 77.8559 24.4612C78.1045 24.3168 78.4419 24.2426 78.8681 24.2387C79.4192 24.2335 79.9062 24.3668 80.3292 24.6384C80.7522 24.91 81.084 25.2976 81.3245 25.801C81.565 26.3045 81.6885 26.9 81.6949 27.5874C81.7014 28.2806 81.5891 28.8825 81.358 29.3932C81.127 29.9011 80.8039 30.2961 80.3889 30.5784C79.9739 30.8579 79.4937 31.0002 78.9482 31.0053C78.5278 31.0092 78.1905 30.9427 77.9364 30.8059C77.6822 30.6662 77.4862 30.5075 77.3481 30.3298C77.2101 30.1493 77.1036 29.9997 77.0286 29.8811L76.9434 29.8819L76.9757 33.3419L75.97 33.3513ZM76.9052 27.6151C76.9098 28.1094 76.9863 28.5448 77.1347 28.9212C77.2831 29.2949 77.4974 29.5869 77.7778 29.7974C78.0582 30.005 78.4001 30.1069 78.8035 30.1032C79.2239 30.0992 79.5737 29.9852 79.8529 29.761C80.1349 29.5339 80.3451 29.2308 80.4836 28.8516C80.6249 28.4696 80.6934 28.0457 80.6891 27.5798C80.6848 27.1196 80.6099 26.7055 80.4644 26.3375C80.3217 25.9666 80.1074 25.6746 79.8213 25.4614C79.538 25.2452 79.1833 25.1392 78.7572 25.1431C78.3481 25.147 78.0053 25.2539 77.7289 25.4638C77.4524 25.671 77.2448 25.9598 77.1062 26.3305C76.9676 26.6983 76.9006 27.1265 76.9052 27.6151ZM84.1835 22.0924L84.2649 30.8193L83.2593 30.8286L83.1778 22.1018L84.1835 22.0924ZM86.1068 30.8021L86.0457 24.2569L87.0514 24.2475L87.1125 30.7927L86.1068 30.8021ZM86.5469 23.1613C86.3509 23.1631 86.1812 23.0979 86.0379 22.9657C85.8975 22.8335 85.8264 22.6737 85.8247 22.4862C85.8229 22.2987 85.891 22.1375 86.029 22.0027C86.1698 21.8679 86.3382 21.7995 86.5342 21.7977C86.7302 21.7959 86.8984 21.8611 87.0389 21.9933C87.1821 22.1255 87.2547 22.2853 87.2564 22.4728C87.2582 22.6603 87.1886 22.8215 87.0478 22.9563C86.9099 23.0911 86.7429 23.1594 86.5469 23.1613ZM91.8079 24.2031L91.8159 25.0554L88.2876 25.0883L88.2797 24.2361L91.8079 24.2031ZM89.3975 30.7714L89.328 23.3228C89.3245 22.9478 89.4096 22.6345 89.5834 22.3829C89.7572 22.1313 89.9842 21.9416 90.2642 21.814C90.5443 21.6864 90.8406 21.6211 91.1531 21.6182C91.4002 21.6159 91.6021 21.6339 91.7587 21.6722C91.9153 21.7105 92.0322 21.7464 92.1092 21.7798L91.8275 22.6517C91.7762 22.6352 91.705 22.6145 91.6139 22.5898C91.5256 22.5651 91.409 22.5534 91.2641 22.5547C90.9317 22.5578 90.6925 22.6439 90.5463 22.8129C90.403 22.9818 90.3328 23.2282 90.3359 23.5521L90.4032 30.762L89.3975 30.7714ZM93.2784 30.7351L93.2173 24.19L94.2229 24.1806L94.284 30.7258L93.2784 30.7351ZM93.7185 23.0943C93.5224 23.0962 93.3528 23.031 93.2095 22.8988C93.0691 22.7666 92.998 22.6067 92.9962 22.4192C92.9945 22.2317 93.0626 22.0706 93.2005 21.9358C93.3413 21.8009 93.5097 21.7326 93.7057 21.7308C93.9017 21.7289 94.07 21.7941 94.2104 21.9263C94.3537 22.0585 94.4262 22.2184 94.428 22.4059C94.4297 22.5934 94.3602 22.7545 94.2194 22.8894C94.0815 23.0242 93.9145 23.0925 93.7185 23.0943ZM98.7862 30.8201C98.1726 30.8258 97.6428 30.6859 97.1969 30.4003C96.7511 30.1146 96.4065 29.7187 96.1631 29.2124C95.9197 28.7061 95.795 28.1263 95.7889 27.4729C95.7827 26.8082 95.8994 26.2204 96.1389 25.7096C96.3813 25.196 96.7213 24.7937 97.159 24.5026C97.5994 24.2087 98.1151 24.059 98.706 24.0535C99.1662 24.0492 99.5817 24.1306 99.9526 24.2976C100.324 24.4646 100.628 24.7004 100.867 25.005C101.106 25.3096 101.255 25.6662 101.316 26.0747L100.31 26.0841C100.231 25.7865 100.058 25.5239 99.7915 25.2963C99.5279 25.0658 99.1746 24.9526 98.7314 24.9567C98.3394 24.9604 97.9966 25.0659 97.7031 25.2732C97.4124 25.4776 97.1864 25.7652 97.025 26.1361C96.8665 26.504 96.7896 26.9352 96.7942 27.4295C96.7989 27.9351 96.8826 28.3747 97.0452 28.7482C97.2106 29.1217 97.4406 29.4107 97.7351 29.6154C98.0325 29.82 98.38 29.9205 98.7777 29.9167C99.0391 29.9143 99.2759 29.8666 99.4881 29.7737C99.7003 29.6808 99.8795 29.5485 100.026 29.3767C100.172 29.2048 100.275 28.9993 100.335 28.7601L101.341 28.7507C101.288 29.1376 101.15 29.4869 100.929 29.7987C100.71 30.1075 100.418 30.3546 100.053 30.5398C99.6915 30.7222 99.2691 30.8156 98.7862 30.8201ZM104.756 30.7814C104.341 30.7853 103.964 30.7107 103.625 30.5576C103.285 30.4017 103.015 30.1755 102.813 29.8791C102.611 29.5798 102.509 29.2171 102.505 28.791C102.501 28.416 102.572 28.1114 102.718 27.877C102.863 27.6399 103.059 27.4534 103.305 27.3176C103.551 27.1817 103.822 27.0798 104.12 27.0116C104.421 26.9407 104.723 26.8839 105.026 26.8412C105.424 26.7864 105.746 26.745 105.993 26.7172C106.242 26.6864 106.424 26.6379 106.537 26.5715C106.652 26.505 106.71 26.3909 106.708 26.2289L106.708 26.1948C106.704 25.7744 106.586 25.4488 106.354 25.218C106.124 24.9872 105.778 24.8739 105.315 24.8782C104.835 24.8827 104.459 24.9913 104.189 25.2041C103.918 25.4169 103.728 25.6431 103.62 25.8827L102.662 25.5508C102.829 25.1515 103.053 24.8397 103.335 24.6155C103.62 24.3884 103.931 24.2292 104.268 24.138C104.608 24.0439 104.943 23.9953 105.272 23.9922C105.483 23.9903 105.724 24.0136 105.998 24.0622C106.274 24.1079 106.54 24.2063 106.797 24.3573C107.057 24.5083 107.274 24.7378 107.447 25.0458C107.62 25.3539 107.71 25.7679 107.714 26.2877L107.755 30.6L106.749 30.6094L106.741 29.7231L106.69 29.7236C106.623 29.8663 106.511 30.0193 106.353 30.1827C106.195 30.3461 105.985 30.4859 105.722 30.602C105.459 30.7181 105.137 30.7779 104.756 30.7814ZM104.901 29.8766C105.299 29.8729 105.633 29.7917 105.905 29.6329C106.179 29.4741 106.384 29.2704 106.521 29.022C106.661 28.7735 106.729 28.5129 106.727 28.2402L106.718 27.3198C106.676 27.3713 106.583 27.4191 106.438 27.463C106.297 27.5041 106.132 27.5412 105.945 27.5742C105.761 27.6043 105.581 27.6316 105.405 27.6559C105.232 27.6774 105.091 27.6958 104.983 27.711C104.722 27.7475 104.478 27.8052 104.252 27.884C104.028 27.96 103.847 28.0739 103.71 28.2258C103.575 28.3747 103.508 28.5771 103.511 28.8328C103.514 29.1822 103.646 29.4452 103.906 29.6217C104.169 29.7954 104.501 29.8804 104.901 29.8766ZM112.376 24.0112L112.384 24.8634L108.992 24.8951L108.984 24.0428L112.376 24.0112ZM109.958 22.4655L110.963 22.4561L111.021 28.6945C111.024 28.9785 111.067 29.1912 111.151 29.3325C111.238 29.4709 111.346 29.5636 111.477 29.6107C111.611 29.6549 111.752 29.6763 111.9 29.675C112.011 29.6739 112.102 29.6674 112.173 29.6554C112.243 29.6405 112.3 29.6286 112.343 29.6197L112.556 30.5211C112.488 30.5473 112.393 30.5738 112.271 30.6005C112.149 30.6301 111.994 30.6457 111.807 30.6475C111.523 30.6501 111.244 30.5916 110.97 30.472C110.699 30.3524 110.473 30.1684 110.291 29.9201C110.113 29.6717 110.022 29.3572 110.018 28.9766L109.958 22.4655ZM113.949 30.5422L113.888 23.9971L114.894 23.9877L114.955 30.5328L113.949 30.5422ZM114.389 22.9014C114.193 22.9033 114.024 22.8381 113.88 22.7059C113.74 22.5737 113.669 22.4138 113.667 22.2263C113.665 22.0388 113.734 21.8777 113.871 21.7429C114.012 21.608 114.181 21.5397 114.377 21.5378C114.573 21.536 114.741 21.6012 114.881 21.7334C115.025 21.8656 115.097 22.0255 115.099 22.213C115.101 22.4004 115.031 22.5616 114.89 22.6965C114.752 22.8313 114.585 22.8996 114.389 22.9014ZM119.457 30.6272C118.866 30.6327 118.346 30.4969 117.898 30.2199C117.452 29.9428 117.102 29.5525 116.847 29.0492C116.595 28.5459 116.466 27.9561 116.46 27.28C116.453 26.5982 116.572 26.0019 116.814 25.4911C117.059 24.9803 117.402 24.5822 117.843 24.2968C118.286 24.0114 118.803 23.866 119.394 23.8604C119.985 23.8549 120.503 23.9907 120.949 24.2678C121.398 24.5449 121.748 24.9365 122 25.4427C122.255 25.9489 122.385 26.5429 122.391 27.2247C122.398 27.9008 122.278 28.4928 122.033 29.0008C121.791 29.5088 121.448 29.9055 121.004 30.1909C120.564 30.4762 120.048 30.6217 119.457 30.6272ZM119.449 29.7238C119.898 29.7196 120.266 29.6011 120.553 29.3683C120.841 29.1355 121.053 28.831 121.188 28.4547C121.324 28.0784 121.39 27.6715 121.386 27.234C121.382 26.7966 121.308 26.3896 121.166 26.013C121.023 25.6365 120.806 25.3331 120.514 25.1029C120.222 24.8726 119.851 24.7596 119.402 24.7638C118.954 24.768 118.585 24.8879 118.298 25.1236C118.01 25.3592 117.799 25.6666 117.663 26.0457C117.527 26.4249 117.461 26.8332 117.465 27.2706C117.47 27.7081 117.543 28.1137 117.686 28.4874C117.828 28.8611 118.046 29.1616 118.338 29.389C118.629 29.6164 119 29.728 119.449 29.7238ZM124.926 26.5021L124.962 30.4394L123.957 30.4488L123.896 23.9037L124.867 23.8946L124.877 24.9173L124.962 24.9165C125.112 24.5827 125.343 24.3135 125.653 24.1089C125.964 23.9014 126.366 23.7954 126.861 23.7908C127.304 23.7866 127.692 23.8739 128.026 24.0526C128.361 24.2285 128.622 24.4988 128.81 24.8635C128.998 25.2254 129.094 25.6848 129.1 26.2416L129.138 30.4005L128.133 30.4099L128.095 26.3191C128.09 25.8049 127.952 25.4056 127.683 25.1212C127.413 24.8339 127.045 24.6925 126.579 24.6968C126.258 24.6998 125.972 24.7721 125.72 24.9137C125.472 25.0552 125.276 25.2602 125.134 25.5285C124.991 25.7969 124.922 26.1215 124.926 26.5021ZM136.528 31.6441L133.618 21.2219L134.538 21.2133L137.448 31.6355L136.528 31.6441ZM140.196 31.6098L137.286 21.1877L138.206 21.1791L141.116 31.6012L140.196 31.6098ZM147.154 30.2323L145.098 23.7058L146.155 23.6959L147.616 28.6939L147.685 28.6932L149.036 23.669L150.109 23.659L151.537 28.6402L151.605 28.6396L152.973 23.6323L154.03 23.6224L152.096 30.1862L151.108 30.1954L149.629 25.1806L149.527 25.1816L148.142 30.2231L147.154 30.2323ZM157.348 30.2906C156.933 30.2945 156.556 30.2199 156.216 30.0668C155.877 29.9109 155.606 29.6847 155.405 29.3883C155.203 29.089 155.1 28.7263 155.096 28.3002C155.093 27.9252 155.164 27.6205 155.309 27.3862C155.455 27.1491 155.65 26.9626 155.896 26.8267C156.142 26.6909 156.414 26.5889 156.712 26.5208C157.012 26.4498 157.314 26.393 157.618 26.3504C158.015 26.2956 158.337 26.2542 158.584 26.2263C158.834 26.1956 159.015 26.147 159.128 26.0806C159.244 26.0142 159.301 25.9 159.3 25.7381L159.299 25.704C159.295 25.2836 159.177 24.958 158.945 24.7272C158.716 24.4963 158.369 24.3831 157.906 24.3874C157.426 24.3919 157.051 24.5005 156.78 24.7133C156.509 24.926 156.32 25.1523 156.211 25.3919L155.253 25.0599C155.42 24.6606 155.644 24.3489 155.926 24.1246C156.211 23.8975 156.522 23.7384 156.86 23.6472C157.2 23.5531 157.534 23.5045 157.864 23.5014C158.074 23.4995 158.316 23.5228 158.589 23.5714C158.865 23.6171 159.132 23.7154 159.389 23.8665C159.649 24.0175 159.865 24.247 160.039 24.555C160.212 24.8631 160.301 25.277 160.306 25.7969L160.346 30.1092L159.34 30.1186L159.332 29.2323L159.281 29.2328C159.214 29.3754 159.102 29.5285 158.944 29.6919C158.787 29.8553 158.577 29.995 158.313 30.1111C158.05 30.2272 157.728 30.2871 157.348 30.2906ZM157.493 29.3858C157.89 29.3821 158.225 29.3009 158.496 29.1421C158.77 28.9833 158.976 28.7796 159.113 28.5312C159.252 28.2827 159.321 28.0221 159.318 27.7494L159.31 26.829C159.268 26.8805 159.174 26.9283 159.03 26.9722C158.888 27.0133 158.724 27.0504 158.537 27.0834C158.352 27.1135 158.172 27.1407 157.996 27.1651C157.823 27.1866 157.683 27.205 157.575 27.2202C157.314 27.2567 157.07 27.3144 156.843 27.3932C156.62 27.4692 156.439 27.5831 156.301 27.7349C156.166 27.8839 156.1 28.0863 156.102 28.3419C156.105 28.6913 156.237 28.9543 156.497 29.1309C156.76 29.3046 157.092 29.3896 157.493 29.3858ZM167.238 23.4992L164.879 30.0669L163.856 30.0765L161.375 23.5539L162.466 23.5437L164.321 28.7425L164.389 28.7419L166.147 23.5093L167.238 23.4992ZM171.138 30.1449C170.507 30.1508 169.962 30.0166 169.502 29.7425C169.045 29.4655 168.69 29.0768 168.438 28.5762C168.189 28.0729 168.062 27.486 168.055 26.8155C168.049 26.1451 168.166 25.5531 168.405 25.0395C168.648 24.523 168.988 24.1192 169.425 23.8282C169.866 23.5343 170.381 23.3846 170.972 23.3791C171.313 23.3759 171.65 23.4296 171.984 23.5401C172.317 23.6506 172.622 23.8325 172.897 24.0856C173.172 24.3359 173.392 24.669 173.558 25.0851C173.724 25.5012 173.81 26.0146 173.815 26.6254L173.819 27.0515L168.774 27.0986L168.766 26.2293L172.788 26.1918C172.785 25.8225 172.708 25.4937 172.558 25.2053C172.41 24.9169 172.201 24.6901 171.929 24.525C171.661 24.3599 171.344 24.2791 170.981 24.2824C170.58 24.2862 170.235 24.3888 169.944 24.5904C169.656 24.7891 169.435 25.0469 169.282 25.3637C169.129 25.6805 169.054 26.0193 169.057 26.38L169.062 26.9596C169.067 27.4539 169.156 27.8721 169.33 28.2142C169.506 28.5535 169.749 28.8112 170.057 28.9873C170.366 29.1606 170.723 29.2453 171.129 29.2415C171.394 29.239 171.632 29.1999 171.844 29.124C172.059 29.0453 172.244 28.9299 172.399 28.7779C172.554 28.6231 172.673 28.4316 172.756 28.2035L173.73 28.4672C173.631 28.7977 173.462 29.089 173.223 29.3413C172.984 29.5907 172.687 29.7866 172.333 29.9292C171.979 30.0688 171.581 30.1407 171.138 30.1449ZM179.965 24.8464L179.064 25.1105C179.006 24.9604 178.921 24.8149 178.809 24.6739C178.699 24.53 178.551 24.4121 178.362 24.3201C178.174 24.2281 177.933 24.1835 177.641 24.1862C177.24 24.1899 176.907 24.2854 176.642 24.4725C176.379 24.6568 176.249 24.8896 176.252 25.1708C176.254 25.4208 176.347 25.6174 176.53 25.7605C176.713 25.9037 176.999 26.0218 177.386 26.1148L178.36 26.3444C178.946 26.4809 179.384 26.6942 179.674 26.9841C179.964 27.2712 180.111 27.6434 180.115 28.1008C180.118 28.4758 180.014 28.812 179.8 29.1094C179.59 29.4069 179.294 29.6426 178.912 29.8166C178.53 29.9906 178.085 30.08 177.576 30.0848C176.909 30.091 176.355 29.9513 175.915 29.6656C175.475 29.3799 175.194 28.9592 175.072 28.4035L176.024 28.156C176.118 28.5074 176.293 28.77 176.547 28.9438C176.805 29.1175 177.139 29.2025 177.551 29.1986C178.02 29.1942 178.391 29.0913 178.665 28.8899C178.941 28.6856 179.078 28.4429 179.076 28.1616C179.073 27.9344 178.992 27.7448 178.832 27.5928C178.671 27.4381 178.426 27.3239 178.095 27.2503L177.002 27.0048C176.401 26.8683 175.959 26.6523 175.675 26.3566C175.394 26.0581 175.251 25.683 175.247 25.2313C175.243 24.862 175.344 24.5343 175.549 24.2483C175.756 23.9623 176.04 23.7366 176.399 23.5713C176.761 23.406 177.172 23.3212 177.633 23.3169C178.28 23.3109 178.79 23.4482 179.162 23.7288C179.537 24.0094 179.805 24.3819 179.965 24.8464ZM182.379 29.9718C182.169 29.9737 181.988 29.9001 181.836 29.751C181.684 29.6018 181.607 29.4221 181.605 29.2119C181.603 29.0017 181.677 28.8206 181.826 28.6686C181.975 28.5167 182.155 28.4397 182.365 28.4377C182.575 28.4358 182.756 28.5094 182.908 28.6585C183.06 28.8077 183.137 28.9874 183.139 29.1976C183.14 29.3368 183.106 29.465 183.036 29.5821C182.969 29.6992 182.878 29.7938 182.762 29.8659C182.649 29.9352 182.521 29.9704 182.379 29.9718ZM189.539 24.757L188.638 25.0211C188.58 24.8711 188.495 24.7256 188.382 24.5845C188.273 24.4407 188.124 24.3227 187.936 24.2307C187.748 24.1387 187.507 24.0941 187.214 24.0968C186.814 24.1006 186.481 24.196 186.216 24.3832C185.953 24.5674 185.823 24.8002 185.826 25.0814C185.828 25.3314 185.921 25.528 186.104 25.6712C186.287 25.8144 186.572 25.9325 186.96 26.0254L187.934 26.255C188.52 26.3916 188.958 26.6048 189.248 26.8948C189.537 27.1818 189.684 27.5541 189.689 28.0114C189.692 28.3864 189.587 28.7226 189.374 29.0201C189.164 29.3175 188.868 29.5532 188.486 29.7273C188.104 29.9013 187.659 29.9907 187.15 29.9954C186.483 30.0017 185.929 29.8619 185.489 29.5763C185.048 29.2906 184.767 28.8699 184.646 28.3142L185.598 28.0667C185.692 28.4181 185.867 28.6806 186.121 28.8544C186.378 29.0282 186.713 29.1131 187.125 29.1093C187.594 29.1049 187.965 29.002 188.239 28.8006C188.515 28.5963 188.652 28.3535 188.649 28.0723C188.647 27.845 188.566 27.6554 188.405 27.5035C188.245 27.3487 187.999 27.2345 187.669 27.1609L186.576 26.9154C185.975 26.779 185.533 26.5629 185.249 26.2673C184.968 25.9687 184.825 25.5936 184.821 25.142C184.817 24.7727 184.918 24.445 185.123 24.159C185.33 23.8729 185.614 23.6473 185.973 23.482C186.335 23.3167 186.746 23.2319 187.206 23.2276C187.854 23.2215 188.364 23.3588 188.736 23.6394C189.111 23.9201 189.378 24.2926 189.539 24.757ZM191.032 29.8228L191.025 29.0558L194.696 24.2486L194.695 24.1804L191.099 24.214L191.09 23.2766L195.982 23.2309L195.989 24.032L192.42 28.8042L192.421 28.8723L196.154 28.8375L196.162 29.775L191.032 29.8228Z" fill="white"/>
<path d="M4.28794 49.5657L5.63825 40.8254L6.49049 40.8175L5.14018 49.5577L4.28794 49.5657ZM0.293936 47.1824L0.42234 46.3289L6.93342 46.2681L6.80502 47.1216L0.293936 47.1824ZM1.21989 49.5943L2.5702 40.854L3.42244 40.8461L2.07213 49.5863L1.21989 49.5943ZM0.776962 44.1437L0.905366 43.2901L7.41645 43.2294L7.28804 44.0829L0.776962 44.1437ZM11.8579 49.495L13.2082 40.7548L14.0605 40.7468L12.7102 49.4871L11.8579 49.495ZM7.86392 47.1117L7.99232 46.2582L14.5034 46.1975L14.375 47.051L7.86392 47.1117ZM8.78988 49.5237L10.1402 40.7834L10.9924 40.7754L9.64211 49.5157L8.78988 49.5237ZM8.34694 44.073L8.47535 43.2195L14.9864 43.1587L14.858 44.0122L8.34694 44.073ZM25.5932 43.3666C25.4968 43.0805 25.3708 42.8246 25.2153 42.5988C25.0626 42.3701 24.8804 42.1757 24.6687 42.0158C24.4598 41.8558 24.2228 41.7344 23.9578 41.6516C23.6929 41.5689 23.4027 41.529 23.0874 41.5319C22.5703 41.5367 22.1014 41.6747 21.6807 41.9456C21.2599 42.2166 20.9269 42.6132 20.6818 43.1354C20.4366 43.6576 20.3176 44.2965 20.3246 45.0522C20.3317 45.8078 20.4641 46.4444 20.7217 46.9619C20.9794 47.4794 21.3254 47.8697 21.7597 48.1327C22.194 48.3957 22.681 48.5247 23.2208 48.5196C23.7207 48.515 24.1601 48.4043 24.5387 48.1877C24.9202 47.9682 25.2157 47.6615 25.4251 47.2675C25.6373 46.8706 25.7409 46.4051 25.7359 45.871L26.0604 45.9362L23.4355 45.9607L23.4268 45.0232L26.7505 44.9922L26.7592 45.9297C26.766 46.6484 26.6184 47.2748 26.3165 47.8089C26.0175 48.3429 25.6009 48.7588 25.0668 49.0564C24.5354 49.3511 23.9231 49.5017 23.23 49.5082C22.4573 49.5154 21.7767 49.3399 21.1881 48.9818C20.6023 48.6236 20.143 48.1108 19.81 47.4434C19.4799 46.776 19.3106 45.9821 19.302 45.0617C19.2955 44.3714 19.3821 43.7498 19.5616 43.197C19.7439 42.6413 20.0037 42.1673 20.3409 41.7749C20.6782 41.3825 21.0788 41.0805 21.5428 40.8687C22.0067 40.657 22.5185 40.5486 23.0781 40.5433C23.5383 40.539 23.968 40.6046 24.367 40.7401C24.7688 40.8727 25.1271 41.064 25.442 41.3139C25.7596 41.561 26.0252 41.8582 26.2387 42.2057C26.4521 42.5503 26.6006 42.9339 26.6841 43.3564L25.5932 43.3666ZM28.4648 49.34L28.4037 42.7949L29.3753 42.7858L29.3845 43.7744L29.4527 43.7738C29.569 43.4488 29.7824 43.184 30.093 42.9794C30.4036 42.7748 30.7549 42.6706 31.147 42.667C31.2208 42.6663 31.3132 42.6669 31.424 42.6687C31.5348 42.6705 31.6186 42.6739 31.6755 42.6791L31.6851 43.7018C31.6509 43.6936 31.5726 43.6815 31.4503 43.6656C31.3308 43.6468 31.2043 43.6381 31.0708 43.6393C30.7526 43.6423 30.4692 43.7117 30.2204 43.8476C29.9745 43.9805 29.7802 44.1642 29.6375 44.3985C29.4976 44.6299 29.429 44.8933 29.4318 45.1888L29.4704 49.3306L28.4648 49.34ZM34.8569 49.4338C34.4422 49.4377 34.065 49.3631 33.7255 49.21C33.386 49.054 33.1154 48.8279 32.9138 48.5314C32.7121 48.2322 32.6093 47.8695 32.6053 47.4434C32.6018 47.0684 32.6728 46.7637 32.8184 46.5294C32.9639 46.2922 33.1596 46.1057 33.4055 45.9699C33.6514 45.8341 33.9232 45.7321 34.2209 45.664C34.5214 45.593 34.8234 45.5362 35.127 45.4936C35.5242 45.4388 35.8463 45.3974 36.0932 45.3695C36.3429 45.3388 36.5243 45.2902 36.6373 45.2238C36.7532 45.1574 36.8104 45.0432 36.8089 44.8813L36.8085 44.8472C36.8046 44.4268 36.6865 44.1011 36.4542 43.8703C36.2248 43.6395 35.8786 43.5263 35.4155 43.5306C34.9354 43.5351 34.56 43.6437 34.2892 43.8565C34.0185 44.0692 33.8288 44.2954 33.7203 44.5351L32.7626 44.2031C32.9293 43.8038 33.1537 43.492 33.4357 43.2678C33.7205 43.0407 34.0315 42.8815 34.3688 42.7903C34.7088 42.6962 35.0436 42.6477 35.3731 42.6446C35.5834 42.6426 35.8251 42.6659 36.0983 42.7145C36.3743 42.7602 36.6408 42.8586 36.8979 43.0096C37.1579 43.1606 37.3745 43.3901 37.5478 43.6982C37.7212 44.0063 37.8103 44.4202 37.8151 44.9401L37.8554 49.2524L36.8497 49.2618L36.8415 48.3755L36.7903 48.3759C36.7235 48.5186 36.6113 48.6716 36.4537 48.8351C36.2961 48.9985 36.0858 49.1382 35.8226 49.2543C35.5595 49.3704 35.2376 49.4302 34.8569 49.4338ZM35.0019 48.529C35.3996 48.5253 35.7341 48.444 36.0054 48.2852C36.2795 48.1264 36.4849 47.9228 36.6218 47.6743C36.7616 47.4259 36.8302 47.1653 36.8276 46.8926L36.819 45.9721C36.7769 46.0237 36.6836 46.0714 36.5391 46.1154C36.3974 46.1565 36.233 46.1935 36.0458 46.2265C35.8614 46.2567 35.6813 46.2839 35.5054 46.3083C35.3322 46.3298 35.1918 46.3481 35.084 46.3634C34.8229 46.3999 34.5791 46.4576 34.3526 46.5364C34.1289 46.6123 33.9481 46.7262 33.8103 46.8781C33.6753 47.0271 33.609 47.2294 33.6114 47.4851C33.6147 47.8345 33.7464 48.0975 34.0066 48.2741C34.2696 48.4478 34.6014 48.5327 35.0019 48.529ZM39.7138 51.6897L39.6298 42.6901L40.6013 42.681L40.611 43.7208L40.7304 43.7196C40.8032 43.6053 40.9041 43.4595 41.0331 43.2821C41.165 43.1019 41.3538 42.9411 41.5996 42.7996C41.8483 42.6552 42.1857 42.581 42.6118 42.577C43.1629 42.5719 43.65 42.7051 44.073 42.9768C44.496 43.2484 44.8278 43.6359 45.0683 44.1394C45.3088 44.6429 45.4322 45.2383 45.4386 45.9258C45.4451 46.6189 45.3328 47.2209 45.1018 47.7316C44.8707 48.2394 44.5477 48.6345 44.1327 48.9168C43.7177 49.1963 43.2374 49.3385 42.692 49.3436C42.2716 49.3475 41.9343 49.2811 41.6802 49.1442C41.426 49.0046 41.2299 48.8459 41.0919 48.6682C40.9538 48.4876 40.8473 48.3381 40.7724 48.2194L40.6871 48.2202L40.7194 51.6803L39.7138 51.6897ZM40.6489 45.9535C40.6535 46.4477 40.73 46.8831 40.8785 47.2596C41.0268 47.6332 41.2412 47.9253 41.5216 48.1357C41.802 48.3434 42.1438 48.4453 42.5472 48.4415C42.9677 48.4376 43.3175 48.3235 43.5966 48.0993C43.8786 47.8723 44.0889 47.5691 44.2274 47.19C44.3687 46.808 44.4372 46.384 44.4329 45.9181C44.4286 45.4579 44.3537 45.0438 44.2082 44.6759C44.0655 44.305 43.8511 44.013 43.565 43.7997C43.2818 43.5836 42.9271 43.4775 42.5009 43.4815C42.0919 43.4853 41.7491 43.5922 41.4726 43.8022C41.1961 44.0093 40.9886 44.2982 40.85 44.6688C40.7114 45.0366 40.6444 45.4648 40.6489 45.9535ZM47.9719 45.2203L48.0087 49.1576L47.0031 49.167L46.9216 40.4401L47.9272 40.4307L47.9572 43.6351L48.0424 43.6344C48.1926 43.2949 48.4202 43.0243 48.7252 42.8225C49.0329 42.618 49.4439 42.5133 49.9581 42.5085C50.4041 42.5043 50.7955 42.5901 51.1324 42.766C51.4693 42.939 51.7317 43.2079 51.9198 43.5726C52.1107 43.9345 52.2088 44.3966 52.214 44.9591L52.2528 49.118L51.2472 49.1274L51.209 45.0367C51.2042 44.5168 51.0655 44.1161 50.7929 43.8345C50.5232 43.5501 50.1512 43.4101 49.6768 43.4145C49.3472 43.4176 49.0524 43.49 48.7924 43.6316C48.5352 43.7732 48.3325 43.9782 48.1845 44.2467C48.0392 44.5151 47.9684 44.8396 47.9719 45.2203ZM54.0926 49.1009L54.0315 42.5557L55.0371 42.5463L55.0982 49.0915L54.0926 49.1009ZM54.5327 41.4601C54.3367 41.4619 54.167 41.3967 54.0237 41.2645C53.8833 41.1323 53.8122 40.9724 53.8104 40.7849C53.8087 40.5975 53.8768 40.4363 54.0147 40.3015C54.1555 40.1666 54.3239 40.0983 54.5199 40.0965C54.716 40.0946 54.8842 40.1598 55.0246 40.2921C55.1679 40.4242 55.2404 40.5841 55.2422 40.7716C55.2439 40.9591 55.1744 41.1202 55.0336 41.2551C54.8957 41.3899 54.7287 41.4582 54.5327 41.4601ZM59.6004 49.1858C58.9868 49.1915 58.457 49.0516 58.0112 48.766C57.5653 48.4804 57.2207 48.0844 56.9773 47.5781C56.7339 47.0719 56.6092 46.492 56.6031 45.8386C56.5969 45.1739 56.7136 44.5861 56.9531 44.0754C57.1955 43.5617 57.5355 43.1594 57.9732 42.8683C58.4136 42.5744 58.9293 42.4247 59.5202 42.4192C59.9804 42.4149 60.3959 42.4963 60.7668 42.6633C61.1377 42.8303 61.4425 43.0661 61.6811 43.3707C61.9198 43.6753 62.0694 44.0319 62.1301 44.4404L61.1244 44.4498C61.0449 44.1522 60.872 43.8896 60.6057 43.662C60.3422 43.4315 59.9888 43.3183 59.5456 43.3224C59.1536 43.3261 58.8108 43.4316 58.5173 43.6389C58.2266 43.8433 58.0006 44.1309 57.8393 44.5018C57.6807 44.8697 57.6038 45.3009 57.6084 45.7952C57.6131 46.3008 57.6968 46.7404 57.8594 47.1139C58.0248 47.4874 58.2548 47.7764 58.5493 47.9811C58.8467 48.1857 59.1942 48.2862 59.5919 48.2825C59.8533 48.28 60.0901 48.2323 60.3023 48.1395C60.5145 48.0466 60.6937 47.9142 60.8398 47.7424C60.9859 47.5705 61.0891 47.365 61.1494 47.1258L62.155 47.1164C62.1018 47.5033 61.9645 47.8526 61.7429 48.1644C61.5242 48.4732 61.2325 48.7203 60.8677 48.9055C60.5057 49.0879 60.0833 49.1813 59.6004 49.1858ZM68.4907 42.4207C68.4356 41.9894 68.2251 41.6561 67.8592 41.4209C67.4934 41.1857 67.0463 41.0705 66.5179 41.0755C66.1315 41.0791 65.7941 41.1447 65.5055 41.2724C65.2197 41.4001 64.9969 41.574 64.837 41.7943C64.68 42.0145 64.6028 42.2638 64.6053 42.5422C64.6075 42.7752 64.6648 42.9749 64.7771 43.1415C64.8923 43.3052 65.0385 43.4416 65.2156 43.5508C65.3928 43.6571 65.5783 43.7449 65.7721 43.8141C65.9659 43.8804 66.144 43.9342 66.3063 43.9753L67.1948 44.2056C67.4227 44.2632 67.6763 44.3432 67.9556 44.4457C68.2379 44.5482 68.5077 44.6891 68.765 44.8686C69.0252 45.0451 69.2404 45.2732 69.4106 45.5529C69.5809 45.8326 69.6679 46.177 69.6717 46.586C69.6761 47.0576 69.5565 47.4849 69.3129 47.8678C69.0722 48.2508 68.7171 48.5567 68.2476 48.7855C67.7809 49.0143 67.2124 49.1318 66.542 49.1381C65.917 49.1439 65.3749 49.0481 64.9157 48.8507C64.4592 48.6532 64.0987 48.3753 63.834 48.017C63.5721 47.6586 63.4219 47.241 63.3833 46.764L64.4742 46.7539C64.5057 47.0831 64.619 47.3548 64.8142 47.5689C65.0122 47.7801 65.2608 47.9369 65.5601 48.0392C65.8622 48.1387 66.1865 48.1868 66.5331 48.1836C66.9365 48.1798 67.2981 48.1111 67.6179 47.9774C67.9376 47.8409 68.1901 47.6539 68.3754 47.4164C68.5607 47.176 68.6518 46.8967 68.6489 46.5785C68.6462 46.2888 68.563 46.0537 68.3994 45.8734C68.2358 45.6931 68.0213 45.5474 67.7561 45.4363C67.4908 45.3251 67.2044 45.2283 66.8968 45.146L65.8201 44.8492C65.1365 44.6595 64.5941 44.3847 64.193 44.0248C63.7919 43.6649 63.5886 43.191 63.5831 42.6029C63.5786 42.1143 63.7067 41.6869 63.9675 41.3209C64.2311 40.9519 64.5864 40.6645 65.0334 40.4586C65.4831 40.2498 65.9864 40.1429 66.5432 40.1377C67.1057 40.1324 67.6066 40.2286 68.046 40.4262C68.4853 40.621 68.8344 40.8905 69.0933 41.2347C69.3551 41.5788 69.4951 41.971 69.5134 42.4112L68.4907 42.4207ZM71.9656 51.3887C71.7951 51.3903 71.643 51.3775 71.5092 51.3503C71.3755 51.326 71.2829 51.3013 71.2315 51.2762L71.4789 50.3875C71.7238 50.4477 71.9399 50.4684 72.1273 50.4497C72.3146 50.4309 72.48 50.3455 72.6235 50.1936C72.7698 50.0445 72.9025 49.8032 73.0216 49.4697L73.2043 48.9566L70.7225 42.3999L71.8134 42.3897L73.6688 47.5886L73.737 47.5879L75.4951 42.3554L76.5859 42.3452L73.8776 49.8708C73.7558 50.21 73.6036 50.4913 73.421 50.7146C73.2384 50.9407 73.0255 51.1089 72.7822 51.2191C72.5417 51.3293 72.2695 51.3859 71.9656 51.3887ZM82.5631 43.7554L81.6621 44.0195C81.6039 43.8694 81.5187 43.7239 81.4066 43.5829C81.2973 43.4391 81.1485 43.3211 80.9601 43.2291C80.7718 43.1371 80.5313 43.0925 80.2387 43.0952C79.8381 43.099 79.5052 43.1944 79.2399 43.3815C78.9774 43.5658 78.8475 43.7986 78.8501 44.0798C78.8524 44.3298 78.9452 44.5264 79.1283 44.6696C79.3115 44.8128 79.5967 44.9308 79.9839 45.0238L80.9577 45.2534C81.5442 45.39 81.9823 45.6032 82.272 45.8931C82.5616 46.1802 82.7085 46.5524 82.7128 47.0098C82.7163 47.3848 82.6115 47.721 82.3984 48.0185C82.1881 48.3159 81.8919 48.5516 81.51 48.7257C81.1281 48.8997 80.6829 48.9891 80.1744 48.9938C79.5068 49 78.9529 48.8603 78.5127 48.5746C78.0726 48.289 77.7916 47.8683 77.67 47.3126L78.6222 47.065C78.7164 47.4164 78.8908 47.679 79.1452 47.8528C79.4026 48.0265 79.7372 48.1115 80.1491 48.1076C80.6178 48.1033 80.989 48.0004 81.2627 47.7989C81.5392 47.5946 81.6762 47.3519 81.6736 47.0706C81.6714 46.8434 81.5901 46.6538 81.4296 46.5019C81.2691 46.3471 81.0237 46.2329 80.6934 46.1593L79.6002 45.9138C78.9994 45.7774 78.5571 45.5613 78.2731 45.2657C77.9918 44.9671 77.8491 44.592 77.8449 44.1403C77.8415 43.771 77.9421 43.4434 78.1468 43.1574C78.3544 42.8713 78.6378 42.6457 78.9971 42.4804C79.3592 42.315 79.7704 42.2302 80.2306 42.2259C80.8783 42.2199 81.3881 42.3572 81.76 42.6378C82.1348 42.9184 82.4025 43.2909 82.5631 43.7554ZM87.029 42.2477L87.037 43.1L83.6451 43.1316L83.6371 42.2794L87.029 42.2477ZM84.6111 40.702L85.6167 40.6927L85.6749 46.931C85.6776 47.2151 85.7208 47.4278 85.8045 47.569C85.891 47.7074 85.9998 47.8002 86.1309 47.8473C86.2649 47.8915 86.4057 47.9129 86.5534 47.9115C86.6642 47.9105 86.7551 47.9039 86.826 47.8919C86.8969 47.877 86.9536 47.8652 86.9961 47.8562L87.2091 48.7577C87.1411 48.7839 87.0462 48.8104 86.9243 48.8371C86.8024 48.8666 86.6477 48.8823 86.4602 48.884C86.1761 48.8867 85.8972 48.8282 85.6233 48.7086C85.3523 48.5889 85.1262 48.405 84.9449 48.1566C84.7664 47.9083 84.6754 47.5938 84.6718 47.2131L84.6111 40.702ZM91.278 48.8902C90.6473 48.8961 90.102 48.7619 89.642 48.4878C89.1849 48.2108 88.8304 47.8221 88.5786 47.3216C88.3295 46.8182 88.2019 46.2313 88.1956 45.5608C88.1894 44.8904 88.306 44.2984 88.5455 43.7848C88.7879 43.2683 89.1279 42.8645 89.5655 42.5735C90.006 42.2796 90.5217 42.1299 91.1125 42.1244C91.4534 42.1212 91.7906 42.1749 92.124 42.2854C92.4575 42.3959 92.7617 42.5778 93.0368 42.8309C93.3119 43.0812 93.5324 43.4144 93.6982 43.8304C93.864 44.2465 93.9498 44.76 93.9555 45.3707L93.9594 45.7968L88.9142 45.8439L88.9061 44.9746L92.9286 44.9371C92.9252 44.5678 92.8483 44.239 92.6978 43.9506C92.5503 43.6622 92.3407 43.4354 92.0693 43.2703C91.8007 43.1052 91.4846 43.0244 91.121 43.0278C90.7204 43.0315 90.3748 43.1342 90.084 43.3357C89.7961 43.5345 89.5755 43.7922 89.4222 44.109C89.2689 44.4258 89.1939 44.7646 89.1973 45.1253L89.2027 45.7049C89.2073 46.1992 89.2964 46.6174 89.4701 46.9595C89.6466 47.2988 89.889 47.5565 90.1975 47.7326C90.506 47.9059 90.8633 47.9906 91.2695 47.9868C91.5337 47.9843 91.772 47.9452 91.9844 47.8693C92.1996 47.7906 92.3846 47.6753 92.5394 47.5232C92.6942 47.3684 92.8132 47.1769 92.8963 46.9489L93.8704 47.2125C93.7712 47.543 93.602 47.8344 93.3629 48.0866C93.1237 48.336 92.8272 48.532 92.4734 48.6745C92.1196 48.8141 91.7211 48.886 91.278 48.8902ZM95.5166 48.7143L95.4555 42.1691L96.427 42.16L96.4366 43.1827L96.5218 43.1819C96.6549 42.8312 96.8725 42.5579 97.1747 42.3619C97.4768 42.163 97.8409 42.0616 98.2671 42.0576C98.6989 42.0536 99.0591 42.1482 99.3479 42.3416C99.6394 42.532 99.8678 42.8012 100.033 43.1491L100.101 43.1485C100.266 42.8089 100.515 42.5381 100.848 42.3361C101.181 42.1313 101.582 42.0267 102.051 42.0223C102.636 42.0168 103.117 42.1956 103.492 42.5586C103.868 42.9187 104.059 43.4837 104.066 44.2536L104.107 48.6341L103.101 48.6435L103.061 44.263C103.056 43.78 102.921 43.4361 102.655 43.2312C102.388 43.0263 102.076 42.9255 101.719 42.9289C101.258 42.9331 100.903 43.0757 100.653 43.3564C100.403 43.6343 100.279 43.9849 100.283 44.4082L100.323 48.6694L99.3005 48.6789L99.2587 44.1962C99.2552 43.824 99.1317 43.5255 98.8881 43.3005C98.6445 43.0726 98.3323 42.9605 97.9516 42.964C97.6903 42.9664 97.4466 43.0383 97.2207 43.1796C96.9975 43.3209 96.8175 43.5158 96.6806 43.7643C96.5466 44.0098 96.481 44.2931 96.484 44.6141L96.5222 48.7049L95.5166 48.7143ZM110.535 43.4943L109.634 43.7584C109.575 43.6084 109.49 43.4629 109.378 43.3219C109.269 43.178 109.12 43.0601 108.932 42.9681C108.743 42.8761 108.503 42.8314 108.21 42.8342C107.81 42.8379 107.477 42.9334 107.211 43.1205C106.949 43.3048 106.819 43.5375 106.822 43.8188C106.824 44.0688 106.917 44.2653 107.1 44.4085C107.283 44.5517 107.568 44.6698 107.955 44.7628L108.929 44.9923C109.516 45.1289 109.954 45.3422 110.243 45.6321C110.533 45.9192 110.68 46.2914 110.684 46.7488C110.688 47.1237 110.583 47.46 110.37 47.7574C110.159 48.0548 109.863 48.2906 109.481 48.4646C109.1 48.6386 108.654 48.728 108.146 48.7328C107.478 48.739 106.924 48.5993 106.484 48.3136C106.044 48.0279 105.763 47.6072 105.641 47.0515L106.594 46.804C106.688 47.1554 106.862 47.418 107.117 47.5917C107.374 47.7655 107.709 47.8504 108.121 47.8466C108.589 47.8422 108.96 47.7393 109.234 47.5379C109.511 47.3336 109.648 47.0908 109.645 46.8096C109.643 46.5823 109.562 46.3927 109.401 46.2408C109.241 46.0861 108.995 45.9719 108.665 45.8982L107.572 45.6528C106.971 45.5163 106.529 45.3003 106.244 45.0046C105.963 44.7061 105.821 44.331 105.816 43.8793C105.813 43.51 105.914 43.1823 106.118 42.8963C106.326 42.6103 106.609 42.3846 106.969 42.2193C107.331 42.054 107.742 41.9692 108.202 41.9649C108.85 41.9588 109.36 42.0961 109.731 42.3768C110.106 42.6574 110.374 43.0299 110.535 43.4943ZM116.323 48.5883C116.113 48.5902 115.932 48.5166 115.78 48.3675C115.628 48.2183 115.551 48.0386 115.549 47.8284C115.547 47.6182 115.621 47.4371 115.77 47.2851C115.919 47.1332 116.099 47.0562 116.309 47.0542C116.519 47.0523 116.7 47.1259 116.852 47.275C117.004 47.4242 117.081 47.6039 117.083 47.8141C117.085 47.9533 117.05 48.0814 116.98 48.1986C116.913 48.3157 116.822 48.4103 116.706 48.4824C116.593 48.5516 116.466 48.5869 116.323 48.5883ZM116.278 43.7305C116.068 43.7325 115.887 43.6589 115.735 43.5097C115.583 43.3606 115.506 43.1809 115.504 42.9707C115.502 42.7604 115.576 42.5793 115.725 42.4274C115.874 42.2754 116.054 42.1984 116.264 42.1965C116.474 42.1945 116.655 42.2681 116.807 42.4173C116.959 42.5664 117.036 42.7461 117.038 42.9563C117.039 43.0955 117.005 43.2237 116.935 43.3408C116.868 43.4579 116.776 43.5526 116.661 43.6247C116.548 43.6939 116.42 43.7292 116.278 43.7305ZM124.197 48.6C123.782 48.6039 123.405 48.5293 123.065 48.3762C122.726 48.2203 122.455 47.9941 122.254 47.6976C122.052 47.3984 121.949 47.0357 121.945 46.6096C121.942 46.2346 122.013 45.9299 122.158 45.6956C122.304 45.4584 122.499 45.272 122.745 45.1361C122.991 45.0003 123.263 44.8983 123.561 44.8302C123.861 44.7592 124.163 44.7024 124.467 44.6598C124.864 44.605 125.186 44.5636 125.433 44.5357C125.683 44.505 125.864 44.4564 125.977 44.39C126.093 44.3236 126.15 44.2094 126.149 44.0475L126.148 44.0134C126.144 43.593 126.026 43.2674 125.794 43.0366C125.565 42.8057 125.218 42.6925 124.755 42.6968C124.275 42.7013 123.9 42.8099 123.629 43.0227C123.358 43.2354 123.169 43.4616 123.06 43.7013L122.102 43.3693C122.269 42.97 122.494 42.6583 122.776 42.434C123.06 42.2069 123.371 42.0478 123.709 41.9565C124.049 41.8625 124.383 41.8139 124.713 41.8108C124.923 41.8088 125.165 41.8322 125.438 41.8807C125.714 41.9265 125.981 42.0248 126.238 42.1758C126.498 42.3268 126.714 42.5564 126.888 42.8644C127.061 43.1725 127.15 43.5864 127.155 44.1063L127.195 48.4186L126.19 48.428L126.181 47.5417L126.13 47.5421C126.063 47.6848 125.951 47.8379 125.794 48.0013C125.636 48.1647 125.426 48.3044 125.162 48.4205C124.899 48.5366 124.577 48.5965 124.197 48.6ZM124.342 47.6952C124.739 47.6915 125.074 47.6102 125.345 47.4515C125.619 47.2926 125.825 47.089 125.962 46.8406C126.101 46.5921 126.17 46.3315 126.167 46.0588L126.159 45.1384C126.117 45.1899 126.023 45.2376 125.879 45.2816C125.737 45.3227 125.573 45.3597 125.386 45.3927C125.201 45.4229 125.021 45.4501 124.845 45.4745C124.672 45.496 124.532 45.5144 124.424 45.5296C124.163 45.5661 123.919 45.6238 123.692 45.7026C123.469 45.7786 123.288 45.8925 123.15 46.0443C123.015 46.1933 122.949 46.3956 122.951 46.6513C122.955 47.0007 123.086 47.2637 123.346 47.4403C123.609 47.614 123.941 47.6989 124.342 47.6952ZM133.619 43.2789L132.719 43.543C132.66 43.393 132.575 43.2474 132.463 43.1064C132.354 42.9626 132.205 42.8446 132.016 42.7526C131.828 42.6606 131.588 42.616 131.295 42.6187C130.894 42.6225 130.562 42.7179 130.296 42.9051C130.034 43.0893 129.904 43.3221 129.906 43.6033C129.909 43.8533 130.002 44.0499 130.185 44.1931C130.368 44.3363 130.653 44.4543 131.04 44.5473L132.014 44.7769C132.601 44.9135 133.039 45.1267 133.328 45.4166C133.618 45.7037 133.765 46.0759 133.769 46.5333C133.773 46.9083 133.668 47.2445 133.455 47.542C133.244 47.8394 132.948 48.0751 132.566 48.2492C132.184 48.4232 131.739 48.5126 131.231 48.5173C130.563 48.5235 130.009 48.3838 129.569 48.0981C129.129 47.8125 128.848 47.3918 128.726 46.8361L129.679 46.5885C129.773 46.9399 129.947 47.2025 130.202 47.3763C130.459 47.55 130.794 47.635 131.205 47.6311C131.674 47.6268 132.045 47.5239 132.319 47.3224C132.596 47.1182 132.733 46.8754 132.73 46.5941C132.728 46.3669 132.646 46.1773 132.486 46.0254C132.325 45.8706 132.08 45.7564 131.75 45.6828L130.657 45.4373C130.056 45.3009 129.613 45.0848 129.329 44.7892C129.048 44.4906 128.906 44.1155 128.901 43.6638C128.898 43.2945 128.998 42.9669 129.203 42.6809C129.411 42.3948 129.694 42.1692 130.053 42.0039C130.416 41.8386 130.827 41.7537 131.287 41.7494C131.935 41.7434 132.444 41.8807 132.816 42.1613C133.191 42.4419 133.459 42.8145 133.619 43.2789ZM139.889 43.2204L138.988 43.4845C138.93 43.3344 138.844 43.1889 138.732 43.0479C138.623 42.904 138.474 42.7861 138.286 42.6941C138.097 42.6021 137.857 42.5575 137.564 42.5602C137.164 42.564 136.831 42.6594 136.566 42.8465C136.303 43.0308 136.173 43.2636 136.176 43.5448C136.178 43.7948 136.271 43.9914 136.454 44.1346C136.637 44.2778 136.922 44.3958 137.31 44.4888L138.283 44.7184C138.87 44.855 139.308 45.0682 139.598 45.3581C139.887 45.6452 140.034 46.0174 140.038 46.4748C140.042 46.8498 139.937 47.186 139.724 47.4835C139.514 47.7809 139.218 48.0166 138.836 48.1906C138.454 48.3647 138.009 48.4541 137.5 48.4588C136.832 48.465 136.279 48.3253 135.838 48.0396C135.398 47.754 135.117 47.3333 134.996 46.7776L135.948 46.53C136.042 46.8814 136.216 47.144 136.471 47.3178C136.728 47.4915 137.063 47.5765 137.475 47.5726C137.943 47.5683 138.315 47.4654 138.588 47.2639C138.865 47.0596 139.002 46.8169 138.999 46.5356C138.997 46.3084 138.916 46.1188 138.755 45.9669C138.595 45.8121 138.349 45.6979 138.019 45.6243L136.926 45.3788C136.325 45.2424 135.883 45.0263 135.599 44.7306C135.317 44.4321 135.175 44.057 135.171 43.6053C135.167 43.236 135.268 42.9084 135.472 42.6224C135.68 42.3363 135.963 42.1107 136.323 41.9454C136.685 41.78 137.096 41.6952 137.556 41.6909C138.204 41.6849 138.714 41.8222 139.086 42.1028C139.46 42.3834 139.728 42.7559 139.889 43.2204ZM144.315 48.3952C143.684 48.4011 143.139 48.267 142.679 47.9928C142.222 47.7158 141.867 47.3271 141.615 46.8266C141.366 46.3232 141.239 45.7363 141.232 45.0659C141.226 44.3954 141.343 43.8034 141.582 43.2898C141.825 42.7733 142.165 42.3696 142.602 42.0785C143.043 41.7846 143.558 41.6349 144.149 41.6294C144.49 41.6262 144.827 41.6799 145.161 41.7904C145.494 41.901 145.798 42.0828 146.074 42.3359C146.349 42.5862 146.569 42.9194 146.735 43.3355C146.901 43.7515 146.987 44.265 146.992 44.8757L146.996 45.3019L141.951 45.3489L141.943 44.4797L145.965 44.4421C145.962 44.0728 145.885 43.744 145.735 43.4556C145.587 43.1672 145.377 42.9404 145.106 42.7754C144.837 42.6102 144.521 42.5294 144.158 42.5328C143.757 42.5365 143.412 42.6392 143.121 42.8408C142.833 43.0395 142.612 43.2972 142.459 43.614C142.306 43.9308 142.231 44.2696 142.234 44.6304L142.239 45.2099C142.244 45.7042 142.333 46.1224 142.507 46.4645C142.683 46.8038 142.926 47.0615 143.234 47.2376C143.543 47.4109 143.9 47.4956 144.306 47.4918C144.57 47.4894 144.809 47.4502 145.021 47.3744C145.236 47.2956 145.421 47.1803 145.576 47.0283C145.731 46.8734 145.85 46.6819 145.933 46.4539L146.907 46.7175C146.808 47.048 146.639 47.3394 146.4 47.5916C146.16 47.841 145.864 48.037 145.51 48.1795C145.156 48.3192 144.758 48.3911 144.315 48.3952ZM151.339 41.6475L151.347 42.4998L147.955 42.5314L147.947 41.6792L151.339 41.6475ZM148.921 40.1019L149.926 40.0925L149.985 46.3308C149.987 46.6149 150.03 46.8276 150.114 46.9689C150.201 47.1073 150.31 47.2 150.441 47.2471C150.575 47.2913 150.715 47.3127 150.863 47.3113C150.974 47.3103 151.065 47.3038 151.136 47.2917C151.207 47.2769 151.263 47.265 151.306 47.256L151.519 48.1575C151.451 48.1837 151.356 48.2102 151.234 48.2369C151.112 48.2664 150.957 48.2821 150.77 48.2838C150.486 48.2865 150.207 48.228 149.933 48.1084C149.662 47.9887 149.436 47.8048 149.255 47.5565C149.076 47.3081 148.985 46.9936 148.982 46.6129L148.921 40.1019ZM157.384 43.0571L156.483 43.3212C156.425 43.1712 156.34 43.0256 156.228 42.8846C156.118 42.7408 155.969 42.6228 155.781 42.5308C155.593 42.4388 155.352 42.3942 155.06 42.3969C154.659 42.4007 154.326 42.4961 154.061 42.6833C153.798 42.8675 153.668 43.1003 153.671 43.3815C153.673 43.6315 153.766 43.8281 153.949 43.9713C154.132 44.1145 154.418 44.2326 154.805 44.3255L155.779 44.5551C156.365 44.6917 156.803 44.9049 157.093 45.1948C157.383 45.4819 157.53 45.8542 157.534 46.3115C157.537 46.6865 157.432 47.0227 157.219 47.3202C157.009 47.6176 156.713 47.8533 156.331 48.0274C155.949 48.2014 155.504 48.2908 154.995 48.2955C154.328 48.3018 153.774 48.162 153.334 47.8764C152.894 47.5907 152.613 47.17 152.491 46.6143L153.443 46.3667C153.537 46.7182 153.712 46.9807 153.966 47.1545C154.224 47.3283 154.558 47.4132 154.97 47.4094C155.439 47.405 155.81 47.3021 156.084 47.1007C156.36 46.8964 156.497 46.6536 156.495 46.3724C156.492 46.1451 156.411 45.9555 156.251 45.8036C156.09 45.6488 155.845 45.5346 155.514 45.461L154.421 45.2155C153.82 45.0791 153.378 44.863 153.094 44.5674C152.813 44.2688 152.67 43.8937 152.666 43.4421C152.662 43.0728 152.763 42.7451 152.968 42.4591C153.175 42.173 153.459 41.9474 153.818 41.7821C154.18 41.6168 154.591 41.532 155.052 41.5277C155.699 41.5216 156.209 41.6589 156.581 41.9395C156.956 42.2201 157.223 42.5927 157.384 43.0571ZM162.439 48.0897L162.378 41.5445L163.35 41.5354L163.359 42.524L163.427 42.5234C163.544 42.1984 163.757 41.9337 164.068 41.729C164.378 41.5244 164.73 41.4203 165.122 41.4166C165.195 41.4159 165.288 41.4165 165.399 41.4183C165.509 41.4201 165.593 41.4236 165.65 41.4287L165.66 42.4514C165.626 42.4432 165.547 42.4312 165.425 42.4153C165.305 42.3965 165.179 42.3877 165.045 42.389C164.727 42.3919 164.444 42.4614 164.195 42.5972C163.949 42.7302 163.755 42.9138 163.612 43.1481C163.472 43.3796 163.404 43.643 163.406 43.9384L163.445 48.0803L162.439 48.0897ZM169.45 48.1606C168.82 48.1665 168.274 48.0324 167.814 47.7583C167.357 47.4813 167.003 47.0925 166.751 46.592C166.502 46.0886 166.374 45.5017 166.368 44.8313C166.362 44.1609 166.478 43.5688 166.718 43.0552C166.96 42.5387 167.3 42.135 167.738 41.8439C168.178 41.55 168.694 41.4003 169.285 41.3948C169.626 41.3916 169.963 41.4453 170.296 41.5558C170.63 41.6664 170.934 41.8482 171.209 42.1013C171.484 42.3516 171.705 42.6848 171.871 43.1009C172.036 43.517 172.122 44.0304 172.128 44.6412L172.132 45.0673L167.087 45.1144L167.078 44.2451L171.101 44.2075C171.098 43.8382 171.021 43.5094 170.87 43.221C170.723 42.9326 170.513 42.7059 170.242 42.5408C169.973 42.3757 169.657 42.2948 169.293 42.2982C168.893 42.3019 168.547 42.4046 168.256 42.6062C167.968 42.8049 167.748 43.0626 167.595 43.3794C167.441 43.6962 167.366 44.035 167.37 44.3958L167.375 44.9753C167.38 45.4696 167.469 45.8878 167.642 46.23C167.819 46.5692 168.061 46.8269 168.37 47.003C168.678 47.1763 169.036 47.261 169.442 47.2573C169.706 47.2548 169.944 47.2156 170.157 47.1398C170.372 47.0611 170.557 46.9457 170.712 46.7937C170.867 46.6388 170.986 46.4474 171.069 46.2193L172.043 46.4829C171.944 46.8134 171.774 47.1048 171.535 47.357C171.296 47.6064 171 47.8024 170.646 47.9449C170.292 48.0846 169.894 48.1565 169.45 48.1606ZM174.613 39.2484L174.695 47.9753L173.689 47.9847L173.607 39.2578L174.613 39.2484ZM179.197 48.0697C178.606 48.0752 178.086 47.9394 177.637 47.6623C177.192 47.3852 176.841 46.995 176.587 46.4917C176.335 45.9883 176.206 45.3986 176.199 44.7225C176.193 44.0407 176.311 43.4444 176.554 42.9336C176.799 42.4228 177.142 42.0247 177.582 41.7393C178.026 41.4539 178.543 41.3084 179.134 41.3029C179.724 41.2974 180.243 41.4332 180.689 41.7103C181.137 41.9874 181.487 42.379 181.739 42.8852C181.994 43.3914 182.125 43.9853 182.131 44.6671C182.137 45.3432 182.018 45.9353 181.773 46.4433C181.53 46.9512 181.187 47.3479 180.744 47.6333C180.303 47.9187 179.788 48.0641 179.197 48.0697ZM179.188 47.1663C179.637 47.1621 180.005 47.0436 180.293 46.8108C180.581 46.578 180.792 46.2734 180.928 45.8972C181.064 45.5209 181.129 45.114 181.125 44.6765C181.121 44.239 181.048 43.832 180.905 43.4555C180.762 43.079 180.545 42.7756 180.253 42.5454C179.961 42.3151 179.591 42.2021 179.142 42.2063C178.693 42.2105 178.325 42.3304 178.037 42.566C177.75 42.8017 177.538 43.1091 177.402 43.4882C177.267 43.8673 177.201 44.2756 177.205 44.7131C177.209 45.1506 177.283 45.5562 177.425 45.9298C177.568 46.3035 177.785 46.6041 178.077 46.8315C178.369 47.0589 178.739 47.1705 179.188 47.1663ZM185.624 48.0267C185.209 48.0306 184.832 47.956 184.492 47.8029C184.153 47.647 183.882 47.4208 183.681 47.1244C183.479 46.8251 183.376 46.4624 183.372 46.0363C183.369 45.6613 183.44 45.3566 183.585 45.1223C183.731 44.8852 183.926 44.6987 184.172 44.5628C184.418 44.427 184.69 44.325 184.988 44.2569C185.288 44.1859 185.59 44.1291 185.894 44.0865C186.291 44.0317 186.613 43.9903 186.86 43.9625C187.11 43.9317 187.291 43.8831 187.404 43.8167C187.52 43.7503 187.577 43.6361 187.576 43.4742L187.575 43.4401C187.571 43.0197 187.453 42.6941 187.221 42.4633C186.992 42.2325 186.645 42.1192 186.182 42.1235C185.702 42.128 185.327 42.2366 185.056 42.4494C184.785 42.6622 184.596 42.8884 184.487 43.128L183.529 42.796C183.696 42.3967 183.921 42.085 184.203 41.8607C184.487 41.6336 184.798 41.4745 185.136 41.3833C185.476 41.2892 185.81 41.2406 186.14 41.2375C186.35 41.2356 186.592 41.2589 186.865 41.3075C187.141 41.3532 187.408 41.4516 187.665 41.6026C187.925 41.7536 188.141 41.9831 188.315 42.2911C188.488 42.5992 188.577 43.0131 188.582 43.533L188.622 47.8453L187.617 47.8547L187.608 46.9684L187.557 46.9689C187.49 47.1115 187.378 47.2646 187.221 47.428C187.063 47.5914 186.853 47.7312 186.589 47.8472C186.326 47.9633 186.004 48.0232 185.624 48.0267ZM185.769 47.1219C186.166 47.1182 186.501 47.037 186.772 46.8782C187.046 46.7194 187.252 46.5157 187.389 46.2673C187.528 46.0188 187.597 45.7582 187.594 45.4855L187.586 44.5651C187.544 44.6166 187.45 44.6644 187.306 44.7083C187.164 44.7494 187 44.7865 186.813 44.8195C186.628 44.8496 186.448 44.8768 186.272 44.9012C186.099 44.9227 185.959 44.9411 185.851 44.9563C185.59 44.9928 185.346 45.0505 185.119 45.1293C184.896 45.2053 184.715 45.3192 184.577 45.471C184.442 45.62 184.376 45.8224 184.378 46.078C184.382 46.4275 184.513 46.6904 184.773 46.867C185.036 47.0407 185.368 47.1257 185.769 47.1219ZM192.93 47.9415C192.385 47.9466 191.902 47.8133 191.482 47.5416C191.062 47.2671 190.732 46.8782 190.491 46.3747C190.251 45.8684 190.127 45.2687 190.121 44.5755C190.114 43.888 190.226 43.2904 190.458 42.7825C190.689 42.2747 191.013 41.881 191.431 41.6015C191.849 41.322 192.333 41.1797 192.884 41.1746C193.311 41.1706 193.648 41.2385 193.896 41.3782C194.148 41.5151 194.339 41.6724 194.472 41.8501C194.607 42.025 194.712 42.1689 194.787 42.2819L194.872 42.2811L194.842 39.0596L195.848 39.0502L195.929 47.7771L194.958 47.7862L194.948 46.7806L194.829 46.7817C194.756 46.9017 194.652 47.0532 194.518 47.2363C194.383 47.4165 194.19 47.5789 193.938 47.7233C193.687 47.8648 193.351 47.9376 192.93 47.9415ZM193.058 47.0368C193.462 47.0331 193.802 46.9248 194.078 46.712C194.355 46.4963 194.563 46.2003 194.705 45.824C194.846 45.4448 194.915 45.0081 194.91 44.5138C194.905 44.0252 194.83 43.5983 194.685 43.2331C194.539 42.8652 194.327 42.5802 194.046 42.3783C193.766 42.1735 193.421 42.073 193.012 42.0768C192.586 42.0808 192.232 42.1935 191.95 42.4149C191.671 42.6334 191.462 42.9294 191.323 43.3029C191.187 43.6735 191.122 44.0889 191.126 44.5491C191.13 45.015 191.205 45.4376 191.351 45.8169C191.499 46.1934 191.715 46.4925 191.999 46.7143C192.285 46.9333 192.638 47.0408 193.058 47.0368ZM200.656 47.8694C200.025 47.8753 199.48 47.7411 199.02 47.467C198.563 47.19 198.208 46.8013 197.957 46.3008C197.708 45.7974 197.58 45.2105 197.574 44.5401C197.567 43.8696 197.684 43.2776 197.924 42.764C198.166 42.2475 198.506 41.8437 198.944 41.5527C199.384 41.2588 199.9 41.1091 200.491 41.1036C200.831 41.1004 201.169 41.1541 201.502 41.2646C201.836 41.3751 202.14 41.557 202.415 41.8101C202.69 42.0604 202.91 42.3936 203.076 42.8096C203.242 43.2257 203.328 43.7392 203.334 44.3499L203.337 44.776L198.292 44.8231L198.284 43.9539L202.307 43.9163C202.303 43.547 202.226 43.2182 202.076 42.9298C201.928 42.6414 201.719 42.4146 201.447 42.2495C201.179 42.0844 200.863 42.0036 200.499 42.007C200.098 42.0107 199.753 42.1134 199.462 42.3149C199.174 42.5137 198.954 42.7714 198.8 43.0882C198.647 43.405 198.572 43.7438 198.575 44.1045L198.581 44.6841C198.585 45.1784 198.674 45.5966 198.848 45.9387C199.025 46.278 199.267 46.5357 199.576 46.7118C199.884 46.8851 200.241 46.9698 200.648 46.966C200.912 46.9636 201.15 46.9244 201.362 46.8485C201.578 46.7698 201.763 46.6545 201.917 46.5024C202.072 46.3476 202.191 46.1561 202.274 45.9281L203.248 46.1917C203.149 46.5222 202.98 46.8136 202.741 47.0658C202.502 47.3152 202.205 47.5112 201.851 47.6537C201.498 47.7933 201.099 47.8652 200.656 47.8694ZM207.367 47.8068C206.822 47.8118 206.339 47.6786 205.919 47.4069C205.499 47.1324 205.168 46.7434 204.928 46.24C204.687 45.7337 204.564 45.1339 204.557 44.4408C204.551 43.7533 204.663 43.1556 204.894 42.6478C205.125 42.1399 205.45 41.7463 205.868 41.4668C206.286 41.1873 206.77 41.045 207.321 41.0398C207.747 41.0359 208.085 41.1037 208.333 41.2435C208.584 41.3803 208.776 41.5376 208.909 41.7154C209.044 41.8903 209.149 42.0342 209.224 42.1471L209.309 42.1463L209.279 38.9249L210.285 38.9155L210.366 47.6424L209.394 47.6515L209.385 46.6458L209.266 46.6469C209.193 46.7669 209.089 46.9185 208.955 47.1016C208.82 47.2818 208.627 47.4441 208.375 47.5885C208.124 47.7301 207.788 47.8028 207.367 47.8068ZM207.495 46.9021C207.899 46.8983 208.239 46.7901 208.515 46.5772C208.791 46.3616 209 46.0656 209.142 45.6892C209.283 45.3101 209.351 44.8733 209.347 44.379C209.342 43.8904 209.267 43.4635 209.122 43.0984C208.976 42.7304 208.763 42.4455 208.483 42.2435C208.203 42.0388 207.858 41.9383 207.449 41.9421C207.023 41.9461 206.669 42.0588 206.387 42.2801C206.108 42.4987 205.899 42.7947 205.76 43.1681C205.624 43.5387 205.559 43.9541 205.563 44.4144C205.567 44.8802 205.642 45.3029 205.788 45.6822C205.936 46.0587 206.152 46.3578 206.435 46.5796C206.722 46.7985 207.075 46.906 207.495 46.9021ZM218.722 38.4276L216.007 48.9023L215.087 48.9109L217.802 38.4362L218.722 38.4276ZM222.999 38.3877L220.284 48.8624L219.364 48.871L222.079 38.3963L222.999 38.3877ZM227.276 38.3478L224.562 48.8225L223.641 48.8311L226.356 38.3564L227.276 38.3478ZM231.554 38.3079L228.839 48.7826L227.918 48.7911L230.633 38.3165L231.554 38.3079Z" fill="white"/>
</svg>
