<svg width="253" height="81" viewBox="0 0 253 81" fill="none" xmlns="http://www.w3.org/2000/svg">
<mask id="path-1-inside-1_4_161" fill="white">
<path d="M253 40.5C253 47.1603 247.87 53.7177 238.063 59.5916C228.257 65.4654 214.077 70.4743 196.78 74.1745C179.483 77.8748 159.602 80.1522 138.899 80.805C118.196 81.4578 97.3101 80.4659 78.0905 77.9171C58.871 75.3683 41.9115 71.3414 28.7142 66.1929C15.5169 61.0445 6.48914 54.9334 2.43066 48.4012C-1.62781 41.8689 -0.59176 35.1169 5.44705 28.7435C11.4859 22.37 22.341 16.5717 37.051 11.8622L126.5 40.5H253Z"/>
</mask>
<path d="M253 40.5C253 47.1603 247.87 53.7177 238.063 59.5916C228.257 65.4654 214.077 70.4743 196.78 74.1745C179.483 77.8748 159.602 80.1522 138.899 80.805C118.196 81.4578 97.3101 80.4659 78.0905 77.9171C58.871 75.3683 41.9115 71.3414 28.7142 66.1929C15.5169 61.0445 6.48914 54.9334 2.43066 48.4012C-1.62781 41.8689 -0.59176 35.1169 5.44705 28.7435C11.4859 22.37 22.341 16.5717 37.051 11.8622L126.5 40.5H253Z" stroke="#D9D9D9" stroke-width="2" mask="url(#path-1-inside-1_4_161)"/>
<circle cx="33.5" cy="65.5" r="2.5" fill="#D9D9D9"/>
<circle cx="216.5" cy="65.5" r="2.5" fill="#D9D9D9"/>
</svg>
