<svg width="1012" height="738" viewBox="0 0 1012 738" fill="none" xmlns="http://www.w3.org/2000/svg">
<path d="M509.493 454.487C509.382 454.375 509.327 454.24 509.327 454.08C509.327 453.92 509.384 453.785 509.495 453.674C509.607 453.562 509.743 453.507 509.903 453.508C510.062 453.508 510.198 453.564 510.309 453.676C510.42 453.788 510.476 453.924 510.475 454.083C510.475 454.243 510.418 454.378 510.307 454.49C510.233 454.563 510.146 454.612 510.046 454.636C509.948 454.661 509.85 454.661 509.75 454.637C509.654 454.613 509.568 454.563 509.493 454.487ZM512.166 457.23C511.901 456.964 511.716 456.672 511.61 456.354C511.504 456.036 511.48 455.721 511.536 455.409C511.593 455.097 511.733 454.818 511.957 454.572L512.498 455.116C512.309 455.346 512.229 455.614 512.26 455.92C512.294 456.226 512.429 456.497 512.665 456.734C512.854 456.925 513.067 457.05 513.303 457.109C513.541 457.17 513.78 457.165 514.019 457.095C514.262 457.025 514.483 456.892 514.681 456.695C514.883 456.494 515.019 456.27 515.089 456.023C515.162 455.776 515.168 455.53 515.107 455.284C515.046 455.038 514.918 454.815 514.723 454.616C514.583 454.472 514.416 454.348 514.222 454.244C514.03 454.138 513.851 454.071 513.685 454.043L513.226 453.455L515.79 451.464L518.187 453.876L517.689 454.372L515.76 452.431L514.228 453.629L514.255 453.656C514.426 453.677 514.607 453.734 514.8 453.828C514.992 453.921 515.166 454.046 515.321 454.202C515.603 454.486 515.787 454.807 515.871 455.164C515.959 455.521 515.949 455.88 515.841 456.24C515.735 456.601 515.531 456.931 515.23 457.23C514.934 457.524 514.604 457.721 514.239 457.819C513.877 457.918 513.514 457.918 513.149 457.821C512.787 457.722 512.459 457.525 512.166 457.23ZM514.648 459.6L515.056 459.194L518.256 459.059C518.631 459.043 518.949 459.022 519.21 458.994C519.472 458.964 519.695 458.914 519.879 458.842C520.066 458.77 520.231 458.664 520.373 458.522C520.536 458.36 520.638 458.18 520.68 457.983C520.722 457.788 520.709 457.59 520.641 457.391C520.572 457.192 520.454 457.009 520.288 456.841C520.11 456.663 519.919 456.544 519.712 456.484C519.509 456.425 519.306 456.424 519.102 456.483C518.9 456.542 518.711 456.66 518.534 456.836L518.002 456.301C518.274 456.03 518.575 455.856 518.905 455.777C519.236 455.698 519.565 455.709 519.895 455.811C520.226 455.915 520.526 456.102 520.795 456.372C521.066 456.644 521.248 456.942 521.342 457.267C521.436 457.591 521.445 457.909 521.368 458.223C521.292 458.536 521.135 458.811 520.896 459.048C520.725 459.218 520.527 459.353 520.302 459.453C520.081 459.554 519.795 459.627 519.445 459.675C519.099 459.722 518.65 459.754 518.1 459.772L515.949 459.838L515.912 459.874L518.058 462.032L517.559 462.528L514.648 459.6ZM519.985 465.096C519.688 464.796 519.474 464.479 519.344 464.142C519.216 463.807 519.174 463.48 519.22 463.161C519.27 462.842 519.41 462.555 519.641 462.301L520.209 462.872C520.071 463.033 519.993 463.213 519.975 463.412C519.957 463.609 519.992 463.81 520.079 464.016C520.166 464.221 520.298 464.412 520.475 464.591C520.673 464.79 520.884 464.932 521.107 465.017C521.329 465.102 521.546 465.127 521.757 465.092C521.968 465.056 522.155 464.957 522.319 464.795C522.489 464.625 522.598 464.433 522.643 464.22C522.691 464.004 522.67 463.778 522.582 463.541C522.494 463.305 522.333 463.068 522.098 462.833L521.729 462.461L522.227 461.965L522.597 462.337C522.78 462.521 522.974 462.65 523.179 462.723C523.385 462.797 523.588 462.814 523.787 462.772C523.987 462.732 524.169 462.631 524.332 462.469C524.489 462.312 524.592 462.142 524.639 461.957C524.686 461.771 524.679 461.583 524.618 461.391C524.558 461.201 524.443 461.021 524.274 460.85C524.114 460.69 523.935 460.568 523.735 460.485C523.537 460.401 523.339 460.37 523.14 460.391C522.943 460.41 522.764 460.492 522.602 460.638L522.061 460.094C522.313 459.861 522.599 459.722 522.919 459.678C523.24 459.632 523.562 459.669 523.886 459.789C524.211 459.911 524.506 460.105 524.772 460.373C525.058 460.66 525.244 460.964 525.332 461.285C525.422 461.605 525.427 461.914 525.348 462.212C525.268 462.51 525.119 462.768 524.9 462.986C524.639 463.245 524.348 463.398 524.026 463.444C523.707 463.491 523.395 463.433 523.091 463.27L523.055 463.306C523.298 463.647 523.401 464 523.364 464.364C523.328 464.727 523.163 465.055 522.868 465.348C522.616 465.599 522.321 465.755 521.983 465.818C521.649 465.88 521.307 465.85 520.958 465.729C520.608 465.607 520.284 465.396 519.985 465.096Z" fill="white"/>
<path d="M741.754 304.219C741.698 304.072 741.703 303.925 741.768 303.779C741.834 303.634 741.94 303.533 742.087 303.477C742.235 303.421 742.381 303.425 742.527 303.491C742.673 303.556 742.774 303.662 742.83 303.81C742.886 303.957 742.881 304.104 742.816 304.249C742.75 304.395 742.644 304.496 742.497 304.552C742.399 304.589 742.3 304.598 742.199 304.58C742.1 304.563 742.009 304.523 741.928 304.46C741.85 304.399 741.792 304.319 741.754 304.219ZM743.081 307.812C742.947 307.461 742.897 307.119 742.929 306.785C742.962 306.451 743.067 306.154 743.246 305.892C743.425 305.63 743.666 305.432 743.971 305.298L744.243 306.015C743.977 306.148 743.796 306.361 743.7 306.653C743.606 306.946 743.619 307.249 743.738 307.562C743.833 307.813 743.977 308.013 744.169 308.164C744.361 308.316 744.581 308.409 744.829 308.443C745.079 308.477 745.335 308.445 745.596 308.346C745.862 308.244 746.078 308.095 746.242 307.898C746.409 307.702 746.515 307.479 746.559 307.23C746.603 306.981 746.577 306.725 746.48 306.463C746.41 306.276 746.308 306.094 746.174 305.92C746.041 305.745 745.904 305.611 745.764 305.518L745.584 304.794L748.736 304.018L749.946 307.196L749.288 307.446L748.315 304.889L746.429 305.361L746.443 305.397C746.59 305.484 746.733 305.61 746.871 305.774C747.008 305.939 747.116 306.123 747.194 306.328C747.337 306.703 747.374 307.07 747.306 307.431C747.241 307.793 747.086 308.117 746.841 308.402C746.597 308.688 746.277 308.907 745.88 309.058C745.49 309.207 745.108 309.252 744.735 309.193C744.364 309.136 744.032 308.988 743.739 308.751C743.448 308.513 743.228 308.2 743.081 307.812ZM744.384 310.986L744.922 310.781L747.901 311.959C748.25 312.098 748.549 312.207 748.799 312.288C749.05 312.367 749.275 312.412 749.472 312.421C749.672 312.432 749.866 312.401 750.053 312.33C750.268 312.248 750.434 312.126 750.552 311.962C750.671 311.801 750.739 311.615 750.758 311.405C750.776 311.196 750.743 310.98 750.659 310.759C750.569 310.524 750.442 310.338 750.278 310.199C750.117 310.063 749.931 309.979 749.721 309.95C749.513 309.922 749.292 309.953 749.059 310.041L748.79 309.336C749.149 309.2 749.495 309.163 749.829 309.225C750.162 309.287 750.459 309.432 750.719 309.659C750.979 309.888 751.177 310.181 751.313 310.537C751.449 310.896 751.495 311.242 751.449 311.577C751.403 311.911 751.281 312.206 751.084 312.461C750.887 312.716 750.631 312.903 750.317 313.023C750.092 313.109 749.856 313.152 749.61 313.152C749.366 313.153 749.075 313.105 748.737 313.005C748.401 312.908 747.978 312.755 747.468 312.548L745.476 311.733L745.428 311.751L746.51 314.595L745.853 314.845L744.384 310.986ZM747.473 315.326L748.082 315.094L753.359 316.164L753.527 316.606L752.583 316.965L752.469 316.667L748.482 315.859L748.434 315.877L749.812 319.497L749.155 319.747L747.473 315.326ZM747.314 318.683L748.754 318.135L749.037 318.027L753.431 316.355L753.7 317.06L747.582 319.388L747.314 318.683ZM749.03 323.443C748.879 323.049 748.813 322.671 748.831 322.311C748.85 321.953 748.945 321.637 749.117 321.364C749.292 321.093 749.537 320.888 749.851 320.75L750.138 321.503C749.947 321.594 749.802 321.726 749.704 321.9C749.608 322.074 749.558 322.272 749.554 322.494C749.55 322.717 749.593 322.946 749.682 323.181C749.782 323.444 749.917 323.659 750.086 323.827C750.254 323.996 750.443 324.106 750.65 324.16C750.857 324.213 751.068 324.199 751.283 324.117C751.508 324.031 751.685 323.9 751.814 323.724C751.945 323.546 752.018 323.331 752.034 323.079C752.05 322.827 751.998 322.546 751.88 322.235L751.694 321.745L752.351 321.495L752.537 321.985C752.63 322.228 752.755 322.424 752.912 322.574C753.07 322.726 753.248 322.823 753.447 322.866C753.647 322.911 753.854 322.893 754.069 322.811C754.276 322.732 754.439 322.618 754.557 322.468C754.676 322.318 754.746 322.143 754.768 321.943C754.791 321.745 754.759 321.534 754.674 321.308C754.593 321.097 754.479 320.913 754.33 320.755C754.184 320.599 754.015 320.49 753.825 320.428C753.637 320.365 753.44 320.367 753.233 320.434L752.96 319.717C753.285 319.607 753.603 319.597 753.913 319.686C754.225 319.775 754.504 319.94 754.751 320.181C754.998 320.425 755.189 320.722 755.323 321.075C755.467 321.453 755.514 321.807 755.464 322.136C755.416 322.465 755.295 322.749 755.101 322.989C754.907 323.229 754.666 323.404 754.378 323.514C754.033 323.645 753.705 323.666 753.393 323.577C753.082 323.491 752.821 323.311 752.61 323.038L752.562 323.056C752.645 323.467 752.596 323.831 752.413 324.149C752.233 324.466 751.949 324.698 751.561 324.846C751.228 324.973 750.895 324.996 750.561 324.915C750.23 324.836 749.93 324.67 749.66 324.417C749.391 324.164 749.18 323.839 749.03 323.443Z" fill="white"/>
<path d="M226.509 421.19C226.351 421.19 226.216 421.134 226.103 421.021C225.99 420.908 225.933 420.772 225.933 420.615C225.933 420.457 225.99 420.322 226.103 420.209C226.216 420.096 226.351 420.039 226.509 420.039C226.666 420.039 226.802 420.096 226.915 420.209C227.027 420.322 227.084 420.457 227.084 420.615C227.084 420.719 227.057 420.815 227.004 420.902C226.953 420.99 226.884 421.06 226.796 421.113C226.711 421.164 226.615 421.19 226.509 421.19ZM230.338 421.228C229.963 421.228 229.626 421.154 229.325 421.005C229.025 420.855 228.784 420.651 228.603 420.391C228.422 420.131 228.323 419.835 228.306 419.502H229.073C229.102 419.799 229.237 420.044 229.475 420.238C229.716 420.429 230.004 420.525 230.338 420.525C230.607 420.525 230.845 420.462 231.054 420.337C231.265 420.211 231.43 420.038 231.55 419.819C231.671 419.597 231.732 419.347 231.732 419.068C231.732 418.782 231.669 418.528 231.543 418.304C231.42 418.078 231.249 417.9 231.032 417.77C230.814 417.64 230.566 417.574 230.287 417.572C230.087 417.57 229.881 417.601 229.67 417.665C229.459 417.727 229.286 417.806 229.149 417.904L228.408 417.815L228.804 414.593H232.205V415.297H229.469L229.239 417.227H229.277C229.411 417.12 229.58 417.032 229.782 416.962C229.985 416.891 230.196 416.856 230.415 416.856C230.816 416.856 231.172 416.952 231.486 417.144C231.801 417.333 232.048 417.593 232.227 417.924C232.408 418.254 232.499 418.631 232.499 419.055C232.499 419.473 232.405 419.846 232.218 420.174C232.032 420.5 231.776 420.757 231.45 420.947C231.124 421.135 230.754 421.228 230.338 421.228ZM233.768 421.139V420.564L235.929 418.199C236.182 417.922 236.391 417.681 236.555 417.476C236.719 417.27 236.841 417.076 236.92 416.895C237.001 416.711 237.041 416.52 237.041 416.319C237.041 416.089 236.986 415.89 236.875 415.722C236.766 415.553 236.617 415.423 236.427 415.332C236.238 415.24 236.025 415.194 235.788 415.194C235.537 415.194 235.317 415.246 235.13 415.351C234.945 415.453 234.801 415.597 234.698 415.782C234.598 415.968 234.548 416.185 234.548 416.434H233.794C233.794 416.051 233.882 415.714 234.059 415.424C234.236 415.135 234.477 414.909 234.782 414.747C235.088 414.585 235.432 414.504 235.814 414.504C236.197 414.504 236.537 414.585 236.833 414.747C237.13 414.909 237.362 415.127 237.53 415.402C237.698 415.677 237.783 415.983 237.783 416.319C237.783 416.56 237.739 416.795 237.652 417.026C237.566 417.254 237.417 417.508 237.204 417.789C236.993 418.069 236.7 418.409 236.325 418.812L234.855 420.385V420.436H237.898V421.139H233.768ZM238.924 419.797V419.145L241.8 414.593H242.273V415.603H241.953L239.78 419.042V419.093H243.654V419.797H238.924ZM242.005 421.139V419.598V419.295V414.593H242.759V421.139H242.005ZM247.063 421.228C246.641 421.228 246.265 421.156 245.935 421.011C245.607 420.866 245.346 420.665 245.152 420.407C244.96 420.147 244.856 419.846 244.839 419.502H245.644C245.661 419.713 245.734 419.896 245.861 420.049C245.989 420.2 246.156 420.317 246.363 420.401C246.57 420.484 246.799 420.525 247.05 420.525C247.332 420.525 247.581 420.476 247.798 420.378C248.015 420.28 248.186 420.144 248.31 419.969C248.433 419.794 248.495 419.592 248.495 419.362C248.495 419.121 248.435 418.909 248.316 418.726C248.197 418.54 248.022 418.396 247.792 418.291C247.562 418.187 247.28 418.135 246.948 418.135H246.424V417.431H246.948C247.208 417.431 247.436 417.385 247.632 417.291C247.83 417.197 247.985 417.065 248.095 416.895C248.208 416.724 248.265 416.524 248.265 416.294C248.265 416.072 248.216 415.879 248.118 415.715C248.02 415.551 247.881 415.423 247.702 415.332C247.525 415.24 247.317 415.194 247.076 415.194C246.85 415.194 246.637 415.236 246.437 415.319C246.238 415.4 246.077 415.518 245.951 415.674C245.825 415.827 245.757 416.012 245.746 416.23H244.979C244.992 415.887 245.095 415.586 245.289 415.328C245.483 415.069 245.737 414.866 246.05 414.721C246.365 414.576 246.712 414.504 247.089 414.504C247.493 414.504 247.841 414.586 248.131 414.75C248.42 414.912 248.643 415.126 248.799 415.392C248.954 415.659 249.032 415.946 249.032 416.255C249.032 416.624 248.935 416.938 248.741 417.198C248.549 417.458 248.288 417.638 247.958 417.738V417.789C248.371 417.858 248.694 418.033 248.926 418.317C249.159 418.598 249.275 418.946 249.275 419.362C249.275 419.718 249.178 420.037 248.984 420.321C248.792 420.602 248.53 420.824 248.198 420.985C247.865 421.147 247.487 421.228 247.063 421.228Z" fill="white"/>
<path d="M6.11612 422.102C5.94567 422.102 5.80078 422.043 5.68146 421.923C5.56214 421.804 5.50249 421.659 5.50249 421.489C5.50249 421.318 5.56214 421.173 5.68146 421.054C5.80078 420.935 5.94567 420.875 6.11612 420.875C6.28658 420.875 6.43146 420.935 6.55078 421.054C6.6701 421.173 6.72976 421.318 6.72976 421.489C6.72976 421.602 6.70135 421.707 6.64453 421.804C6.59339 421.895 6.51953 421.966 6.42294 422.017C6.33203 422.074 6.22976 422.102 6.11612 422.102ZM13.3327 404.545L13.3327 422H12.7873L12.7873 405.125H12.685L8.93501 407.614V406.966L12.5827 404.545H13.3327ZM23.8562 404.307C24.6005 404.307 25.2852 404.474 25.9102 404.81C26.5408 405.139 27.0891 405.639 27.555 406.31C28.0266 406.974 28.3903 407.815 28.646 408.832C28.9073 409.849 29.038 411.045 29.038 412.42C29.038 413.597 28.9556 414.764 28.7908 415.923C28.6261 417.082 28.3448 418.139 27.9471 419.094C27.5494 420.048 27.0039 420.812 26.3107 421.386C25.6175 421.955 24.7425 422.239 23.6857 422.239C22.8221 422.239 22.0692 422.043 21.4272 421.651C20.7852 421.253 20.2766 420.707 19.9016 420.014C19.5266 419.315 19.3107 418.511 19.2539 417.602H19.7994C19.8846 418.795 20.2681 419.776 20.9499 420.543C21.6317 421.31 22.5437 421.693 23.6857 421.693C25.271 421.693 26.467 420.875 27.2738 419.239C28.0863 417.602 28.4925 415.25 28.4925 412.182H28.4244C28.2425 412.761 27.9272 413.278 27.4783 413.733C27.0295 414.182 26.4982 414.537 25.8846 414.798C25.271 415.054 24.6289 415.182 23.9585 415.182C23.038 415.182 22.1971 414.943 21.4357 414.466C20.68 413.989 20.0749 413.338 19.6204 412.514C19.1715 411.69 18.9471 410.761 18.9471 409.727C18.9471 408.761 19.1516 407.866 19.5607 407.043C19.9755 406.219 20.5494 405.557 21.2823 405.057C22.021 404.557 22.8789 404.307 23.8562 404.307ZM23.8562 404.852C23.0153 404.852 22.2653 405.071 21.6062 405.509C20.9528 405.946 20.4357 406.534 20.055 407.273C19.68 408.011 19.4925 408.83 19.4925 409.727C19.4925 410.648 19.6914 411.48 20.0891 412.224C20.4925 412.963 21.0323 413.551 21.7085 413.989C22.3903 414.42 23.1516 414.636 23.9925 414.636C24.6573 414.636 25.2738 414.5 25.842 414.227C26.4102 413.949 26.8931 413.568 27.2908 413.085C27.6942 412.602 27.9812 412.054 28.1516 411.44C28.3278 410.821 28.3505 410.17 28.2198 409.489C28.0266 408.466 27.7227 407.611 27.3079 406.923C26.8988 406.236 26.3988 405.719 25.8079 405.372C25.2227 405.026 24.5721 404.852 23.8562 404.852ZM32.7454 417.909V417.5L40.7567 404.545H41.0977V405.67H40.6886L33.5295 417.295V417.364H43.484V417.909H32.7454ZM40.7567 422V417.739V417.568V404.545H41.3022V422H40.7567ZM47.0188 417.909V417.5L55.0302 404.545H55.3711V405.67H54.962L47.8029 417.295V417.364H57.7575V417.909H47.0188ZM55.0302 422V417.739V417.568V404.545H55.5756V422H55.0302ZM66.9513 422.239C65.9684 422.239 65.0849 422.04 64.3008 421.642C63.5224 421.244 62.9059 420.699 62.4513 420.006C61.9968 419.312 61.7695 418.523 61.7695 417.636H62.315C62.315 418.42 62.5195 419.119 62.9286 419.733C63.3377 420.341 63.8917 420.821 64.5906 421.173C65.2951 421.52 66.082 421.693 66.9513 421.693C67.8775 421.693 68.6871 421.503 69.3803 421.122C70.0735 420.741 70.6133 420.23 70.9996 419.588C71.3917 418.946 71.5877 418.239 71.5877 417.466C71.5877 416.631 71.3661 415.898 70.9229 415.267C70.4798 414.636 69.869 414.148 69.0906 413.801C68.3178 413.449 67.4343 413.273 66.44 413.273H66.1673V412.727H66.44C67.315 412.727 68.1019 412.565 68.8008 412.241C69.4996 411.918 70.0536 411.46 70.4627 410.869C70.8718 410.278 71.0763 409.58 71.0763 408.773C71.0763 408.023 70.9002 407.352 70.5479 406.761C70.1957 406.17 69.707 405.705 69.082 405.364C68.4627 405.023 67.7411 404.852 66.9173 404.852C66.1048 404.852 65.3832 405.026 64.7525 405.372C64.1218 405.713 63.6246 406.19 63.261 406.804C62.9031 407.412 62.7241 408.114 62.7241 408.909H62.1786C62.1786 408.011 62.3832 407.216 62.7923 406.523C63.2013 405.83 63.761 405.287 64.4712 404.895C65.1871 404.503 66.0025 404.307 66.9173 404.307C67.832 404.307 68.6417 404.503 69.3462 404.895C70.0565 405.281 70.6133 405.812 71.0167 406.489C71.4201 407.159 71.6218 407.92 71.6218 408.773C71.6218 409.795 71.3292 410.673 70.744 411.406C70.1587 412.139 69.3718 412.648 68.3832 412.932V413C69.5252 413.29 70.4343 413.83 71.1104 414.619C71.7923 415.409 72.1332 416.358 72.1332 417.466C72.1332 418.358 71.9116 419.165 71.4684 419.886C71.0309 420.608 70.4229 421.182 69.6445 421.608C68.8661 422.028 67.9684 422.239 66.9513 422.239ZM80.3406 404.545V422H79.7951V405.125H79.6928L75.9428 407.614V406.966L79.5906 404.545H80.3406ZM86.2276 422V421.557L91.8185 414.943C92.6935 413.909 93.3754 413.045 93.864 412.352C94.3526 411.653 94.6964 411.034 94.8952 410.494C95.0941 409.949 95.1935 409.386 95.1935 408.807C95.1935 408.045 95.0174 407.366 94.6651 406.77C94.3185 406.173 93.8413 405.705 93.2333 405.364C92.631 405.023 91.9435 404.852 91.1708 404.852C90.364 404.852 89.6538 405.037 89.0401 405.406C88.4265 405.77 87.9464 406.259 87.5998 406.872C87.2532 407.486 87.0799 408.165 87.0799 408.909H86.5344C86.5344 408.062 86.7305 407.293 87.1225 406.599C87.5202 405.901 88.0657 405.344 88.7589 404.929C89.4577 404.514 90.2617 404.307 91.1708 404.307C92.0458 404.307 92.8271 404.503 93.5146 404.895C94.2021 405.281 94.7447 405.815 95.1424 406.497C95.5401 407.173 95.739 407.943 95.739 408.807C95.739 409.449 95.631 410.062 95.4151 410.648C95.2049 411.233 94.8441 411.886 94.3327 412.608C93.8271 413.33 93.1254 414.222 92.2276 415.284L87.0799 421.386V421.455H96.7617V422H86.2276Z" fill="white"/>
<path d="M523.54 554.545V572H522.994V555.125H522.892L519.142 557.614V556.966L522.79 554.545H523.54ZM534.063 554.307C534.808 554.307 535.492 554.474 536.117 554.81C536.748 555.139 537.296 555.639 537.762 556.31C538.234 556.974 538.597 557.815 538.853 558.832C539.114 559.849 539.245 561.045 539.245 562.42C539.245 563.597 539.163 564.764 538.998 565.923C538.833 567.082 538.552 568.139 538.154 569.094C537.756 570.048 537.211 570.812 536.518 571.386C535.825 571.955 534.95 572.239 533.893 572.239C533.029 572.239 532.276 572.043 531.634 571.651C530.992 571.253 530.484 570.707 530.109 570.014C529.734 569.315 529.518 568.511 529.461 567.602H530.006C530.092 568.795 530.475 569.776 531.157 570.543C531.839 571.31 532.751 571.693 533.893 571.693C535.478 571.693 536.674 570.875 537.481 569.239C538.293 567.602 538.7 565.25 538.7 562.182H538.631C538.45 562.761 538.134 563.278 537.685 563.733C537.237 564.182 536.705 564.537 536.092 564.798C535.478 565.054 534.836 565.182 534.165 565.182C533.245 565.182 532.404 564.943 531.643 564.466C530.887 563.989 530.282 563.338 529.827 562.514C529.379 561.69 529.154 560.761 529.154 559.727C529.154 558.761 529.359 557.866 529.768 557.043C530.183 556.219 530.756 555.557 531.489 555.057C532.228 554.557 533.086 554.307 534.063 554.307ZM534.063 554.852C533.222 554.852 532.472 555.071 531.813 555.509C531.16 555.946 530.643 556.534 530.262 557.273C529.887 558.011 529.7 558.83 529.7 559.727C529.7 560.648 529.898 561.48 530.296 562.224C530.7 562.963 531.239 563.551 531.915 563.989C532.597 564.42 533.359 564.636 534.2 564.636C534.864 564.636 535.481 564.5 536.049 564.227C536.617 563.949 537.1 563.568 537.498 563.085C537.901 562.602 538.188 562.054 538.359 561.44C538.535 560.821 538.558 560.17 538.427 559.489C538.234 558.466 537.93 557.611 537.515 556.923C537.106 556.236 536.606 555.719 536.015 555.372C535.43 555.026 534.779 554.852 534.063 554.852ZM543.253 572.102C543.082 572.102 542.938 572.043 542.818 571.923C542.699 571.804 542.639 571.659 542.639 571.489C542.639 571.318 542.699 571.173 542.818 571.054C542.938 570.935 543.082 570.875 543.253 570.875C543.423 570.875 543.568 570.935 543.688 571.054C543.807 571.173 543.866 571.318 543.866 571.489C543.866 571.602 543.838 571.707 543.781 571.804C543.73 571.895 543.656 571.966 543.56 572.017C543.469 572.074 543.366 572.102 543.253 572.102ZM548.062 567.909V567.5L556.073 554.545H556.414V555.67H556.005L548.846 567.295V567.364H558.8V567.909H548.062ZM556.073 572V567.739V567.568V554.545H556.619V572H556.073Z" fill="white"/>
<path d="M522.719 593V592.705L526.447 588.295C527.03 587.606 527.485 587.03 527.81 586.568C528.136 586.102 528.365 585.689 528.498 585.33C528.63 584.966 528.697 584.591 528.697 584.205C528.697 583.697 528.579 583.244 528.344 582.847C528.113 582.449 527.795 582.136 527.39 581.909C526.988 581.682 526.53 581.568 526.015 581.568C525.477 581.568 525.004 581.691 524.594 581.938C524.185 582.18 523.865 582.506 523.634 582.915C523.403 583.324 523.288 583.777 523.288 584.273H522.924C522.924 583.708 523.055 583.195 523.316 582.733C523.581 582.267 523.945 581.896 524.407 581.619C524.873 581.343 525.409 581.205 526.015 581.205C526.598 581.205 527.119 581.335 527.577 581.597C528.036 581.854 528.397 582.21 528.663 582.665C528.928 583.116 529.06 583.629 529.06 584.205C529.06 584.633 528.988 585.042 528.844 585.432C528.704 585.822 528.464 586.258 528.123 586.739C527.786 587.22 527.318 587.814 526.719 588.523L523.288 592.591V592.636H529.742V593H522.719ZM535.589 593.159C534.987 593.159 534.454 593.028 533.992 592.767C533.53 592.506 533.168 592.144 532.907 591.682C532.646 591.22 532.517 590.689 532.521 590.091H532.884C532.88 590.886 533.127 591.536 533.623 592.04C534.123 592.544 534.778 592.795 535.589 592.795C536.199 592.795 536.737 592.646 537.202 592.347C537.668 592.047 538.032 591.64 538.293 591.125C538.555 590.61 538.683 590.03 538.68 589.386C538.676 588.697 538.53 588.1 538.242 587.597C537.958 587.093 537.579 586.705 537.106 586.432C536.636 586.159 536.123 586.023 535.566 586.023C535.108 586.023 534.693 586.11 534.322 586.284C533.951 586.458 533.63 586.682 533.362 586.955L532.816 586.864L533.498 581.364H538.657V581.727H533.816L533.225 586.545H533.271C533.562 586.277 533.901 586.062 534.288 585.903C534.674 585.741 535.1 585.659 535.566 585.659C536.191 585.659 536.767 585.814 537.293 586.125C537.824 586.432 538.248 586.866 538.566 587.426C538.888 587.983 539.047 588.636 539.043 589.386C539.04 590.106 538.89 590.75 538.594 591.318C538.299 591.886 537.892 592.335 537.373 592.665C536.854 592.994 536.259 593.159 535.589 593.159ZM541.796 593.068C541.683 593.068 541.586 593.028 541.506 592.949C541.427 592.869 541.387 592.773 541.387 592.659C541.387 592.545 541.427 592.449 541.506 592.369C541.586 592.29 541.683 592.25 541.796 592.25C541.91 592.25 542.006 592.29 542.086 592.369C542.165 592.449 542.205 592.545 542.205 592.659C542.205 592.735 542.186 592.805 542.148 592.869C542.114 592.93 542.065 592.977 542.001 593.011C541.94 593.049 541.872 593.068 541.796 593.068ZM545.298 593V592.705L549.025 588.295C549.608 587.606 550.063 587.03 550.388 586.568C550.714 586.102 550.943 585.689 551.076 585.33C551.209 584.966 551.275 584.591 551.275 584.205C551.275 583.697 551.157 583.244 550.923 582.847C550.692 582.449 550.373 582.136 549.968 581.909C549.567 581.682 549.108 581.568 548.593 581.568C548.055 581.568 547.582 581.691 547.173 581.938C546.763 582.18 546.443 582.506 546.212 582.915C545.981 583.324 545.866 583.777 545.866 584.273H545.502C545.502 583.708 545.633 583.195 545.894 582.733C546.159 582.267 546.523 581.896 546.985 581.619C547.451 581.343 547.987 581.205 548.593 581.205C549.176 581.205 549.697 581.335 550.156 581.597C550.614 581.854 550.976 582.21 551.241 582.665C551.506 583.116 551.638 583.629 551.638 584.205C551.638 584.633 551.567 585.042 551.423 585.432C551.282 585.822 551.042 586.258 550.701 586.739C550.364 587.22 549.896 587.814 549.298 588.523L545.866 592.591V592.636H552.32V593H545.298Z" fill="white"/>
<path d="M688.443 676.261C688.082 675.899 687.856 675.502 687.765 675.07C687.675 674.639 687.709 674.202 687.868 673.762C688.027 673.322 688.299 672.909 688.684 672.524C689.076 672.133 689.494 671.859 689.937 671.703C690.384 671.547 690.822 671.515 691.25 671.605C691.682 671.696 692.072 671.915 692.421 672.263C692.692 672.534 692.886 672.829 693.003 673.147C693.12 673.465 693.158 673.784 693.116 674.104C693.074 674.423 692.95 674.721 692.742 674.995L692.149 674.403C692.28 674.182 692.335 673.925 692.315 673.634C692.298 673.343 692.159 673.067 691.898 672.806C691.667 672.574 691.404 672.432 691.11 672.379C690.819 672.325 690.516 672.359 690.201 672.479C689.889 672.6 689.588 672.806 689.297 673.097C688.999 673.395 688.786 673.701 688.659 674.016C688.534 674.332 688.496 674.638 688.546 674.932C688.598 675.229 688.741 675.494 688.975 675.728C689.129 675.882 689.296 675.995 689.475 676.067C689.654 676.139 689.838 676.169 690.025 676.155C690.213 676.142 690.395 676.083 690.572 675.979L691.165 676.572C690.904 676.766 690.616 676.888 690.301 676.939C689.99 676.989 689.673 676.96 689.35 676.851C689.03 676.742 688.728 676.545 688.443 676.261ZM691.951 679.789C691.707 679.544 691.531 679.276 691.424 678.985C691.318 678.692 691.295 678.399 691.353 678.106C691.414 677.812 691.569 677.539 691.82 677.288C692.041 677.067 692.264 676.931 692.488 676.881C692.714 676.829 692.94 676.837 693.164 676.904C693.388 676.97 693.607 677.073 693.822 677.21C694.039 677.347 694.249 677.494 694.452 677.649C694.717 677.854 694.929 678.021 695.09 678.151C695.254 678.282 695.389 678.362 695.494 678.39C695.601 678.42 695.703 678.388 695.798 678.292L695.818 678.272C696.066 678.024 696.191 677.764 696.192 677.491C696.196 677.22 696.061 676.948 695.788 676.675C695.505 676.392 695.221 676.232 694.937 676.195C694.652 676.159 694.407 676.178 694.201 676.253L693.839 675.49C694.174 675.356 694.491 675.307 694.789 675.344C695.09 675.381 695.366 675.473 695.617 675.62C695.872 675.768 696.096 675.938 696.29 676.133C696.414 676.257 696.541 676.414 696.672 676.605C696.806 676.796 696.903 677.011 696.963 677.253C697.025 677.495 697.015 677.758 696.933 678.041C696.851 678.324 696.657 678.619 696.35 678.925L693.809 681.466L693.217 680.873L693.739 680.351L693.709 680.321C693.585 680.365 693.428 680.387 693.239 680.389C693.05 680.39 692.844 680.347 692.621 680.258C692.399 680.17 692.175 680.013 691.951 679.789ZM692.574 679.347C692.808 679.581 693.052 679.733 693.304 679.801C693.559 679.872 693.8 679.875 694.028 679.811C694.257 679.749 694.452 679.638 694.613 679.477L695.155 678.935C695.1 678.94 695.017 678.912 694.907 678.852C694.799 678.792 694.681 678.716 694.552 678.624C694.427 678.531 694.306 678.44 694.188 678.35C694.075 678.259 693.982 678.187 693.91 678.131C693.736 677.997 693.559 677.886 693.38 677.797C693.204 677.709 693.031 677.668 692.86 677.674C692.693 677.681 692.534 677.76 692.383 677.91C692.177 678.116 692.098 678.348 692.144 678.606C692.195 678.864 692.338 679.111 692.574 679.347ZM694.891 682.548L698.748 678.691L699.32 679.263L698.718 679.866L698.768 679.916C699.054 679.791 699.344 679.76 699.637 679.826C699.931 679.889 700.204 680.047 700.455 680.298C700.71 680.552 700.864 680.822 700.917 681.106C700.974 681.391 700.947 681.684 700.837 681.985L700.877 682.025C701.175 681.925 701.481 681.915 701.796 681.995C702.113 682.074 702.409 682.251 702.685 682.528C703.03 682.872 703.204 683.262 703.207 683.698C703.212 684.131 702.988 684.575 702.534 685.029L699.953 687.61L699.36 687.017L701.942 684.436C702.226 684.151 702.352 683.87 702.318 683.592C702.285 683.314 702.163 683.07 701.952 682.859C701.681 682.588 701.389 682.46 701.076 682.475C700.764 682.488 700.484 682.62 700.234 682.869L697.723 685.38L697.121 684.777L699.762 682.136C699.982 681.917 700.087 681.669 700.079 681.393C700.072 681.115 699.956 680.864 699.732 680.639C699.578 680.485 699.393 680.382 699.177 680.33C698.963 680.28 698.742 680.287 698.514 680.351C698.29 680.414 698.083 680.541 697.894 680.73L695.483 683.14L694.891 682.548ZM702.573 690.391C702.202 690.019 701.963 689.617 701.858 689.183C701.756 688.75 701.78 688.312 701.931 687.87C702.085 687.428 702.359 687.009 702.754 686.614C703.149 686.219 703.569 685.943 704.015 685.786C704.463 685.628 704.902 685.595 705.33 685.685C705.762 685.776 706.152 685.995 706.501 686.343C706.701 686.544 706.866 686.776 706.995 687.039C707.124 687.301 707.194 687.589 707.204 687.9C707.215 688.21 707.146 688.535 706.995 688.877C706.845 689.218 706.589 689.569 706.229 689.929L705.978 690.18L703.005 687.207L703.517 686.695L705.888 689.065C706.106 688.847 706.256 688.61 706.34 688.352C706.425 688.096 706.438 687.839 706.378 687.581C706.319 687.325 706.183 687.09 705.968 686.875C705.732 686.639 705.469 686.494 705.18 686.439C704.894 686.383 704.611 686.403 704.334 686.496C704.056 686.59 703.81 686.743 703.598 686.956L703.256 687.297C702.965 687.589 702.768 687.886 702.666 688.189C702.567 688.492 702.556 688.786 702.631 689.073C702.708 689.357 702.866 689.619 703.106 689.859C703.261 690.014 703.424 690.133 703.593 690.215C703.765 690.297 703.942 690.34 704.123 690.343C704.305 690.345 704.488 690.304 704.673 690.22L705.084 690.953C704.83 691.087 704.558 691.157 704.268 691.162C703.98 691.165 703.691 691.103 703.399 690.976C703.11 690.847 702.834 690.652 702.573 690.391ZM705.152 692.809L709.009 688.952L709.582 689.525L708.999 690.107L709.039 690.147C709.3 690.027 709.582 689.999 709.885 690.064C710.188 690.13 710.455 690.278 710.686 690.509C710.73 690.552 710.784 690.608 710.847 690.675C710.911 690.742 710.958 690.793 710.988 690.83L710.385 691.433C710.37 691.408 710.332 691.354 710.27 691.272C710.211 691.19 710.142 691.11 710.064 691.031C709.876 690.844 709.67 690.716 709.444 690.647C709.221 690.578 708.998 690.57 708.776 690.622C708.556 690.674 708.36 690.787 708.186 690.961L705.745 693.402L705.152 692.809ZM708.828 696.665C708.583 696.421 708.408 696.153 708.3 695.862C708.195 695.569 708.171 695.276 708.23 694.983C708.29 694.688 708.446 694.415 708.697 694.164C708.918 693.943 709.141 693.808 709.365 693.758C709.591 693.706 709.816 693.713 710.041 693.78C710.265 693.847 710.484 693.949 710.698 694.087C710.916 694.224 711.126 694.37 711.329 694.526C711.593 694.73 711.806 694.898 711.966 695.028C712.131 695.159 712.265 695.238 712.371 695.267C712.478 695.297 712.579 695.264 712.675 695.169L712.695 695.149C712.942 694.901 713.067 694.641 713.069 694.368C713.072 694.097 712.937 693.825 712.665 693.552C712.382 693.269 712.098 693.109 711.813 693.072C711.529 693.035 711.283 693.054 711.078 693.13L710.716 692.366C711.051 692.233 711.367 692.184 711.665 692.221C711.966 692.258 712.243 692.35 712.494 692.497C712.748 692.644 712.973 692.815 713.167 693.009C713.291 693.133 713.418 693.291 713.548 693.481C713.682 693.672 713.779 693.888 713.84 694.129C713.902 694.372 713.892 694.635 713.81 694.918C713.728 695.201 713.533 695.495 713.227 695.802L710.686 698.343L710.093 697.75L710.616 697.228L710.585 697.198C710.462 697.241 710.305 697.264 710.116 697.265C709.927 697.267 709.721 697.224 709.498 697.135C709.276 697.046 709.052 696.89 708.828 696.665ZM709.45 696.223C709.685 696.458 709.928 696.609 710.181 696.678C710.436 696.748 710.677 696.752 710.904 696.688C711.134 696.626 711.329 696.515 711.489 696.354L712.032 695.812C711.977 695.817 711.894 695.789 711.783 695.729C711.676 695.668 711.558 695.592 711.429 695.5C711.304 695.408 711.182 695.317 711.065 695.227C710.951 695.136 710.858 695.063 710.786 695.008C710.612 694.874 710.436 694.763 710.256 694.674C710.081 694.585 709.907 694.544 709.737 694.551C709.569 694.558 709.41 694.636 709.26 694.787C709.054 694.993 708.974 695.225 709.021 695.483C709.071 695.74 709.214 695.987 709.45 696.223ZM716.458 699.153L715.906 699.706L713.656 697.456L714.208 696.903L716.458 699.153ZM716.506 704.324C716.145 703.962 715.919 703.566 715.828 703.134C715.738 702.702 715.772 702.266 715.931 701.826C716.09 701.385 716.362 700.973 716.747 700.588C717.139 700.196 717.557 699.922 718.001 699.766C718.447 699.611 718.885 699.578 719.314 699.669C719.746 699.759 720.136 699.978 720.484 700.326C720.755 700.598 720.949 700.892 721.066 701.21C721.184 701.528 721.221 701.847 721.179 702.167C721.138 702.487 721.013 702.784 720.805 703.058L720.213 702.466C720.343 702.245 720.399 701.989 720.378 701.697C720.362 701.406 720.223 701.13 719.962 700.869C719.731 700.638 719.468 700.496 719.173 700.442C718.882 700.388 718.579 700.422 718.264 700.542C717.953 700.663 717.651 700.869 717.36 701.16C717.062 701.458 716.85 701.764 716.722 702.079C716.597 702.396 716.559 702.701 716.609 702.996C716.661 703.292 716.804 703.557 717.039 703.792C717.193 703.946 717.359 704.059 717.538 704.131C717.718 704.203 717.901 704.232 718.088 704.219C718.276 704.205 718.458 704.147 718.636 704.043L719.228 704.635C718.967 704.83 718.679 704.952 718.365 705.002C718.053 705.052 717.736 705.023 717.413 704.914C717.093 704.805 716.791 704.609 716.506 704.324ZM720.456 708.274C720.108 707.926 719.885 707.537 719.788 707.109C719.693 706.682 719.721 706.246 719.871 705.8C720.024 705.357 720.299 704.936 720.697 704.537C721.099 704.136 721.523 703.858 721.968 703.704C722.415 703.551 722.852 703.523 723.279 703.618C723.707 703.715 724.096 703.938 724.444 704.286C724.792 704.635 725.014 705.022 725.109 705.449C725.206 705.877 725.178 706.314 725.024 706.76C724.872 707.207 724.594 707.631 724.193 708.033C723.794 708.431 723.372 708.706 722.927 708.856C722.484 709.009 722.047 709.036 721.619 708.939C721.192 708.844 720.804 708.622 720.456 708.274ZM720.989 707.742C721.253 708.006 721.539 708.156 721.845 708.191C722.151 708.226 722.456 708.174 722.759 708.035C723.062 707.896 723.342 707.698 723.6 707.44C723.858 707.182 724.057 706.901 724.198 706.596C724.338 706.292 724.392 705.985 724.358 705.677C724.325 705.369 724.176 705.083 723.911 704.819C723.647 704.554 723.361 704.405 723.053 704.372C722.745 704.338 722.438 704.392 722.134 704.532C721.829 704.673 721.548 704.872 721.29 705.13C721.032 705.388 720.834 705.668 720.695 705.971C720.556 706.274 720.504 706.579 720.539 706.885C720.574 707.192 720.724 707.477 720.989 707.742ZM723.189 710.846L727.046 706.989L727.618 707.561L727.036 708.144L727.076 708.184C727.337 708.064 727.619 708.036 727.922 708.101C728.225 708.166 728.492 708.315 728.723 708.546C728.767 708.589 728.82 708.644 728.884 708.711C728.948 708.778 728.994 708.83 729.025 708.867L728.422 709.47C728.407 709.445 728.368 709.391 728.306 709.309C728.248 709.227 728.179 709.147 728.101 709.068C727.913 708.88 727.706 708.752 727.48 708.684C727.258 708.615 727.035 708.607 726.812 708.659C726.593 708.711 726.396 708.824 726.222 708.998L723.782 711.438L723.189 710.846ZM727.079 714.896C726.757 714.575 726.555 714.21 726.471 713.801C726.389 713.391 726.427 712.968 726.586 712.531C726.747 712.092 727.032 711.669 727.44 711.26C727.845 710.855 728.266 710.573 728.703 710.414C729.14 710.255 729.564 710.218 729.974 710.303C730.384 710.389 730.751 710.594 731.076 710.919C731.327 711.17 731.484 711.41 731.546 711.639C731.611 711.869 731.629 712.074 731.601 712.257C731.576 712.439 731.551 712.586 731.528 712.696L731.578 712.747L733.477 710.848L734.069 711.441L728.927 716.583L728.354 716.011L728.947 715.418L728.876 715.348C728.763 715.375 728.612 715.402 728.424 715.428C728.239 715.454 728.029 715.433 727.797 715.368C727.566 715.301 727.326 715.144 727.079 714.896ZM727.691 714.444C727.929 714.682 728.192 714.821 728.48 714.861C728.769 714.899 729.067 714.851 729.374 714.715C729.682 714.578 729.981 714.364 730.273 714.072C730.56 713.785 730.771 713.491 730.903 713.191C731.037 712.89 731.082 712.597 731.038 712.312C730.997 712.026 730.855 711.762 730.614 711.521C730.363 711.27 730.089 711.125 729.793 711.087C729.5 711.048 729.202 711.097 728.899 711.232C728.599 711.368 728.314 711.571 728.043 711.843C727.768 712.117 727.561 712.408 727.42 712.716C727.283 713.025 727.231 713.328 727.264 713.625C727.301 713.923 727.443 714.196 727.691 714.444ZM734.785 717.48L734.232 718.032L731.983 715.782L732.535 715.23L734.785 717.48ZM737.487 717.43L736.834 719.931L739.335 719.278L740.018 719.961L736.844 720.644L736.161 723.818L735.478 723.135L736.05 720.714L733.63 721.287L732.947 720.604L736.101 719.901L736.804 716.747L737.487 717.43ZM735.942 726.491C735.841 726.391 735.76 726.293 735.698 726.198C735.635 726.104 735.595 726.034 735.58 725.989L736.253 725.618C736.36 725.798 736.474 725.939 736.595 726.039C736.715 726.14 736.863 726.188 737.037 726.185C737.211 726.185 737.432 726.123 737.7 725.999L738.111 725.808L740.562 720.505L741.205 721.148L739.196 725.286L739.236 725.326L743.374 723.317L744.017 723.96L737.961 726.742C737.688 726.868 737.432 726.942 737.192 726.963C736.951 726.987 736.727 726.958 736.519 726.878C736.313 726.799 736.121 726.671 735.942 726.491ZM740.832 728.489L741.284 728.037L746.286 727.414L746.326 727.374L744.207 725.255L744.759 724.702L747.642 727.585L747.17 728.057L742.248 728.72L742.208 728.76L744.408 730.96L743.855 731.512L740.832 728.489Z" fill="white"/>
<line x1="679.003" y1="426.5" x2="1012" y2="428.5" stroke="#D9D9D9"/>
<line x1="333.678" y1="427.19" x2="374.822" y2="450.944" stroke="#D9D9D9"/>
<line x1="627.846" y1="455.734" x2="678.654" y2="426.4" stroke="#D9D9D9"/>
<line x1="456.25" y1="0.566987" x2="507.058" y2="29.9013" stroke="#D9D9D9"/>
<line x1="503.75" y1="30.9013" x2="554.558" y2="1.567" stroke="#D9D9D9"/>
<line y1="428.5" x2="337" y2="428.5" stroke="#D9D9D9"/>
<line x1="243.646" y1="737.286" x2="381.286" y2="599.646" stroke="#D9D9D9"/>
<line x1="287.646" y1="675.058" x2="506.058" y2="456.646" stroke="#D9D9D9"/>
<line x1="724.058" y1="675.765" x2="505.646" y2="457.354" stroke="#D9D9D9"/>
<line x1="770.286" y1="736.993" x2="632.646" y2="599.354" stroke="#D9D9D9"/>
<line x1="505.5" y1="457.447" x2="505.5" y2="322" stroke="#D9D9D9"/>
<line x1="505.5" y1="129" x2="505.5" y2="28" stroke="#D9D9D9"/>
<circle cx="506" cy="400" r="249.5" stroke="#D9D9D9"/>
<mask id="path-21-inside-1_4_165" fill="white">
<path d="M731 414C731 473.674 707.295 530.903 665.099 573.099C622.903 615.295 565.674 639 506 639C446.326 639 389.097 615.295 346.901 573.099C304.705 530.903 281 473.674 281 414L506 414H731Z"/>
</mask>
<path d="M731 414C731 473.674 707.295 530.903 665.099 573.099C622.903 615.295 565.674 639 506 639C446.326 639 389.097 615.295 346.901 573.099C304.705 530.903 281 473.674 281 414L506 414H731Z" stroke="#D9D9D9" stroke-width="2" mask="url(#path-21-inside-1_4_165)"/>
<path d="M725.5 652L731.995 663.25H719.005L725.5 652Z" fill="#D9D9D9"/>
<circle cx="12.5" cy="441.5" r="2.5" fill="#D9D9D9"/>
<circle cx="12.5" cy="458.5" r="2.5" fill="#D9D9D9"/>
<circle cx="12.5" cy="475.5" r="2.5" fill="#D9D9D9"/>
<circle cx="12.5" cy="492.5" r="2.5" fill="#D9D9D9"/>
<path d="M1004.5 432L1011 443.25H998.005L1004.5 432Z" fill="#D9D9D9"/>
<path d="M940 427V426.562L942.138 424.159C942.417 423.843 942.642 423.574 942.813 423.35C942.983 423.126 943.107 422.92 943.183 422.73C943.262 422.54 943.302 422.343 943.302 422.139C943.302 421.89 943.243 421.672 943.126 421.487C943.011 421.299 942.852 421.153 942.65 421.049C942.447 420.945 942.219 420.892 941.966 420.892C941.697 420.892 941.462 420.95 941.259 421.065C941.059 421.18 940.904 421.338 940.793 421.538C940.682 421.738 940.627 421.968 940.627 422.228H940.055C940.055 421.866 940.138 421.545 940.304 421.266C940.472 420.985 940.701 420.765 940.991 420.605C941.283 420.445 941.613 420.365 941.982 420.365C942.346 420.365 942.67 420.444 942.953 420.602C943.237 420.757 943.459 420.969 943.621 421.238C943.783 421.506 943.864 421.806 943.864 422.139C943.864 422.38 943.822 422.613 943.736 422.839C943.653 423.065 943.509 423.316 943.305 423.593C943.1 423.87 942.817 424.209 942.455 424.609L940.831 426.422V426.463H944.069V427H940ZM947.526 427.089C947.066 427.089 946.673 426.957 946.347 426.693C946.023 426.427 945.774 426.042 945.599 425.539C945.426 425.037 945.34 424.433 945.34 423.727C945.34 423.024 945.426 422.422 945.599 421.922C945.774 421.419 946.024 421.034 946.35 420.768C946.678 420.499 947.07 420.365 947.526 420.365C947.982 420.365 948.373 420.499 948.699 420.768C949.027 421.034 949.277 421.419 949.45 421.922C949.625 422.422 949.712 423.024 949.712 423.727C949.712 424.433 949.625 425.037 949.45 425.539C949.277 426.042 949.028 426.427 948.702 426.693C948.378 426.957 947.986 427.089 947.526 427.089ZM947.526 426.553C948.031 426.553 948.425 426.306 948.709 425.814C948.992 425.32 949.134 424.624 949.134 423.727C949.134 423.131 949.069 422.621 948.939 422.2C948.811 421.776 948.627 421.452 948.386 421.228C948.147 421.004 947.861 420.892 947.526 420.892C947.025 420.892 946.632 421.142 946.347 421.64C946.061 422.137 945.918 422.832 945.918 423.727C945.918 424.324 945.982 424.833 946.11 425.255C946.24 425.677 946.424 425.999 946.663 426.22C946.904 426.442 947.191 426.553 947.526 426.553ZM951.013 427V426.562L953.151 424.159C953.43 423.843 953.655 423.574 953.825 423.35C953.996 423.126 954.119 422.92 954.196 422.73C954.275 422.54 954.314 422.343 954.314 422.139C954.314 421.89 954.256 421.672 954.139 421.487C954.024 421.299 953.865 421.153 953.662 421.049C953.46 420.945 953.232 420.892 952.978 420.892C952.71 420.892 952.475 420.95 952.272 421.065C952.072 421.18 951.916 421.338 951.805 421.538C951.695 421.738 951.639 421.968 951.639 422.228H951.067C951.067 421.866 951.15 421.545 951.316 421.266C951.485 420.985 951.714 420.765 952.004 420.605C952.296 420.445 952.626 420.365 952.994 420.365C953.359 420.365 953.683 420.444 953.966 420.602C954.249 420.757 954.472 420.969 954.634 421.238C954.796 421.506 954.877 421.806 954.877 422.139C954.877 422.38 954.834 422.613 954.749 422.839C954.666 423.065 954.522 423.316 954.318 423.593C954.113 423.87 953.83 424.209 953.467 424.609L951.844 426.422V426.463H955.081V427H951.013ZM958.631 427.089C958.229 427.089 957.869 427.017 957.551 426.872C957.234 426.725 956.982 426.522 956.797 426.262C956.612 426.002 956.513 425.702 956.503 425.364H957.107C957.118 425.602 957.191 425.811 957.327 425.99C957.464 426.167 957.645 426.305 957.871 426.406C958.097 426.504 958.348 426.553 958.625 426.553C958.928 426.553 959.194 426.496 959.424 426.383C959.656 426.27 959.837 426.116 959.967 425.92C960.099 425.722 960.165 425.498 960.165 425.249C960.165 424.984 960.098 424.751 959.964 424.549C959.83 424.346 959.637 424.189 959.386 424.076C959.136 423.963 958.838 423.906 958.491 423.906H958.107V423.369H958.491C958.774 423.369 959.025 423.318 959.242 423.216C959.461 423.112 959.634 422.966 959.76 422.778C959.885 422.591 959.948 422.37 959.948 422.116C959.948 421.876 959.894 421.664 959.785 421.48C959.676 421.297 959.523 421.153 959.325 421.049C959.129 420.945 958.9 420.892 958.638 420.892C958.384 420.892 958.152 420.941 957.941 421.039C957.73 421.137 957.56 421.276 957.43 421.455C957.302 421.634 957.234 421.846 957.225 422.091H956.647C956.655 421.75 956.749 421.451 956.928 421.193C957.109 420.933 957.349 420.73 957.647 420.586C957.947 420.439 958.28 420.365 958.644 420.365C959.03 420.365 959.363 420.444 959.645 420.602C959.926 420.759 960.143 420.969 960.297 421.231C960.452 421.491 960.53 421.778 960.53 422.091C960.53 422.464 960.429 422.783 960.226 423.05C960.024 423.314 959.751 423.497 959.408 423.599V423.641C959.826 423.724 960.154 423.909 960.392 424.197C960.633 424.483 960.754 424.833 960.754 425.249C960.754 425.598 960.662 425.912 960.479 426.191C960.295 426.468 960.044 426.688 959.724 426.85C959.407 427.01 959.043 427.089 958.631 427.089ZM964.199 427.089C963.739 427.089 963.346 426.957 963.02 426.693C962.696 426.427 962.446 426.042 962.272 425.539C962.099 425.037 962.013 424.433 962.013 423.727C962.013 423.024 962.099 422.422 962.272 421.922C962.446 421.419 962.697 421.034 963.023 420.768C963.351 420.499 963.743 420.365 964.199 420.365C964.655 420.365 965.046 420.499 965.372 420.768C965.7 421.034 965.95 421.419 966.123 421.922C966.298 422.422 966.385 423.024 966.385 423.727C966.385 424.433 966.298 425.037 966.123 425.539C965.95 426.042 965.701 426.427 965.375 426.693C965.051 426.957 964.659 427.089 964.199 427.089ZM964.199 426.553C964.704 426.553 965.098 426.306 965.381 425.814C965.665 425.32 965.806 424.624 965.806 423.727C965.806 423.131 965.741 422.621 965.612 422.2C965.484 421.776 965.299 421.452 965.059 421.228C964.82 421.004 964.533 420.892 964.199 420.892C963.698 420.892 963.305 421.142 963.02 421.64C962.734 422.137 962.591 422.832 962.591 423.727C962.591 424.324 962.655 424.833 962.783 425.255C962.913 425.677 963.097 425.999 963.336 426.22C963.577 426.442 963.864 426.553 964.199 426.553ZM969.811 427.089C969.408 427.089 969.048 427.017 968.731 426.872C968.413 426.725 968.162 426.522 967.977 426.262C967.791 426.002 967.693 425.702 967.683 425.364H968.287C968.297 425.602 968.371 425.811 968.507 425.99C968.643 426.167 968.825 426.305 969.05 426.406C969.276 426.504 969.528 426.553 969.805 426.553C970.107 426.553 970.374 426.496 970.604 426.383C970.836 426.27 971.017 426.116 971.147 425.92C971.279 425.722 971.345 425.498 971.345 425.249C971.345 424.984 971.278 424.751 971.144 424.549C971.01 424.346 970.817 424.189 970.565 424.076C970.316 423.963 970.018 423.906 969.67 423.906H969.287V423.369H969.67C969.954 423.369 970.204 423.318 970.422 423.216C970.641 423.112 970.814 422.966 970.939 422.778C971.065 422.591 971.128 422.37 971.128 422.116C971.128 421.876 971.074 421.664 970.965 421.48C970.856 421.297 970.703 421.153 970.505 421.049C970.309 420.945 970.08 420.892 969.817 420.892C969.564 420.892 969.332 420.941 969.121 421.039C968.91 421.137 968.739 421.276 968.609 421.455C968.482 421.634 968.413 421.846 968.405 422.091H967.826C967.835 421.75 967.929 421.451 968.108 421.193C968.289 420.933 968.528 420.73 968.827 420.586C969.127 420.439 969.46 420.365 969.824 420.365C970.21 420.365 970.543 420.444 970.824 420.602C971.105 420.759 971.323 420.969 971.476 421.231C971.632 421.491 971.71 421.778 971.71 422.091C971.71 422.464 971.608 422.783 971.406 423.05C971.203 423.314 970.931 423.497 970.588 423.599V423.641C971.005 423.724 971.333 423.909 971.572 424.197C971.813 424.483 971.933 424.833 971.933 425.249C971.933 425.598 971.842 425.912 971.658 426.191C971.475 426.468 971.224 426.688 970.904 426.85C970.587 427.01 970.222 427.089 969.811 427.089ZM975.366 420.455V427H974.768V421.081H974.73L973.196 422.1V421.48L974.743 420.455H975.366ZM977.354 427V426.562L979.492 424.159C979.771 423.843 979.996 423.574 980.166 423.35C980.337 423.126 980.46 422.92 980.537 422.73C980.616 422.54 980.655 422.343 980.655 422.139C980.655 421.89 980.597 421.672 980.479 421.487C980.364 421.299 980.206 421.153 980.003 421.049C979.801 420.945 979.573 420.892 979.319 420.892C979.051 420.892 978.815 420.95 978.613 421.065C978.413 421.18 978.257 421.338 978.146 421.538C978.036 421.738 977.98 421.968 977.98 422.228H977.408C977.408 421.866 977.491 421.545 977.657 421.266C977.826 420.985 978.055 420.765 978.344 420.605C978.636 420.445 978.967 420.365 979.335 420.365C979.7 420.365 980.023 420.444 980.307 420.602C980.59 420.757 980.813 420.969 980.975 421.238C981.137 421.506 981.218 421.806 981.218 422.139C981.218 422.38 981.175 422.613 981.09 422.839C981.007 423.065 980.863 423.316 980.658 423.593C980.454 423.87 980.17 424.209 979.808 424.609L978.185 426.422V426.463H981.422V427H977.354ZM984.88 427.089C984.419 427.089 984.026 426.957 983.7 426.693C983.376 426.427 983.127 426.042 982.952 425.539C982.78 425.037 982.693 424.433 982.693 423.727C982.693 423.024 982.78 422.422 982.952 421.922C983.127 421.419 983.377 421.034 983.703 420.768C984.032 420.499 984.424 420.365 984.88 420.365C985.335 420.365 985.726 420.499 986.052 420.768C986.381 421.034 986.631 421.419 986.804 421.922C986.978 422.422 987.066 423.024 987.066 423.727C987.066 424.433 986.978 425.037 986.804 425.539C986.631 426.042 986.382 426.427 986.056 426.693C985.732 426.957 985.34 427.089 984.88 427.089ZM984.88 426.553C985.384 426.553 985.779 426.306 986.062 425.814C986.345 425.32 986.487 424.624 986.487 423.727C986.487 423.131 986.422 422.621 986.292 422.2C986.164 421.776 985.98 421.452 985.739 421.228C985.501 421.004 985.214 420.892 984.88 420.892C984.379 420.892 983.986 421.142 983.7 421.64C983.415 422.137 983.272 422.832 983.272 423.727C983.272 424.324 983.336 424.833 983.464 425.255C983.594 425.677 983.778 425.999 984.017 426.22C984.257 426.442 984.545 426.553 984.88 426.553ZM988.21 425.594V425.108L991.128 420.455H991.486V421.27H991.22L988.878 425.015V425.057H992.703V425.594H988.21ZM991.265 427V425.44V425.217V420.455H991.834V427H991.265ZM996.023 427.089C995.606 427.089 995.234 427.011 994.908 426.853C994.582 426.695 994.326 426.48 994.141 426.207C993.955 425.933 993.863 425.623 993.863 425.277C993.863 425.007 993.919 424.754 994.032 424.52C994.145 424.283 994.301 424.085 994.499 423.925C994.697 423.763 994.92 423.658 995.167 423.609V423.574C994.845 423.48 994.586 423.296 994.39 423.021C994.194 422.744 994.097 422.43 994.099 422.078C994.097 421.752 994.18 421.46 994.349 421.202C994.517 420.945 994.746 420.741 995.036 420.592C995.328 420.441 995.657 420.365 996.023 420.365C996.388 420.365 996.715 420.441 997.004 420.592C997.294 420.741 997.523 420.945 997.692 421.202C997.862 421.46 997.948 421.752 997.95 422.078C997.948 422.428 997.849 422.742 997.653 423.021C997.457 423.298 997.199 423.482 996.88 423.574V423.609C997.127 423.656 997.349 423.76 997.545 423.922C997.741 424.084 997.896 424.283 998.011 424.52C998.126 424.754 998.184 425.007 998.184 425.277C998.184 425.623 998.09 425.933 997.903 426.207C997.717 426.48 997.461 426.695 997.135 426.853C996.812 427.011 996.441 427.089 996.023 427.089ZM996.023 426.553C996.334 426.553 996.607 426.497 996.841 426.386C997.078 426.273 997.262 426.119 997.394 425.923C997.529 425.727 997.596 425.502 997.596 425.249C997.596 424.987 997.526 424.753 997.388 424.549C997.249 424.342 997.062 424.179 996.825 424.06C996.589 423.938 996.322 423.877 996.023 423.877C995.725 423.877 995.456 423.938 995.218 424.06C994.981 424.179 994.794 424.342 994.655 424.549C994.519 424.753 994.451 424.987 994.451 425.249C994.451 425.502 994.516 425.727 994.646 425.923C994.778 426.119 994.962 426.273 995.199 426.386C995.437 426.497 995.712 426.553 996.023 426.553ZM996.023 423.366C996.279 423.366 996.508 423.312 996.71 423.203C996.913 423.094 997.073 422.946 997.19 422.759C997.309 422.569 997.37 422.354 997.372 422.113C997.37 421.875 997.31 421.664 997.193 421.48C997.076 421.295 996.916 421.151 996.714 421.049C996.513 420.945 996.283 420.892 996.023 420.892C995.763 420.892 995.531 420.945 995.327 421.049C995.124 421.151 994.964 421.295 994.847 421.48C994.732 421.664 994.676 421.875 994.678 422.113C994.676 422.354 994.733 422.569 994.85 422.759C994.97 422.946 995.131 423.094 995.333 423.203C995.537 423.312 995.768 423.366 996.023 423.366ZM999.75 427.048C999.624 427.048 999.515 427.003 999.424 426.914C999.334 426.822 999.29 426.713 999.29 426.588C999.29 426.46 999.334 426.351 999.424 426.262C999.515 426.172 999.624 426.127 999.75 426.127C999.878 426.127 999.986 426.172 1000.08 426.262C1000.17 426.351 1000.21 426.46 1000.21 426.588C1000.21 426.671 1000.19 426.748 1000.15 426.818C1000.11 426.888 1000.05 426.945 999.98 426.987C999.912 427.028 999.835 427.048 999.75 427.048ZM1003.52 427.089C1003.15 427.089 1002.83 427.016 1002.54 426.869C1002.25 426.72 1002.03 426.515 1001.86 426.255C1001.69 425.995 1001.6 425.698 1001.59 425.364H1002.17C1002.18 425.711 1002.32 425.996 1002.57 426.22C1002.83 426.442 1003.14 426.553 1003.52 426.553C1003.81 426.553 1004.07 426.483 1004.3 426.345C1004.52 426.204 1004.7 426.012 1004.83 425.77C1004.96 425.525 1005.03 425.249 1005.03 424.942C1005.02 424.622 1004.95 424.341 1004.82 424.098C1004.68 423.853 1004.5 423.661 1004.26 423.523C1004.03 423.384 1003.77 423.315 1003.48 423.315C1003.26 423.313 1003.04 423.349 1002.83 423.424C1002.62 423.498 1002.45 423.594 1002.31 423.711L1001.71 423.635L1002.1 420.455H1005.34V420.991H1002.6L1002.34 423.181H1002.37C1002.52 423.059 1002.69 422.96 1002.9 422.884C1003.11 422.807 1003.33 422.768 1003.56 422.768C1003.95 422.768 1004.29 422.861 1004.6 423.047C1004.91 423.232 1005.15 423.488 1005.33 423.814C1005.51 424.137 1005.6 424.51 1005.6 424.932C1005.6 425.346 1005.51 425.715 1005.33 426.041C1005.15 426.365 1004.91 426.621 1004.59 426.808C1004.28 426.996 1003.92 427.089 1003.52 427.089ZM1006.96 427V426.562L1009.1 424.159C1009.38 423.843 1009.61 423.574 1009.78 423.35C1009.95 423.126 1010.07 422.92 1010.15 422.73C1010.23 422.54 1010.27 422.343 1010.27 422.139C1010.27 421.89 1010.21 421.672 1010.09 421.487C1009.97 421.299 1009.82 421.153 1009.61 421.049C1009.41 420.945 1009.18 420.892 1008.93 420.892C1008.66 420.892 1008.43 420.95 1008.22 421.065C1008.02 421.18 1007.87 421.338 1007.76 421.538C1007.65 421.738 1007.59 421.968 1007.59 422.228H1007.02C1007.02 421.866 1007.1 421.545 1007.27 421.266C1007.44 420.985 1007.67 420.765 1007.95 420.605C1008.25 420.445 1008.58 420.365 1008.95 420.365C1009.31 420.365 1009.63 420.444 1009.92 420.602C1010.2 420.757 1010.42 420.969 1010.59 421.238C1010.75 421.506 1010.83 421.806 1010.83 422.139C1010.83 422.38 1010.79 422.613 1010.7 422.839C1010.62 423.065 1010.47 423.316 1010.27 423.593C1010.06 423.87 1009.78 424.209 1009.42 424.609L1007.8 426.422V426.463H1011.03V427H1006.96Z" fill="white"/>
</svg>
