<svg width="168" height="27" viewBox="0 0 168 27" fill="none" xmlns="http://www.w3.org/2000/svg">
<path d="M3.66477 2.86364L0.852273 13.3125H0.353693L3.16619 2.86364H3.66477ZM7.67259 2.86364L4.86009 13.3125H4.36151L7.17401 2.86364H7.67259ZM12.4304 12V11.5952L15.2557 8.33949C15.6591 7.87358 15.9787 7.47869 16.2145 7.15483C16.4503 6.83097 16.6193 6.53835 16.7216 6.27699C16.8239 6.01562 16.875 5.7429 16.875 5.45881C16.875 5.10369 16.7912 4.78977 16.6236 4.51705C16.4588 4.24148 16.233 4.02699 15.946 3.87358C15.6619 3.72017 15.3381 3.64347 14.9744 3.64347C14.5938 3.64347 14.2599 3.72727 13.973 3.89489C13.6861 4.0625 13.4616 4.28977 13.2997 4.5767C13.1406 4.86364 13.0611 5.18608 13.0611 5.54403H12.5455C12.5455 5.09233 12.6506 4.68608 12.8608 4.32528C13.071 3.96449 13.3594 3.67898 13.7259 3.46875C14.0952 3.25852 14.5156 3.15341 14.9872 3.15341C15.4503 3.15341 15.8622 3.25426 16.223 3.45597C16.5838 3.65767 16.8679 3.93324 17.0753 4.28267C17.2827 4.62926 17.3864 5.02131 17.3864 5.45881C17.3864 5.77983 17.331 6.08949 17.2202 6.38778C17.1122 6.68324 16.9261 7.0142 16.6619 7.38068C16.3977 7.74432 16.0327 8.19318 15.5668 8.72727L13.1974 11.4588V11.5057H17.7784V12H12.4304ZM22.3871 12.1193C21.8047 12.1193 21.3047 11.9403 20.8871 11.5824C20.4695 11.2244 20.1484 10.7116 19.924 10.044C19.7024 9.37358 19.5916 8.57102 19.5916 7.63636C19.5916 6.70455 19.7038 5.90341 19.9283 5.23295C20.1527 4.5625 20.4723 4.0483 20.8871 3.69034C21.3047 3.33239 21.8047 3.15341 22.3871 3.15341C22.9695 3.15341 23.468 3.33239 23.8828 3.69034C24.3004 4.0483 24.6214 4.5625 24.8459 5.23295C25.0703 5.90341 25.1825 6.70455 25.1825 7.63636C25.1825 8.57102 25.0703 9.37358 24.8459 10.044C24.6243 10.7116 24.3047 11.2244 23.8871 11.5824C23.4695 11.9403 22.9695 12.1193 22.3871 12.1193ZM22.3871 11.625C23.0945 11.625 23.6499 11.2741 24.0533 10.5724C24.4567 9.8679 24.6584 8.8892 24.6584 7.63636C24.6584 6.80114 24.5661 6.08523 24.3814 5.48864C24.1996 4.89205 23.9396 4.43608 23.6016 4.12074C23.2635 3.80256 22.8587 3.64347 22.3871 3.64347C21.6797 3.64347 21.1243 3.99574 20.7209 4.70028C20.3175 5.40483 20.1158 6.38352 20.1158 7.63636C20.1158 8.47159 20.2067 9.1875 20.3885 9.78409C20.5703 10.3778 20.8303 10.8338 21.1683 11.152C21.5092 11.4673 21.9155 11.625 22.3871 11.625ZM27.0437 12V11.5952L29.869 8.33949C30.2724 7.87358 30.592 7.47869 30.8278 7.15483C31.0636 6.83097 31.2326 6.53835 31.3349 6.27699C31.4371 6.01562 31.4883 5.7429 31.4883 5.45881C31.4883 5.10369 31.4045 4.78977 31.2369 4.51705C31.0721 4.24148 30.8462 4.02699 30.5593 3.87358C30.2752 3.72017 29.9513 3.64347 29.5877 3.64347C29.207 3.64347 28.8732 3.72727 28.5863 3.89489C28.2994 4.0625 28.0749 4.28977 27.913 4.5767C27.7539 4.86364 27.6744 5.18608 27.6744 5.54403H27.1587C27.1587 5.09233 27.2638 4.68608 27.4741 4.32528C27.6843 3.96449 27.9727 3.67898 28.3391 3.46875C28.7085 3.25852 29.1289 3.15341 29.6005 3.15341C30.0636 3.15341 30.4755 3.25426 30.8363 3.45597C31.1971 3.65767 31.4812 3.93324 31.6886 4.28267C31.896 4.62926 31.9996 5.02131 31.9996 5.45881C31.9996 5.77983 31.9442 6.08949 31.8335 6.38778C31.7255 6.68324 31.5394 7.0142 31.2752 7.38068C31.011 7.74432 30.646 8.19318 30.18 8.72727L27.8107 11.4588V11.5057H32.3917V12H27.0437ZM37.1495 12.1193C36.6325 12.1193 36.1708 12.0213 35.7646 11.8253C35.3583 11.6264 35.0359 11.3551 34.7972 11.0114C34.5614 10.6648 34.4393 10.267 34.4308 9.81818H34.9719C34.9805 10.1733 35.0813 10.4872 35.2745 10.7599C35.4677 11.0298 35.7262 11.2415 36.0501 11.3949C36.3768 11.5483 36.7404 11.625 37.141 11.625C37.5756 11.625 37.9563 11.5398 38.283 11.3693C38.6126 11.1989 38.8697 10.9687 39.0543 10.679C39.239 10.3864 39.3313 10.0597 39.3313 9.69886C39.3313 9.3125 39.2305 8.97443 39.0288 8.68466C38.8271 8.39205 38.5458 8.16477 38.185 8.00284C37.8242 7.83807 37.4052 7.75568 36.9279 7.75568H36.604V7.26136H36.9279C37.3342 7.26136 37.6978 7.1875 38.0188 7.03977C38.3398 6.8892 38.5927 6.67756 38.7773 6.40483C38.9648 6.1321 39.0586 5.80966 39.0586 5.4375C39.0586 5.08807 38.9776 4.77841 38.8157 4.50852C38.6538 4.23864 38.4293 4.02699 38.1424 3.87358C37.8583 3.72017 37.5245 3.64347 37.141 3.64347C36.7717 3.64347 36.4364 3.71875 36.1353 3.86932C35.837 4.01989 35.5998 4.23153 35.4237 4.50426C35.2475 4.77699 35.158 5.09375 35.1552 5.45455H34.631C34.6367 5.00284 34.7504 4.60369 34.9719 4.2571C35.1964 3.91051 35.4961 3.64062 35.8711 3.44744C36.2489 3.25142 36.6751 3.15341 37.1495 3.15341C37.6325 3.15341 38.0558 3.25426 38.4194 3.45597C38.7859 3.65767 39.07 3.9304 39.2717 4.27415C39.4762 4.6179 39.5785 5 39.5785 5.42045C39.5785 5.92614 39.4379 6.35937 39.1566 6.72017C38.8782 7.07812 38.5004 7.3267 38.0231 7.46591V7.51278C38.5884 7.63778 39.0359 7.89489 39.3654 8.28409C39.695 8.6733 39.8597 9.14489 39.8597 9.69886C39.8597 10.1534 39.7433 10.5639 39.5103 10.9304C39.2773 11.2969 38.9563 11.5866 38.5472 11.7997C38.141 12.0128 37.6751 12.1193 37.1495 12.1193ZM45.2376 7.3892V7.88352H41.7944V7.3892H45.2376ZM49.5533 3.27273V12H49.0206V3.83523H48.9695L47.0092 5.13494V4.56392L48.9524 3.27273H49.5533ZM52.3562 12V11.5952L55.1815 8.33949C55.5849 7.87358 55.9045 7.47869 56.1403 7.15483C56.3761 6.83097 56.5451 6.53835 56.6474 6.27699C56.7496 6.01562 56.8008 5.7429 56.8008 5.45881C56.8008 5.10369 56.717 4.78977 56.5494 4.51705C56.3846 4.24148 56.1587 4.02699 55.8718 3.87358C55.5877 3.72017 55.2638 3.64347 54.9002 3.64347C54.5195 3.64347 54.1857 3.72727 53.8988 3.89489C53.6119 4.0625 53.3874 4.28977 53.2255 4.5767C53.0664 4.86364 52.9869 5.18608 52.9869 5.54403H52.4712C52.4712 5.09233 52.5763 4.68608 52.7866 4.32528C52.9968 3.96449 53.2852 3.67898 53.6516 3.46875C54.021 3.25852 54.4414 3.15341 54.913 3.15341C55.3761 3.15341 55.788 3.25426 56.1488 3.45597C56.5096 3.65767 56.7937 3.93324 57.0011 4.28267C57.2085 4.62926 57.3121 5.02131 57.3121 5.45881C57.3121 5.77983 57.2567 6.08949 57.146 6.38778C57.038 6.68324 56.8519 7.0142 56.5877 7.38068C56.3235 7.74432 55.9585 8.19318 55.4925 8.72727L53.1232 11.4588V11.5057H57.7042V12H52.3562ZM63.0969 7.3892V7.88352H59.6538V7.3892H63.0969ZM67.6683 12.1193C67.0859 12.1193 66.5859 11.9403 66.1683 11.5824C65.7507 11.2244 65.4297 10.7116 65.2053 10.044C64.9837 9.37358 64.8729 8.57102 64.8729 7.63636C64.8729 6.70455 64.9851 5.90341 65.2095 5.23295C65.4339 4.5625 65.7536 4.0483 66.1683 3.69034C66.5859 3.33239 67.0859 3.15341 67.6683 3.15341C68.2507 3.15341 68.7493 3.33239 69.1641 3.69034C69.5817 4.0483 69.9027 4.5625 70.1271 5.23295C70.3516 5.90341 70.4638 6.70455 70.4638 7.63636C70.4638 8.57102 70.3516 9.37358 70.1271 10.044C69.9055 10.7116 69.5859 11.2244 69.1683 11.5824C68.7507 11.9403 68.2507 12.1193 67.6683 12.1193ZM67.6683 11.625C68.3757 11.625 68.9311 11.2741 69.3345 10.5724C69.7379 9.8679 69.9396 8.8892 69.9396 7.63636C69.9396 6.80114 69.8473 6.08523 69.6626 5.48864C69.4808 4.89205 69.2209 4.43608 68.8828 4.12074C68.5447 3.80256 68.1399 3.64347 67.6683 3.64347C66.9609 3.64347 66.4055 3.99574 66.0021 4.70028C65.5987 5.40483 65.397 6.38352 65.397 7.63636C65.397 8.47159 65.4879 9.1875 65.6697 9.78409C65.8516 10.3778 66.1115 10.8338 66.4496 11.152C66.7905 11.4673 67.1967 11.625 67.6683 11.625ZM75.0479 12.1193C74.5309 12.1193 74.0692 12.0213 73.663 11.8253C73.2567 11.6264 72.9343 11.3551 72.6957 11.0114C72.4599 10.6648 72.3377 10.267 72.3292 9.81818H72.8704C72.8789 10.1733 72.9798 10.4872 73.1729 10.7599C73.3661 11.0298 73.6246 11.2415 73.9485 11.3949C74.2752 11.5483 74.6388 11.625 75.0394 11.625C75.4741 11.625 75.8548 11.5398 76.1815 11.3693C76.511 11.1989 76.7681 10.9687 76.9528 10.679C77.1374 10.3864 77.2298 10.0597 77.2298 9.69886C77.2298 9.3125 77.1289 8.97443 76.9272 8.68466C76.7255 8.39205 76.4442 8.16477 76.0835 8.00284C75.7227 7.83807 75.3036 7.75568 74.8263 7.75568H74.5025V7.26136H74.8263C75.2326 7.26136 75.5962 7.1875 75.9173 7.03977C76.2383 6.8892 76.4911 6.67756 76.6758 6.40483C76.8633 6.1321 76.957 5.80966 76.957 5.4375C76.957 5.08807 76.8761 4.77841 76.7141 4.50852C76.5522 4.23864 76.3278 4.02699 76.0408 3.87358C75.7567 3.72017 75.4229 3.64347 75.0394 3.64347C74.6701 3.64347 74.3349 3.71875 74.0337 3.86932C73.7354 4.01989 73.4982 4.23153 73.3221 4.50426C73.146 4.77699 73.0565 5.09375 73.0536 5.45455H72.5295C72.5352 5.00284 72.6488 4.60369 72.8704 4.2571C73.0948 3.91051 73.3945 3.64062 73.7695 3.44744C74.1474 3.25142 74.5735 3.15341 75.0479 3.15341C75.5309 3.15341 75.9542 3.25426 76.3178 3.45597C76.6843 3.65767 76.9684 3.9304 77.1701 4.27415C77.3746 4.6179 77.4769 5 77.4769 5.42045C77.4769 5.92614 77.3363 6.35937 77.055 6.72017C76.7766 7.07812 76.3988 7.3267 75.9215 7.46591V7.51278C76.4869 7.63778 76.9343 7.89489 77.2638 8.28409C77.5934 8.6733 77.7582 9.14489 77.7582 9.69886C77.7582 10.1534 77.6417 10.5639 77.4087 10.9304C77.1758 11.2969 76.8548 11.5866 76.4457 11.7997C76.0394 12.0128 75.5735 12.1193 75.0479 12.1193ZM79.4201 3.76705V3.27273H85.5352V3.76705H82.744V12H82.2113V3.76705H79.4201ZM89.5728 3.27273V12H89.0401V3.83523H88.989L87.0288 5.13494V4.56392L88.9719 3.27273H89.5728ZM92.6016 12L96.6541 3.81392V3.76705H91.9964V3.27273H97.2337V3.78409L93.1768 12H92.6016ZM99.146 10.4957C99.0181 10.4957 98.9087 10.4517 98.8178 10.3636C98.7298 10.2727 98.6857 10.1634 98.6857 10.0355C98.6857 9.91051 98.7298 9.80256 98.8178 9.71165C98.9087 9.62074 99.0181 9.57528 99.146 9.57528C99.271 9.57528 99.3789 9.62074 99.4698 9.71165C99.5607 9.80256 99.6062 9.91051 99.6062 10.0355C99.6062 10.1207 99.5849 10.1989 99.5423 10.2699C99.5025 10.3381 99.4471 10.3935 99.3761 10.4361C99.3079 10.4759 99.2312 10.4957 99.146 10.4957ZM99.146 6.05966C99.0181 6.05966 98.9087 6.0142 98.8178 5.9233C98.7298 5.83239 98.6857 5.72443 98.6857 5.59943C98.6857 5.47443 98.7298 5.36648 98.8178 5.27557C98.9087 5.18466 99.0181 5.1392 99.146 5.1392C99.271 5.1392 99.3789 5.18466 99.4698 5.27557C99.5607 5.36648 99.6062 5.47443 99.6062 5.59943C99.6062 5.68466 99.5849 5.76278 99.5423 5.83381C99.5025 5.90199 99.4471 5.95739 99.3761 6C99.3079 6.03977 99.2312 6.05966 99.146 6.05966ZM101.751 12V11.5952L104.576 8.33949C104.979 7.87358 105.299 7.47869 105.535 7.15483C105.771 6.83097 105.94 6.53835 106.042 6.27699C106.144 6.01562 106.195 5.7429 106.195 5.45881C106.195 5.10369 106.112 4.78977 105.944 4.51705C105.779 4.24148 105.553 4.02699 105.266 3.87358C104.982 3.72017 104.658 3.64347 104.295 3.64347C103.914 3.64347 103.58 3.72727 103.293 3.89489C103.006 4.0625 102.782 4.28977 102.62 4.5767C102.461 4.86364 102.381 5.18608 102.381 5.54403H101.866C101.866 5.09233 101.971 4.68608 102.181 4.32528C102.391 3.96449 102.68 3.67898 103.046 3.46875C103.415 3.25852 103.836 3.15341 104.308 3.15341C104.771 3.15341 105.183 3.25426 105.543 3.45597C105.904 3.65767 106.188 3.93324 106.396 4.28267C106.603 4.62926 106.707 5.02131 106.707 5.45881C106.707 5.77983 106.651 6.08949 106.54 6.38778C106.433 6.68324 106.246 7.0142 105.982 7.38068C105.718 7.74432 105.353 8.19318 104.887 8.72727L102.518 11.4588V11.5057H107.099V12H101.751ZM111.507 12.1193C111.041 12.1193 110.625 12.0213 110.259 11.8253C109.895 11.6264 109.607 11.3537 109.393 11.0071C109.183 10.6605 109.075 10.2642 109.07 9.81818H109.594C109.605 10.3466 109.788 10.7798 110.143 11.1179C110.499 11.456 110.953 11.625 111.507 11.625C111.933 11.625 112.308 11.5227 112.632 11.3182C112.959 11.1108 113.214 10.8295 113.399 10.4744C113.584 10.1193 113.675 9.71875 113.672 9.27273C113.672 8.80114 113.572 8.3892 113.374 8.03693C113.175 7.68466 112.909 7.41193 112.577 7.21875C112.244 7.02557 111.876 6.92756 111.473 6.92472C111.155 6.92472 110.857 6.98295 110.578 7.09943C110.3 7.21307 110.063 7.35937 109.866 7.53835L109.266 7.45312L109.781 3.27273H113.872V3.76705H110.237L109.837 7.03551H109.879C110.084 6.85369 110.327 6.70739 110.608 6.59659C110.892 6.48295 111.2 6.42614 111.533 6.42614C112.021 6.42614 112.467 6.54545 112.871 6.78409C113.277 7.02273 113.599 7.35511 113.838 7.78125C114.08 8.20739 114.199 8.70312 114.196 9.26847C114.193 9.81392 114.077 10.3011 113.847 10.7301C113.616 11.1591 113.298 11.4986 112.892 11.7486C112.489 11.9957 112.027 12.1193 111.507 12.1193ZM116.654 10.4957C116.526 10.4957 116.417 10.4517 116.326 10.3636C116.238 10.2727 116.194 10.1634 116.194 10.0355C116.194 9.91051 116.238 9.80256 116.326 9.71165C116.417 9.62074 116.526 9.57528 116.654 9.57528C116.779 9.57528 116.887 9.62074 116.978 9.71165C117.069 9.80256 117.114 9.91051 117.114 10.0355C117.114 10.1207 117.093 10.1989 117.05 10.2699C117.01 10.3381 116.955 10.3935 116.884 10.4361C116.816 10.4759 116.739 10.4957 116.654 10.4957ZM116.654 6.05966C116.526 6.05966 116.417 6.0142 116.326 5.9233C116.238 5.83239 116.194 5.72443 116.194 5.59943C116.194 5.47443 116.238 5.36648 116.326 5.27557C116.417 5.18466 116.526 5.1392 116.654 5.1392C116.779 5.1392 116.887 5.18466 116.978 5.27557C117.069 5.36648 117.114 5.47443 117.114 5.59943C117.114 5.68466 117.093 5.76278 117.05 5.83381C117.01 5.90199 116.955 5.95739 116.884 6C116.816 6.03977 116.739 6.05966 116.654 6.05966ZM119.041 10.0398V9.61364L122.991 3.27273H123.315V4.09517H123.038L119.685 9.49858V9.54545H124.726V10.0398H119.041ZM123.081 12V9.89489V9.70312V3.27273H123.601V12H123.081ZM128.784 3.27273V12H128.251V3.83523H128.2L126.24 5.13494V4.56392L128.183 3.27273H128.784ZM134.161 10.2273V5.05824H134.659V10.2273H134.161ZM131.825 7.89205V7.39347H136.994V7.89205H131.825ZM141.883 12.1193C141.301 12.1193 140.801 11.9403 140.383 11.5824C139.966 11.2244 139.645 10.7116 139.42 10.044C139.199 9.37358 139.088 8.57102 139.088 7.63636C139.088 6.70455 139.2 5.90341 139.424 5.23295C139.649 4.5625 139.968 4.0483 140.383 3.69034C140.801 3.33239 141.301 3.15341 141.883 3.15341C142.466 3.15341 142.964 3.33239 143.379 3.69034C143.797 4.0483 144.118 4.5625 144.342 5.23295C144.566 5.90341 144.679 6.70455 144.679 7.63636C144.679 8.57102 144.566 9.37358 144.342 10.044C144.12 10.7116 143.801 11.2244 143.383 11.5824C142.966 11.9403 142.466 12.1193 141.883 12.1193ZM141.883 11.625C142.591 11.625 143.146 11.2741 143.549 10.5724C143.953 9.8679 144.154 8.8892 144.154 7.63636C144.154 6.80114 144.062 6.08523 143.877 5.48864C143.696 4.89205 143.436 4.43608 143.098 4.12074C142.76 3.80256 142.355 3.64347 141.883 3.64347C141.176 3.64347 140.62 3.99574 140.217 4.70028C139.814 5.40483 139.612 6.38352 139.612 7.63636C139.612 8.47159 139.703 9.1875 139.885 9.78409C140.066 10.3778 140.326 10.8338 140.664 11.152C141.005 11.4673 141.412 11.625 141.883 11.625ZM149.114 12.1193C148.531 12.1193 148.031 11.9403 147.614 11.5824C147.196 11.2244 146.875 10.7116 146.651 10.044C146.429 9.37358 146.318 8.57102 146.318 7.63636C146.318 6.70455 146.43 5.90341 146.655 5.23295C146.879 4.5625 147.199 4.0483 147.614 3.69034C148.031 3.33239 148.531 3.15341 149.114 3.15341C149.696 3.15341 150.195 3.33239 150.609 3.69034C151.027 4.0483 151.348 4.5625 151.572 5.23295C151.797 5.90341 151.909 6.70455 151.909 7.63636C151.909 8.57102 151.797 9.37358 151.572 10.044C151.351 10.7116 151.031 11.2244 150.614 11.5824C150.196 11.9403 149.696 12.1193 149.114 12.1193ZM149.114 11.625C149.821 11.625 150.376 11.2741 150.78 10.5724C151.183 9.8679 151.385 8.8892 151.385 7.63636C151.385 6.80114 151.293 6.08523 151.108 5.48864C150.926 4.89205 150.666 4.43608 150.328 4.12074C149.99 3.80256 149.585 3.64347 149.114 3.64347C148.406 3.64347 147.851 3.99574 147.447 4.70028C147.044 5.40483 146.842 6.38352 146.842 7.63636C146.842 8.47159 146.933 9.1875 147.115 9.78409C147.297 10.3778 147.557 10.8338 147.895 11.152C148.236 11.4673 148.642 11.625 149.114 11.625ZM156.344 12.1193C155.762 12.1193 155.262 11.9403 154.844 11.5824C154.426 11.2244 154.105 10.7116 153.881 10.044C153.659 9.37358 153.549 8.57102 153.549 7.63636C153.549 6.70455 153.661 5.90341 153.885 5.23295C154.11 4.5625 154.429 4.0483 154.844 3.69034C155.262 3.33239 155.762 3.15341 156.344 3.15341C156.926 3.15341 157.425 3.33239 157.84 3.69034C158.257 4.0483 158.578 4.5625 158.803 5.23295C159.027 5.90341 159.14 6.70455 159.14 7.63636C159.14 8.57102 159.027 9.37358 158.803 10.044C158.581 10.7116 158.262 11.2244 157.844 11.5824C157.426 11.9403 156.926 12.1193 156.344 12.1193ZM156.344 11.625C157.051 11.625 157.607 11.2741 158.01 10.5724C158.414 9.8679 158.615 8.8892 158.615 7.63636C158.615 6.80114 158.523 6.08523 158.338 5.48864C158.157 4.89205 157.897 4.43608 157.559 4.12074C157.221 3.80256 156.816 3.64347 156.344 3.64347C155.637 3.64347 155.081 3.99574 154.678 4.70028C154.275 5.40483 154.073 6.38352 154.073 7.63636C154.073 8.47159 154.164 9.1875 154.346 9.78409C154.527 10.3778 154.787 10.8338 155.125 11.152C155.466 11.4673 155.873 11.625 156.344 11.625ZM163.575 12.1193C162.992 12.1193 162.492 11.9403 162.075 11.5824C161.657 11.2244 161.336 10.7116 161.112 10.044C160.89 9.37358 160.779 8.57102 160.779 7.63636C160.779 6.70455 160.891 5.90341 161.116 5.23295C161.34 4.5625 161.66 4.0483 162.075 3.69034C162.492 3.33239 162.992 3.15341 163.575 3.15341C164.157 3.15341 164.656 3.33239 165.07 3.69034C165.488 4.0483 165.809 4.5625 166.033 5.23295C166.258 5.90341 166.37 6.70455 166.37 7.63636C166.37 8.57102 166.258 9.37358 166.033 10.044C165.812 10.7116 165.492 11.2244 165.075 11.5824C164.657 11.9403 164.157 12.1193 163.575 12.1193ZM163.575 11.625C164.282 11.625 164.837 11.2741 165.241 10.5724C165.644 9.8679 165.846 8.8892 165.846 7.63636C165.846 6.80114 165.754 6.08523 165.569 5.48864C165.387 4.89205 165.127 4.43608 164.789 4.12074C164.451 3.80256 164.046 3.64347 163.575 3.64347C162.867 3.64347 162.312 3.99574 161.908 4.70028C161.505 5.40483 161.303 6.38352 161.303 7.63636C161.303 8.47159 161.394 9.1875 161.576 9.78409C161.758 10.3778 162.018 10.8338 162.356 11.152C162.697 11.4673 163.103 11.625 163.575 11.625Z" fill="#D9D9D9"/>
<line x1="118.646" y1="26.6464" x2="125.718" y2="19.5754" stroke="#D9D9D9"/>
<line x1="132.717" y1="26.4246" x2="125.646" y2="19.3536" stroke="#D9D9D9"/>
</svg>
