<svg width="35" height="738" viewBox="0 0 35 738" fill="none" xmlns="http://www.w3.org/2000/svg">
<path d="M12.2727 424.015V421.403L17.6761 419.187V419.085L12.2727 416.869V414.257H21V416.311H15.6392V416.383L20.9446 418.48V419.792L15.6094 421.889V421.961H21V424.015H12.2727ZM21.1236 409.886C21.1236 410.573 20.983 411.164 20.7017 411.658C20.4176 412.15 20.0227 412.529 19.517 412.796C19.0085 413.06 18.419 413.192 17.7486 413.192C17.0753 413.192 16.4858 413.06 15.9801 412.796C15.4716 412.529 15.0767 412.15 14.7955 411.658C14.5114 411.164 14.3693 410.573 14.3693 409.886C14.3693 409.198 14.5114 408.609 14.7955 408.117C15.0767 407.623 15.4716 407.244 15.9801 406.979C16.4858 406.712 17.0753 406.579 17.7486 406.579C18.419 406.579 19.0085 406.712 19.517 406.979C20.0227 407.244 20.4176 407.623 20.7017 408.117C20.983 408.609 21.1236 409.198 21.1236 409.886ZM19.5511 409.873C19.5511 409.623 19.4744 409.411 19.321 409.238C19.1676 409.065 18.9545 408.933 18.6818 408.842C18.4091 408.748 18.0937 408.701 17.7358 408.701C17.3722 408.701 17.054 408.748 16.7812 408.842C16.5085 408.933 16.2955 409.065 16.142 409.238C15.9886 409.411 15.9119 409.623 15.9119 409.873C15.9119 410.131 15.9886 410.35 16.142 410.529C16.2955 410.705 16.5085 410.84 16.7812 410.934C17.054 411.025 17.3722 411.07 17.7358 411.07C18.0937 411.07 18.4091 411.025 18.6818 410.934C18.9545 410.84 19.1676 410.705 19.321 410.529C19.4744 410.35 19.5511 410.131 19.5511 409.873ZM21 405.511H14.4545V403.487H15.6477V403.419C15.2159 403.3 14.8949 403.105 14.6847 402.835C14.4716 402.565 14.3651 402.251 14.3651 401.893C14.3651 401.797 14.3722 401.697 14.3864 401.595C14.3977 401.493 14.4162 401.398 14.4418 401.31H16.2528C16.2187 401.409 16.1918 401.54 16.1719 401.702C16.152 401.861 16.142 402.003 16.142 402.128C16.142 402.375 16.1974 402.598 16.3082 402.797C16.4162 402.993 16.5682 403.148 16.7642 403.261C16.9574 403.372 17.1847 403.428 17.446 403.428H21V405.511ZM21.1236 397.741C21.1236 398.425 20.9886 399.016 20.7188 399.513C20.446 400.008 20.0582 400.388 19.5554 400.656C19.0497 400.92 18.4489 401.052 17.7528 401.052C17.0767 401.052 16.4858 400.918 15.9801 400.651C15.4716 400.384 15.0767 400.008 14.7955 399.522C14.5114 399.036 14.3693 398.464 14.3693 397.805C14.3693 397.339 14.4418 396.913 14.5866 396.526C14.7315 396.14 14.946 395.806 15.2301 395.525C15.5142 395.244 15.8651 395.025 16.2827 394.869C16.6974 394.712 17.1733 394.634 17.7102 394.634H18.2301L18.2301 400.323H17.0199V396.573C16.7983 396.576 16.6009 396.629 16.4276 396.731C16.2543 396.833 16.1193 396.974 16.0227 397.153C15.9233 397.329 15.8736 397.532 15.8736 397.762C15.8736 397.995 15.9261 398.204 16.0313 398.388C16.1335 398.573 16.2741 398.719 16.4531 398.827C16.6293 398.935 16.8295 398.992 17.054 398.998H18.2855C18.5526 398.998 18.7869 398.945 18.9886 398.84C19.1875 398.735 19.3423 398.586 19.4531 398.393C19.5639 398.2 19.6193 397.969 19.6193 397.702C19.6193 397.518 19.5937 397.35 19.5426 397.2C19.4915 397.049 19.4162 396.92 19.3168 396.812C19.2173 396.704 19.0952 396.623 18.9503 396.569L19.0057 394.656C19.4347 394.735 19.8082 394.91 20.1264 395.18C20.4418 395.447 20.6875 395.798 20.8636 396.232C21.0369 396.667 21.1236 397.17 21.1236 397.741ZM21.0938 391.179C21.0938 391.662 20.9688 392.101 20.7188 392.496C20.4688 392.891 20.0938 393.206 19.5938 393.442C19.0938 393.678 18.473 393.796 17.7315 393.796C16.9616 393.796 16.3281 393.674 15.831 393.429C15.3338 393.185 14.9659 392.865 14.7273 392.471C14.4886 392.073 14.3693 391.645 14.3693 391.188C14.3693 390.844 14.429 390.55 14.5483 390.306C14.6648 390.061 14.8153 389.86 15 389.701C15.1847 389.542 15.3764 389.421 15.5753 389.338V389.296H12.2727V387.212H21V389.275H19.9389V389.338C20.1406 389.426 20.3295 389.551 20.5057 389.713C20.6818 389.875 20.8239 390.078 20.9318 390.323C21.0398 390.564 21.0938 390.85 21.0938 391.179ZM19.4702 390.455C19.4702 390.202 19.3991 389.986 19.2571 389.807C19.1122 389.628 18.9091 389.49 18.6477 389.394C18.3864 389.297 18.0795 389.249 17.7273 389.249C17.3693 389.249 17.0611 389.297 16.8026 389.394C16.544 389.488 16.3452 389.625 16.206 389.807C16.0668 389.986 15.9972 390.202 15.9972 390.455C15.9972 390.713 16.0682 390.932 16.2102 391.111C16.3523 391.29 16.5526 391.426 16.8111 391.52C17.0696 391.611 17.375 391.657 17.7273 391.657C18.0795 391.657 18.3864 391.61 18.6477 391.516C18.9091 391.422 19.1122 391.287 19.2571 391.111C19.3991 390.932 19.4702 390.713 19.4702 390.455ZM21.1108 384.049C21.1108 384.467 21.0412 384.837 20.902 385.161C20.7599 385.482 20.5469 385.737 20.2628 385.924C19.9759 386.109 19.6165 386.201 19.1847 386.201C18.821 386.201 18.5142 386.137 18.2642 386.009C18.0142 385.881 17.8111 385.705 17.6548 385.481C17.4986 385.256 17.3807 384.998 17.3011 384.705C17.2187 384.413 17.1634 384.1 17.1349 383.768C17.1009 383.396 17.0653 383.096 17.0284 382.869C16.9886 382.641 16.9332 382.477 16.8622 382.374C16.7884 382.269 16.6847 382.217 16.5511 382.217H16.5298C16.3111 382.217 16.142 382.292 16.0227 382.442C15.9034 382.593 15.8438 382.796 15.8438 383.052C15.8438 383.327 15.9034 383.549 16.0227 383.717C16.142 383.884 16.3068 383.991 16.517 384.036L16.4489 385.958C16.0511 385.901 15.696 385.755 15.3835 385.519C15.0682 385.281 14.821 384.954 14.642 384.539C14.4602 384.121 14.3693 383.62 14.3693 383.035C14.3693 382.617 14.419 382.232 14.5185 381.88C14.6151 381.528 14.7571 381.221 14.9446 380.96C15.1293 380.698 15.3565 380.496 15.6264 380.354C15.8963 380.21 16.2045 380.137 16.5511 380.137H21V382.097H20.0881V382.148C20.3097 382.265 20.4972 382.414 20.6506 382.596C20.804 382.775 20.919 382.987 20.9957 383.231C21.0724 383.472 21.1108 383.745 21.1108 384.049ZM19.7472 383.406C19.7472 383.181 19.7017 382.979 19.6108 382.8C19.5199 382.619 19.3949 382.474 19.2358 382.366C19.0739 382.258 18.8864 382.204 18.6733 382.204H18.0511C18.0824 382.263 18.1108 382.336 18.1364 382.421C18.1619 382.504 18.1861 382.594 18.2088 382.694C18.2315 382.793 18.2514 382.896 18.2685 383.001C18.2855 383.106 18.3011 383.207 18.3153 383.303C18.3466 383.499 18.3949 383.667 18.4602 383.806C18.5256 383.942 18.6108 384.048 18.7159 384.121C18.8182 384.192 18.9403 384.228 19.0824 384.228C19.2983 384.228 19.4631 384.151 19.5767 383.998C19.6903 383.842 19.7472 383.644 19.7472 383.406ZM15.4347 368.363V370.494C15.2159 370.522 15.0185 370.58 14.8423 370.668C14.6662 370.756 14.5156 370.873 14.3906 371.018C14.2656 371.163 14.1705 371.335 14.1051 371.533C14.0369 371.729 14.0028 371.947 14.0028 372.185C14.0028 372.609 14.1065 372.974 14.3139 373.281C14.5213 373.585 14.821 373.819 15.2131 373.984C15.6051 374.146 16.0795 374.227 16.6364 374.227C17.2159 374.227 17.7017 374.144 18.0938 373.979C18.483 373.812 18.777 373.577 18.9759 373.276C19.1719 372.972 19.2699 372.613 19.2699 372.198C19.2699 371.965 19.2401 371.754 19.1804 371.563C19.1207 371.37 19.0341 371.201 18.9205 371.056C18.804 370.908 18.6634 370.788 18.4986 370.694C18.331 370.597 18.142 370.531 17.9318 370.494L17.9446 368.363C18.331 368.4 18.7116 368.512 19.0866 368.7C19.4616 368.884 19.804 369.138 20.1136 369.462C20.4205 369.786 20.6648 370.181 20.8466 370.647C21.0284 371.11 21.1193 371.641 21.1193 372.241C21.1193 373.031 20.946 373.738 20.5994 374.363C20.25 374.985 19.7415 375.477 19.0739 375.837C18.4062 376.198 17.5937 376.379 16.6364 376.379C15.6761 376.379 14.8622 376.195 14.1946 375.829C13.527 375.462 13.0199 374.967 12.6733 374.342C12.3267 373.717 12.1534 373.016 12.1534 372.241C12.1534 371.712 12.2273 371.224 12.375 370.775C12.5199 370.326 12.733 369.931 13.0142 369.59C13.2926 369.249 13.6349 368.972 14.0412 368.759C14.4474 368.546 14.9119 368.414 15.4347 368.363ZM12.2727 365.072H21V367.156H12.2727V365.072ZM21.1236 360.69C21.1236 361.378 20.983 361.969 20.7017 362.463C20.4176 362.955 20.0227 363.334 19.517 363.601C19.0085 363.865 18.419 363.997 17.7486 363.997C17.0753 363.997 16.4858 363.865 15.9801 363.601C15.4716 363.334 15.0767 362.955 14.7955 362.463C14.5114 361.969 14.3693 361.378 14.3693 360.69C14.3693 360.003 14.5114 359.413 14.7955 358.922C15.0767 358.428 15.4716 358.048 15.9801 357.784C16.4858 357.517 17.0753 357.384 17.7486 357.384C18.419 357.384 19.0085 357.517 19.517 357.784C20.0227 358.048 20.4176 358.428 20.7017 358.922C20.983 359.413 21.1236 360.003 21.1236 360.69ZM19.5511 360.678C19.5511 360.428 19.4744 360.216 19.321 360.043C19.1676 359.869 18.9545 359.737 18.6818 359.646C18.4091 359.553 18.0937 359.506 17.7358 359.506C17.3722 359.506 17.054 359.553 16.7813 359.646C16.5085 359.737 16.2955 359.869 16.142 360.043C15.9886 360.216 15.9119 360.428 15.9119 360.678C15.9119 360.936 15.9886 361.155 16.142 361.334C16.2955 361.51 16.5085 361.645 16.7813 361.739C17.054 361.83 17.3722 361.875 17.7358 361.875C18.0937 361.875 18.4091 361.83 18.6818 361.739C18.9545 361.645 19.1676 361.51 19.321 361.334C19.4744 361.155 19.5511 360.936 19.5511 360.678ZM18.1747 352.093H14.4545V350.013H21V351.999H19.7813V352.067C20.1818 352.212 20.5 352.46 20.7358 352.809C20.9687 353.156 21.0852 353.575 21.0852 354.066C21.0852 354.512 20.983 354.904 20.7784 355.242C20.5739 355.58 20.2884 355.843 19.9219 356.031C19.5526 356.218 19.1207 356.313 18.6264 356.316H14.4545V354.232H18.2173C18.5724 354.229 18.8523 354.136 19.0568 353.951C19.2614 353.766 19.3636 353.515 19.3636 353.197C19.3636 352.989 19.3182 352.803 19.2273 352.638C19.1335 352.471 18.9986 352.339 18.8224 352.242C18.6435 352.143 18.4276 352.093 18.1747 352.093ZM21.0938 346.297C21.0938 346.779 20.9688 347.218 20.7188 347.613C20.4688 348.008 20.0938 348.324 19.5938 348.559C19.0938 348.795 18.473 348.913 17.7315 348.913C16.9616 348.913 16.3281 348.791 15.831 348.547C15.3338 348.302 14.9659 347.983 14.7273 347.588C14.4886 347.19 14.3693 346.762 14.3693 346.305C14.3693 345.961 14.429 345.667 14.5483 345.423C14.6648 345.179 14.8153 344.977 15 344.818C15.1847 344.659 15.3764 344.538 15.5753 344.456V344.413H12.2727V342.329H21V344.392H19.9389V344.456C20.1406 344.544 20.3295 344.669 20.5057 344.831C20.6818 344.993 20.8239 345.196 20.9318 345.44C21.0398 345.681 21.0938 345.967 21.0938 346.297ZM19.4702 345.572C19.4702 345.319 19.3991 345.103 19.2571 344.924C19.1122 344.745 18.9091 344.608 18.6477 344.511C18.3864 344.414 18.0795 344.366 17.7273 344.366C17.3693 344.366 17.0611 344.414 16.8026 344.511C16.544 344.605 16.3452 344.743 16.206 344.924C16.0668 345.103 15.9972 345.319 15.9972 345.572C15.9972 345.831 16.0682 346.049 16.2102 346.228C16.3523 346.407 16.5526 346.544 16.8111 346.637C17.0696 346.728 17.375 346.774 17.7273 346.774C18.0795 346.774 18.3864 346.727 18.6477 346.633C18.9091 346.539 19.1122 346.404 19.2571 346.228C19.3991 346.049 19.4702 345.831 19.4702 345.572ZM13.9858 336.141H12.2727V328.764H13.9858V331.411H21V333.49H13.9858L13.9858 336.141ZM21.1236 325.624C21.1236 326.308 20.9886 326.899 20.7188 327.396C20.446 327.891 20.0582 328.271 19.5554 328.538C19.0497 328.803 18.4489 328.935 17.7528 328.935C17.0767 328.935 16.4858 328.801 15.9801 328.534C15.4716 328.267 15.0767 327.891 14.7955 327.405C14.5114 326.919 14.3693 326.347 14.3693 325.688C14.3693 325.222 14.4418 324.795 14.5866 324.409C14.7315 324.023 14.946 323.689 15.2301 323.408C15.5142 323.126 15.8651 322.908 16.2827 322.751C16.6974 322.595 17.1733 322.517 17.7102 322.517H18.2301V328.206H17.0199V324.456C16.7983 324.459 16.6009 324.511 16.4276 324.614C16.2543 324.716 16.1193 324.857 16.0227 325.036C15.9233 325.212 15.8736 325.415 15.8736 325.645C15.8736 325.878 15.9261 326.087 16.0313 326.271C16.1335 326.456 16.2741 326.602 16.4531 326.71C16.6293 326.818 16.8295 326.875 17.054 326.881H18.2855C18.5526 326.881 18.7869 326.828 18.9886 326.723C19.1875 326.618 19.3423 326.469 19.4531 326.276C19.5639 326.082 19.6193 325.852 19.6193 325.585C19.6193 325.401 19.5937 325.233 19.5426 325.082C19.4915 324.932 19.4162 324.803 19.3168 324.695C19.2173 324.587 19.0952 324.506 18.9503 324.452L19.0057 322.538C19.4347 322.618 19.8082 322.793 20.1264 323.062C20.4418 323.33 20.6875 323.68 20.8636 324.115C21.0369 324.55 21.1236 325.053 21.1236 325.624ZM21.1236 318.397C21.1236 319.088 20.9815 319.68 20.6974 320.174C20.4134 320.666 20.0185 321.044 19.5128 321.308C19.0043 321.572 18.4162 321.704 17.7486 321.704C17.0781 321.704 16.4901 321.572 15.9844 321.308C15.4759 321.041 15.0795 320.662 14.7955 320.17C14.5114 319.676 14.3693 319.086 14.3693 318.402C14.3693 317.797 14.4787 317.27 14.6974 316.821C14.9162 316.369 15.2259 316.017 15.6264 315.764C16.0241 315.508 16.4915 315.373 17.0284 315.359V317.306C16.6932 317.346 16.4304 317.46 16.2401 317.647C16.0497 317.832 15.9545 318.074 15.9545 318.372C15.9545 318.613 16.0227 318.825 16.1591 319.007C16.2926 319.189 16.4915 319.331 16.7557 319.433C17.017 319.532 17.3409 319.582 17.7273 319.582C18.1136 319.582 18.4403 319.532 18.7074 319.433C18.9716 319.331 19.1719 319.189 19.3082 319.007C19.4418 318.825 19.5085 318.613 19.5085 318.372C19.5085 318.179 19.4673 318.008 19.3849 317.86C19.3026 317.71 19.1818 317.586 19.0227 317.49C18.8608 317.393 18.6648 317.332 18.4347 317.306V315.359C18.9744 315.379 19.446 315.514 19.8494 315.764C20.2528 316.011 20.5668 316.359 20.7912 316.808C21.0128 317.254 21.1236 317.784 21.1236 318.397ZM17.267 312.209H21V314.293H12.2727V312.277H15.6563V312.205C15.2528 312.057 14.9375 311.815 14.7102 311.48C14.483 311.142 14.3693 310.729 14.3693 310.24C14.3693 309.78 14.4716 309.379 14.6761 309.038C14.8778 308.697 15.1634 308.433 15.5327 308.246C15.902 308.055 16.3338 307.962 16.8281 307.964H21V310.048H17.2372C16.8736 310.045 16.5895 310.136 16.3849 310.321C16.1804 310.506 16.0781 310.766 16.0781 311.101C16.0781 311.32 16.1264 311.513 16.223 311.68C16.3168 311.845 16.4517 311.974 16.6278 312.068C16.804 312.159 17.017 312.206 17.267 312.209Z" fill="white"/>
<path d="M33 362.951H32.4247L30.0597 360.79C29.7827 360.537 29.5419 360.328 29.3374 360.164C29.1307 360 28.9368 359.878 28.7557 359.8C28.5724 359.719 28.3807 359.678 28.1804 359.678C27.9503 359.678 27.7511 359.734 27.5827 359.844C27.4144 359.953 27.2844 360.102 27.1928 360.292C27.1012 360.481 27.0554 360.694 27.0554 360.931C27.0554 361.182 27.1076 361.402 27.212 361.589C27.3143 361.775 27.4581 361.919 27.6435 362.021C27.8288 362.121 28.0462 362.171 28.2955 362.171V362.925C27.9119 362.925 27.5753 362.837 27.2855 362.66C26.9957 362.483 26.7699 362.242 26.608 361.938C26.446 361.631 26.3651 361.287 26.3651 360.905C26.3651 360.522 26.446 360.182 26.608 359.886C26.7699 359.59 26.9883 359.357 27.2631 359.189C27.538 359.021 27.8438 358.937 28.1804 358.937C28.4212 358.937 28.6566 358.98 28.8867 359.068C29.1147 359.153 29.3693 359.302 29.6506 359.515C29.9297 359.726 30.2706 360.019 30.6733 360.394L32.2457 361.864H32.2969V358.822H33V362.951ZM33.0895 355.367C33.0895 355.848 32.9585 356.258 32.6964 356.597C32.4322 356.936 32.0497 357.195 31.549 357.374C31.0462 357.553 30.4389 357.642 29.7273 357.642C29.0199 357.642 28.4158 357.553 27.9151 357.374C27.4123 357.193 27.0288 356.933 26.7646 356.594C26.4982 356.253 26.3651 355.844 26.3651 355.367C26.3651 354.889 26.4982 354.481 26.7646 354.143C27.0288 353.802 27.4123 353.542 27.9151 353.363C28.4158 353.182 29.0199 353.091 29.7273 353.091C30.4389 353.091 31.0462 353.181 31.549 353.36C32.0497 353.539 32.4322 353.797 32.6964 354.136C32.9585 354.475 33.0895 354.885 33.0895 355.367ZM32.3864 355.367C32.3864 354.889 32.1562 354.519 31.696 354.254C31.2358 353.99 30.5795 353.858 29.7273 353.858C29.1605 353.858 28.6779 353.919 28.2795 354.04C27.881 354.16 27.5774 354.332 27.3686 354.558C27.1598 354.782 27.0554 355.051 27.0554 355.367C27.0554 355.84 27.2887 356.209 27.7553 356.476C28.2198 356.742 28.8771 356.875 29.7273 356.875C30.294 356.875 30.7756 356.816 31.1719 356.696C31.5682 356.577 31.8697 356.405 32.0763 356.182C32.283 355.956 32.3864 355.684 32.3864 355.367ZM33 351.877H32.4247L30.0597 349.716C29.7827 349.463 29.5419 349.254 29.3374 349.09C29.1307 348.926 28.9368 348.804 28.7557 348.725C28.5724 348.644 28.3807 348.604 28.1804 348.604C27.9503 348.604 27.7511 348.659 27.5827 348.77C27.4144 348.879 27.2844 349.028 27.1928 349.218C27.1012 349.407 27.0554 349.62 27.0554 349.857C27.0554 350.108 27.1076 350.328 27.212 350.515C27.3143 350.701 27.4581 350.844 27.6435 350.947C27.8288 351.047 28.0462 351.097 28.2955 351.097V351.851C27.9119 351.851 27.5753 351.763 27.2855 351.586C26.9957 351.409 26.7699 351.168 26.608 350.864C26.446 350.557 26.3651 350.213 26.3651 349.831C26.3651 349.448 26.446 349.108 26.608 348.812C26.7699 348.515 26.9883 348.283 27.2631 348.115C27.538 347.947 27.8438 347.862 28.1804 347.862C28.4212 347.862 28.6566 347.906 28.8867 347.993C29.1147 348.079 29.3693 348.228 29.6506 348.441C29.9297 348.652 30.2706 348.945 30.6733 349.32L32.2457 350.79H32.2969V347.747H33V351.877ZM33.0895 344.216C33.0895 344.638 33.017 345.014 32.8722 345.344C32.7273 345.672 32.5259 345.933 32.2681 346.127C32.0082 346.319 31.7067 346.423 31.3636 346.44V345.635C31.5746 345.618 31.7567 345.545 31.9102 345.417C32.0614 345.29 32.1786 345.122 32.2617 344.916C32.3448 344.709 32.3864 344.48 32.3864 344.229C32.3864 343.947 32.3374 343.698 32.2393 343.481C32.1413 343.263 32.005 343.093 31.8303 342.969C31.6555 342.846 31.4531 342.784 31.223 342.784C30.9822 342.784 30.7702 342.844 30.587 342.963C30.4016 343.082 30.2567 343.257 30.1523 343.487C30.0479 343.717 29.9957 343.998 29.9957 344.331V344.855H29.2926V344.331C29.2926 344.071 29.2457 343.843 29.152 343.647C29.0582 343.449 28.9261 343.294 28.7557 343.183C28.5852 343.071 28.3849 343.014 28.1548 343.014C27.9332 343.014 27.7404 343.063 27.5763 343.161C27.4123 343.259 27.2844 343.398 27.1928 343.577C27.1012 343.753 27.0554 343.962 27.0554 344.203C27.0554 344.429 27.0969 344.642 27.18 344.842C27.261 345.04 27.3793 345.202 27.5348 345.328C27.6882 345.454 27.8736 345.522 28.0909 345.533V346.3C27.7479 346.287 27.4474 346.183 27.1896 345.99C26.9297 345.796 26.7273 345.542 26.5824 345.229C26.4375 344.914 26.3651 344.567 26.3651 344.19C26.3651 343.785 26.4471 343.438 26.6112 343.148C26.7731 342.859 26.9872 342.636 27.2536 342.48C27.5199 342.325 27.8075 342.247 28.1165 342.247C28.4851 342.247 28.7994 342.344 29.0593 342.538C29.3192 342.73 29.4993 342.991 29.5994 343.321H29.6506C29.7187 342.908 29.8945 342.585 30.1779 342.352C30.4592 342.12 30.8075 342.004 31.223 342.004C31.5788 342.004 31.8984 342.101 32.1818 342.295C32.4631 342.487 32.6847 342.749 32.8466 343.081C33.0085 343.414 33.0895 343.792 33.0895 344.216ZM33.0895 338.562C33.0895 339.044 32.9585 339.454 32.6964 339.792C32.4322 340.131 32.0497 340.39 31.549 340.569C31.0462 340.748 30.4389 340.838 29.7273 340.838C29.0199 340.838 28.4158 340.748 27.9151 340.569C27.4123 340.388 27.0288 340.128 26.7646 339.789C26.4982 339.448 26.3651 339.039 26.3651 338.562C26.3651 338.085 26.4982 337.677 26.7646 337.338C27.0288 336.997 27.4123 336.737 27.9151 336.558C28.4158 336.377 29.0199 336.286 29.7273 336.286C30.4389 336.286 31.0462 336.376 31.549 336.555C32.0497 336.734 32.4322 336.993 32.6964 337.332C32.9585 337.67 33.0895 338.08 33.0895 338.562ZM32.3864 338.562C32.3864 338.085 32.1562 337.714 31.696 337.45C31.2358 337.186 30.5795 337.053 29.7273 337.053C29.1605 337.053 28.6779 337.114 28.2795 337.236C27.881 337.355 27.5774 337.528 27.3686 337.753C27.1598 337.977 27.0554 338.247 27.0554 338.562C27.0554 339.035 27.2887 339.405 27.7553 339.671C28.2198 339.937 28.8771 340.071 29.7273 340.071C30.294 340.071 30.7756 340.011 31.1719 339.892C31.5682 339.772 31.8697 339.601 32.0763 339.377C32.283 339.151 32.3864 338.879 32.3864 338.562ZM33.0895 332.86C33.0895 333.282 33.017 333.658 32.8722 333.989C32.7273 334.317 32.5259 334.578 32.2681 334.772C32.0082 334.963 31.7067 335.068 31.3636 335.085V334.279C31.5746 334.262 31.7567 334.19 31.9102 334.062C32.0614 333.934 32.1786 333.767 32.2617 333.56C32.3448 333.354 32.3864 333.125 32.3864 332.873C32.3864 332.592 32.3374 332.343 32.2393 332.125C32.1413 331.908 32.005 331.737 31.8303 331.614C31.6555 331.49 31.4531 331.428 31.223 331.428C30.9822 331.428 30.7702 331.488 30.587 331.607C30.4016 331.727 30.2567 331.902 30.1523 332.132C30.0479 332.362 29.9957 332.643 29.9957 332.975V333.5H29.2926V332.975C29.2926 332.715 29.2457 332.487 29.152 332.291C29.0582 332.093 28.9261 331.939 28.7557 331.828C28.5852 331.715 28.3849 331.659 28.1548 331.659C27.9332 331.659 27.7404 331.708 27.5763 331.806C27.4123 331.904 27.2844 332.042 27.1928 332.221C27.1012 332.398 27.0554 332.607 27.0554 332.848C27.0554 333.073 27.0969 333.286 27.18 333.487C27.261 333.685 27.3793 333.847 27.5348 333.973C27.6882 334.098 27.8736 334.166 28.0909 334.177V334.944C27.7479 334.931 27.4474 334.828 27.1896 334.634C26.9297 334.44 26.7273 334.187 26.5824 333.873C26.4375 333.558 26.3651 333.212 26.3651 332.835C26.3651 332.43 26.4471 332.083 26.6112 331.793C26.7731 331.503 26.9872 331.28 27.2536 331.125C27.5199 330.969 27.8075 330.892 28.1165 330.892C28.4851 330.892 28.7994 330.989 29.0593 331.182C29.3192 331.374 29.4993 331.635 29.5994 331.965H29.6506C29.7187 331.552 29.8945 331.229 30.1779 330.997C30.4592 330.765 30.8075 330.649 31.223 330.649C31.5788 330.649 31.8984 330.746 32.1818 330.939C32.4631 331.131 32.6847 331.393 32.8466 331.726C33.0085 332.058 33.0895 332.436 33.0895 332.86ZM26.4545 327.04H33V327.833H27.2855V327.871L28.3466 329.469H27.5412L26.4545 327.833V327.04ZM33 325.158H32.4247L30.0597 322.997C29.7827 322.744 29.5419 322.535 29.3374 322.371C29.1307 322.207 28.9368 322.085 28.7557 322.007C28.5724 321.926 28.3807 321.885 28.1804 321.885C27.9503 321.885 27.7511 321.941 27.5827 322.051C27.4144 322.16 27.2844 322.309 27.1928 322.499C27.1012 322.688 27.0554 322.902 27.0554 323.138C27.0554 323.389 27.1076 323.609 27.212 323.796C27.3143 323.982 27.4581 324.126 27.6435 324.228C27.8288 324.328 28.0462 324.378 28.2955 324.378V325.132C27.9119 325.132 27.5753 325.044 27.2855 324.867C26.9957 324.69 26.7699 324.449 26.608 324.145C26.446 323.838 26.3651 323.494 26.3651 323.112C26.3651 322.729 26.446 322.389 26.608 322.093C26.7699 321.797 26.9883 321.564 27.2631 321.396C27.538 321.228 27.8438 321.144 28.1804 321.144C28.4212 321.144 28.6566 321.187 28.8867 321.275C29.1147 321.36 29.3693 321.509 29.6506 321.722C29.9297 321.933 30.2706 322.226 30.6733 322.601L32.2457 324.071H32.2969V321.029H33V325.158ZM33.0895 317.574C33.0895 318.055 32.9585 318.465 32.6964 318.804C32.4322 319.143 32.0497 319.402 31.549 319.581C31.0462 319.76 30.4389 319.849 29.7273 319.849C29.0199 319.849 28.4158 319.76 27.9151 319.581C27.4123 319.4 27.0288 319.14 26.7646 318.801C26.4982 318.46 26.3651 318.051 26.3651 317.574C26.3651 317.096 26.4982 316.688 26.7646 316.35C27.0288 316.009 27.4123 315.749 27.9151 315.57C28.4158 315.389 29.0199 315.298 29.7273 315.298C30.4389 315.298 31.0462 315.388 31.549 315.567C32.0497 315.746 32.4322 316.004 32.6964 316.343C32.9585 316.682 33.0895 317.092 33.0895 317.574ZM32.3864 317.574C32.3864 317.096 32.1562 316.726 31.696 316.462C31.2358 316.197 30.5795 316.065 29.7273 316.065C29.1605 316.065 28.6779 316.126 28.2795 316.247C27.881 316.367 27.5774 316.539 27.3686 316.765C27.1598 316.989 27.0554 317.258 27.0554 317.574C27.0554 318.047 27.2887 318.416 27.7553 318.683C28.2198 318.949 28.8771 319.082 29.7273 319.082C30.294 319.082 30.7756 319.023 31.1719 318.903C31.5682 318.784 31.8697 318.612 32.0763 318.389C32.283 318.163 32.3864 317.891 32.3864 317.574ZM31.6577 314.237H31.0057L26.4545 311.361V310.888H27.4645V311.207L30.9034 313.381H30.9545L30.9545 309.507H31.6577L31.6577 314.237ZM33 311.156H31.4595H31.1559H26.4545V310.402H33V311.156ZM33.0895 306.213C33.0895 306.652 33.0117 307.039 32.8562 307.376C32.6985 307.711 32.4822 307.972 32.2074 308.159C31.9304 308.347 31.6151 308.439 31.2614 308.437C30.9844 308.439 30.7287 308.385 30.4943 308.274C30.2578 308.163 30.0607 308.012 29.9031 307.82C29.7433 307.626 29.642 307.41 29.5994 307.171H29.5611C29.4801 307.485 29.3043 307.734 29.0337 307.919C28.761 308.105 28.451 308.196 28.1037 308.194C27.7713 308.196 27.4741 308.112 27.212 307.942C26.9499 307.771 26.7433 307.537 26.592 307.239C26.4407 306.938 26.3651 306.596 26.3651 306.213C26.3651 305.833 26.4407 305.495 26.592 305.196C26.7433 304.898 26.9499 304.664 27.212 304.493C27.4741 304.321 27.7713 304.233 28.1037 304.231C28.451 304.233 28.761 304.328 29.0337 304.516C29.3043 304.701 29.4801 304.947 29.5611 305.254H29.5994C29.642 305.017 29.7433 304.804 29.9031 304.615C30.0607 304.425 30.2578 304.274 30.4943 304.161C30.7287 304.048 30.9844 303.99 31.2614 303.988C31.6151 303.99 31.9304 304.086 32.2074 304.276C32.4822 304.463 32.6985 304.724 32.8562 305.059C33.0117 305.391 33.0895 305.776 33.0895 306.213ZM32.3864 306.213C32.3864 305.917 32.3384 305.661 32.2425 305.446C32.1467 305.23 32.0114 305.064 31.8366 304.947C31.6619 304.83 31.4574 304.77 31.223 304.768C30.9759 304.77 30.7575 304.834 30.5678 304.96C30.3782 305.086 30.229 305.257 30.1204 305.474C30.0117 305.69 29.9574 305.936 29.9574 306.213C29.9574 306.492 30.0117 306.741 30.1204 306.961C30.229 307.178 30.3782 307.349 30.5678 307.475C30.7575 307.599 30.9759 307.659 31.223 307.657C31.4574 307.659 31.6619 307.603 31.8366 307.488C32.0114 307.371 32.1467 307.203 32.2425 306.986C32.3384 306.769 32.3864 306.511 32.3864 306.213ZM29.2798 306.213C29.2798 305.978 29.233 305.771 29.1392 305.589C29.0455 305.406 28.9144 305.262 28.7461 305.158C28.5778 305.054 28.3807 305 28.1548 304.998C27.9332 305 27.7404 305.053 27.5763 305.155C27.4102 305.257 27.2823 305.399 27.1928 305.58C27.1012 305.761 27.0554 305.972 27.0554 306.213C27.0554 306.458 27.1012 306.672 27.1928 306.855C27.2823 307.038 27.4102 307.18 27.5763 307.28C27.7404 307.38 27.9332 307.429 28.1548 307.427C28.3807 307.429 28.5778 307.379 28.7461 307.277C28.9144 307.173 29.0455 307.029 29.1392 306.845C29.233 306.662 29.2798 306.451 29.2798 306.213ZM33.0511 302.403C33.0511 302.561 32.9947 302.696 32.8817 302.809C32.7688 302.922 32.6335 302.978 32.4759 302.978C32.3182 302.978 32.1829 302.922 32.07 302.809C31.957 302.696 31.9006 302.561 31.9006 302.403C31.9006 302.245 31.957 302.11 32.07 301.997C32.1829 301.884 32.3182 301.828 32.4759 301.828C32.5803 301.828 32.6761 301.854 32.7635 301.908C32.8509 301.959 32.9212 302.028 32.9744 302.115C33.0256 302.201 33.0511 302.296 33.0511 302.403ZM33.0895 298.573C33.0895 298.948 33.0149 299.286 32.8658 299.587C32.7166 299.887 32.5121 300.128 32.2521 300.309C31.9922 300.49 31.696 300.589 31.3636 300.606V299.839C31.6598 299.809 31.9048 299.675 32.0987 299.436C32.2905 299.196 32.3864 298.908 32.3864 298.573C32.3864 298.305 32.3235 298.066 32.1978 297.857C32.0721 297.647 31.8995 297.481 31.68 297.362C31.4585 297.241 31.2081 297.18 30.929 297.18C30.6435 297.18 30.3888 297.243 30.1651 297.368C29.9393 297.492 29.7614 297.663 29.6314 297.88C29.5014 298.097 29.4354 298.345 29.4332 298.625C29.4311 298.825 29.462 299.03 29.5259 299.241C29.5877 299.452 29.6676 299.626 29.7656 299.762L29.6761 300.504L26.4545 300.107V296.707H27.1577V299.443L29.0881 299.673V299.634C28.9815 299.5 28.8931 299.332 28.8228 299.129C28.7525 298.927 28.7173 298.716 28.7173 298.497C28.7173 298.096 28.8132 297.739 29.005 297.426C29.1946 297.111 29.4545 296.864 29.7848 296.685C30.1151 296.503 30.4922 296.413 30.9162 296.413C31.3338 296.413 31.7067 296.507 32.0348 296.694C32.3608 296.879 32.6186 297.135 32.8082 297.461C32.9957 297.787 33.0895 298.158 33.0895 298.573ZM33 295.143H32.4247L30.0597 292.983C29.7827 292.729 29.5419 292.52 29.3374 292.356C29.1307 292.192 28.9368 292.071 28.7557 291.992C28.5724 291.911 28.3807 291.871 28.1804 291.871C27.9503 291.871 27.7511 291.926 27.5827 292.037C27.4144 292.145 27.2844 292.295 27.1928 292.484C27.1012 292.674 27.0554 292.887 27.0554 293.123C27.0554 293.375 27.1076 293.594 27.212 293.782C27.3143 293.967 27.4581 294.111 27.6435 294.213C27.8288 294.313 28.0462 294.363 28.2955 294.363V295.118C27.9119 295.118 27.5753 295.029 27.2855 294.852C26.9957 294.676 26.7699 294.435 26.608 294.13C26.446 293.823 26.3651 293.479 26.3651 293.098C26.3651 292.714 26.446 292.374 26.608 292.078C26.7699 291.782 26.9883 291.55 27.2631 291.382C27.538 291.213 27.8438 291.129 28.1804 291.129C28.4212 291.129 28.6566 291.173 28.8867 291.26C29.1147 291.345 29.3693 291.494 29.6506 291.708C29.9297 291.918 30.2706 292.211 30.6733 292.586L32.2457 294.057H32.2969V291.014H33V295.143Z" fill="white"/>
<path d="M1.17614 615L5.07955 607.278V607.21H0.579545L0.579545 606.273H6.17045V607.261L2.28409 615H1.17614ZM3.85227 630.119C3.28977 630.119 2.78835 630.023 2.34801 629.83C1.91051 629.636 1.5625 629.368 1.30398 629.024C1.0483 628.678 0.909091 628.276 0.886364 627.818H1.96023C1.98295 628.099 2.07955 628.342 2.25 628.547C2.42045 628.749 2.64347 628.905 2.91903 629.016C3.1946 629.126 3.5 629.182 3.83523 629.182C4.21023 629.182 4.54261 629.116 4.83239 628.986C5.12216 628.855 5.34943 628.673 5.5142 628.44C5.67898 628.207 5.76136 627.938 5.76136 627.631C5.76136 627.31 5.68182 627.027 5.52273 626.783C5.36364 626.536 5.13068 626.342 4.82386 626.203C4.51705 626.064 4.14205 625.994 3.69886 625.994H3L3 625.057H3.69886C4.04545 625.057 4.34943 624.994 4.6108 624.869C4.875 624.744 5.08097 624.568 5.22869 624.341C5.37926 624.114 5.45455 623.847 5.45455 623.54C5.45455 623.244 5.3892 622.987 5.25852 622.768C5.12784 622.55 4.94318 622.379 4.70455 622.257C4.46875 622.135 4.19034 622.074 3.86932 622.074C3.56818 622.074 3.28409 622.129 3.01705 622.24C2.75284 622.348 2.53693 622.506 2.36932 622.713C2.2017 622.918 2.1108 623.165 2.09659 623.455H1.07386C1.09091 622.997 1.22869 622.597 1.48722 622.253C1.74574 621.906 2.08381 621.636 2.50142 621.443C2.92188 621.25 3.38352 621.153 3.88636 621.153C4.42614 621.153 4.8892 621.263 5.27557 621.482C5.66193 621.697 5.95881 621.983 6.16619 622.338C6.37358 622.693 6.47727 623.077 6.47727 623.489C6.47727 623.98 6.34801 624.399 6.08949 624.746C5.83381 625.092 5.4858 625.332 5.04545 625.466V625.534C5.59659 625.625 6.02699 625.859 6.33665 626.237C6.64631 626.612 6.80114 627.077 6.80114 627.631C6.80114 628.105 6.67188 628.531 6.41335 628.909C6.15767 629.284 5.80824 629.58 5.36506 629.795C4.92188 630.011 4.41761 630.119 3.85227 630.119ZM3.63068 645.119C3.13068 645.119 2.6804 645.02 2.27983 644.821C1.87926 644.622 1.55824 644.349 1.31676 644.003C1.07528 643.656 0.943182 643.261 0.920455 642.818H1.94318C1.98295 643.213 2.16193 643.54 2.48011 643.798C2.80114 644.054 3.18466 644.182 3.63068 644.182C3.98864 644.182 4.30682 644.098 4.58523 643.93C4.86648 643.763 5.08665 643.533 5.24574 643.24C5.40767 642.945 5.48864 642.611 5.48864 642.239C5.48864 641.858 5.40483 641.518 5.23722 641.22C5.07244 640.919 4.84517 640.682 4.5554 640.509C4.26563 640.335 3.93466 640.247 3.5625 640.244C3.29545 640.241 3.02131 640.283 2.74006 640.368C2.45881 640.45 2.22727 640.557 2.04545 640.688L1.05682 640.568L1.58523 636.273H6.11932V637.21H2.47159L2.16477 639.784H2.21591C2.39489 639.642 2.61932 639.524 2.8892 639.43C3.15909 639.337 3.44034 639.29 3.73295 639.29C4.26705 639.29 4.7429 639.418 5.16051 639.673C5.58097 639.926 5.91051 640.273 6.14915 640.713C6.39063 641.153 6.51136 641.656 6.51136 642.222C6.51136 642.778 6.38636 643.276 6.13636 643.713C5.8892 644.148 5.5483 644.491 5.11364 644.744C4.67898 644.994 4.18466 645.119 3.63068 645.119ZM3.69886 660.119C3.11364 660.119 2.59659 660.016 2.14773 659.808C1.7017 659.598 1.35369 659.31 1.10369 658.943C0.853693 658.574 0.730114 658.153 0.732955 657.682C0.730114 657.312 0.802557 656.972 0.950284 656.659C1.09801 656.344 1.29972 656.081 1.5554 655.871C1.81392 655.658 2.10227 655.523 2.42045 655.466V655.415C2.00284 655.307 1.67045 655.072 1.4233 654.712C1.17614 654.348 1.05398 653.935 1.05682 653.472C1.05398 653.028 1.16619 652.632 1.39347 652.283C1.62074 651.933 1.93324 651.658 2.33097 651.456C2.73153 651.254 3.1875 651.153 3.69886 651.153C4.20455 651.153 4.65625 651.254 5.05398 651.456C5.4517 651.658 5.7642 651.933 5.99148 652.283C6.22159 652.632 6.33807 653.028 6.34091 653.472C6.33807 653.935 6.21165 654.348 5.96165 654.712C5.71449 655.072 5.38636 655.307 4.97727 655.415V655.466C5.29261 655.523 5.5767 655.658 5.82955 655.871C6.08239 656.081 6.28409 656.344 6.43466 656.659C6.58523 656.972 6.66193 657.312 6.66477 657.682C6.66193 658.153 6.53409 658.574 6.28125 658.943C6.03125 659.31 5.68324 659.598 5.23722 659.808C4.79403 660.016 4.28125 660.119 3.69886 660.119ZM3.69886 659.182C4.09375 659.182 4.43466 659.118 4.72159 658.99C5.00852 658.862 5.23011 658.682 5.38636 658.449C5.54261 658.216 5.62216 657.943 5.625 657.631C5.62216 657.301 5.53693 657.01 5.36932 656.757C5.2017 656.504 4.97301 656.305 4.68324 656.161C4.39631 656.016 4.06818 655.943 3.69886 655.943C3.3267 655.943 2.99432 656.016 2.7017 656.161C2.41193 656.305 2.18324 656.504 2.01563 656.757C1.85085 657.01 1.76989 657.301 1.77273 657.631C1.76989 657.943 1.84517 658.216 1.99858 658.449C2.15483 658.682 2.37784 658.862 2.66761 658.99C2.95739 659.118 3.30114 659.182 3.69886 659.182ZM3.69886 655.04C4.01136 655.04 4.28835 654.977 4.52983 654.852C4.77415 654.727 4.96591 654.553 5.10511 654.328C5.24432 654.104 5.31534 653.841 5.31818 653.54C5.31534 653.244 5.24574 652.987 5.10938 652.768C4.97301 652.547 4.78409 652.376 4.54261 652.257C4.30114 652.135 4.01989 652.074 3.69886 652.074C3.37216 652.074 3.08665 652.135 2.84233 652.257C2.59801 652.376 2.40909 652.547 2.27557 652.768C2.14205 652.987 2.0767 653.244 2.07955 653.54C2.0767 653.841 2.14347 654.104 2.27983 654.328C2.41903 654.553 2.6108 654.727 2.85511 654.852C3.09943 654.977 3.38068 655.04 3.69886 655.04ZM0.903409 675L0.903409 674.233L3.78409 671.08C4.12216 670.71 4.40057 670.389 4.61932 670.116C4.83807 669.841 5 669.582 5.10511 669.341C5.21307 669.097 5.26705 668.841 5.26705 668.574C5.26705 668.267 5.19318 668.001 5.04545 667.777C4.90057 667.553 4.7017 667.379 4.44886 667.257C4.19602 667.135 3.91193 667.074 3.59659 667.074C3.26136 667.074 2.96875 667.143 2.71875 667.283C2.47159 667.419 2.27983 667.611 2.14347 667.858C2.00994 668.105 1.94318 668.395 1.94318 668.727H0.9375C0.9375 668.216 1.0554 667.767 1.29119 667.381C1.52699 666.994 1.84801 666.693 2.25426 666.477C2.66335 666.261 3.12216 666.153 3.63068 666.153C4.14205 666.153 4.59517 666.261 4.99006 666.477C5.38494 666.693 5.6946 666.984 5.91903 667.351C6.14347 667.717 6.25568 668.125 6.25568 668.574C6.25568 668.895 6.19744 669.209 6.08097 669.516C5.96733 669.82 5.76847 670.159 5.48438 670.534C5.20313 670.906 4.8125 671.361 4.3125 671.898L2.35227 673.994V674.062H6.40909L6.40909 675H0.903409ZM3.39205 690.119C2.81818 690.119 2.32386 690.014 1.90909 689.804C1.49432 689.594 1.17472 689.305 0.950284 688.939C0.725852 688.572 0.613636 688.153 0.613636 687.682C0.613636 687.318 0.690341 686.996 0.84375 686.714C1 686.43 1.21449 686.168 1.48722 685.926C1.76278 685.682 2.07955 685.438 2.4375 685.193L3.69886 684.256C3.94602 684.094 4.14347 683.92 4.29119 683.736C4.44176 683.551 4.51705 683.31 4.51705 683.011C4.51705 682.79 4.41903 682.575 4.22301 682.368C4.02983 682.161 3.77557 682.057 3.46023 682.057C3.23864 682.057 3.04261 682.114 2.87216 682.227C2.70455 682.338 2.57244 682.48 2.47585 682.653C2.3821 682.824 2.33523 683 2.33523 683.182C2.33523 683.386 2.39063 683.594 2.50142 683.804C2.61506 684.011 2.75852 684.224 2.93182 684.443C3.10795 684.659 3.28977 684.881 3.47727 685.108L7.48295 690H6.27273L2.96591 686.011C2.65909 685.642 2.38068 685.307 2.13068 685.006C1.88068 684.705 1.68182 684.408 1.53409 684.115C1.38636 683.822 1.3125 683.506 1.3125 683.165C1.3125 682.773 1.39915 682.429 1.57244 682.134C1.74858 681.835 1.99432 681.604 2.30966 681.439C2.62784 681.271 3 681.188 3.42614 681.188C3.86364 681.188 4.24006 681.273 4.5554 681.443C4.87074 681.611 5.11364 681.834 5.28409 682.112C5.45455 682.388 5.53977 682.688 5.53977 683.011C5.53977 683.429 5.43608 683.791 5.22869 684.098C5.02131 684.405 4.73864 684.69 4.38068 684.955L2.64205 686.25C2.25 686.54 1.98438 686.821 1.84517 687.094C1.70597 687.366 1.63636 687.562 1.63636 687.682C1.63636 687.955 1.70739 688.209 1.84943 688.445C1.99148 688.68 2.19176 688.871 2.45028 689.016C2.70881 689.161 3.01136 689.233 3.35795 689.233C3.6875 689.233 4.00852 689.163 4.32102 689.024C4.63352 688.882 4.91619 688.678 5.16903 688.411C5.42472 688.143 5.62642 687.822 5.77415 687.447C5.92472 687.072 6 686.651 6 686.182H6.97159C6.97159 686.761 6.90483 687.234 6.77131 687.601C6.63778 687.967 6.48722 688.254 6.3196 688.462C6.15199 688.669 6.01705 688.824 5.91477 688.926C5.88068 688.969 5.84943 689.011 5.82102 689.054C5.79261 689.097 5.76136 689.139 5.72727 689.182C5.44602 689.497 5.09091 689.733 4.66193 689.889C4.23295 690.043 3.80966 690.119 3.39205 690.119ZM1.17614 705L5.07955 697.278V697.21H0.579545L0.579545 696.273H6.17045V697.261L2.28409 705H1.17614ZM5.38636 722.455V718.994H5.30114C5.22727 719.114 5.12216 719.264 4.9858 719.446C4.84943 719.625 4.65483 719.786 4.40199 719.928C4.14915 720.067 3.8125 720.136 3.39205 720.136C2.84659 720.136 2.36506 719.999 1.94744 719.723C1.52983 719.445 1.20313 719.053 0.96733 718.547C0.731534 718.038 0.613636 717.438 0.613636 716.744C0.613636 716.057 0.731534 715.46 0.96733 714.955C1.20313 714.449 1.53125 714.058 1.9517 713.783C2.37216 713.507 2.85795 713.369 3.40909 713.369C3.83523 713.369 4.17188 713.44 4.41903 713.582C4.66903 713.722 4.85938 713.881 4.99006 714.06C5.12358 714.236 5.22727 714.381 5.30114 714.494H5.42045V713.455H6.39205L6.39205 722.455H5.38636ZM3.52841 719.233C3.93182 719.233 4.27273 719.128 4.55114 718.918C4.82955 718.705 5.04119 718.411 5.18608 718.036C5.33097 717.658 5.40341 717.222 5.40341 716.727C5.40341 716.239 5.33239 715.811 5.19034 715.445C5.0483 715.075 4.83807 714.788 4.55966 714.584C4.28125 714.376 3.9375 714.273 3.52841 714.273C3.10227 714.273 2.74716 714.382 2.46307 714.601C2.18182 714.817 1.97017 715.111 1.82813 715.483C1.68892 715.852 1.61932 716.267 1.61932 716.727C1.61932 717.193 1.69034 717.616 1.83239 717.997C1.97727 718.375 2.19034 718.676 2.47159 718.901C2.75568 719.122 3.10795 719.233 3.52841 719.233ZM3.85227 735.119C3.28977 735.119 2.78835 735.023 2.34801 734.83C1.91051 734.636 1.5625 734.368 1.30398 734.024C1.0483 733.678 0.909091 733.276 0.886364 732.818H1.96023C1.98295 733.099 2.07955 733.342 2.25 733.547C2.42045 733.749 2.64347 733.905 2.91903 734.016C3.1946 734.126 3.5 734.182 3.83523 734.182C4.21023 734.182 4.54261 734.116 4.83239 733.986C5.12216 733.855 5.34943 733.673 5.5142 733.44C5.67898 733.207 5.76136 732.938 5.76136 732.631C5.76136 732.31 5.68182 732.027 5.52273 731.783C5.36364 731.536 5.13068 731.342 4.82386 731.203C4.51705 731.064 4.14205 730.994 3.69886 730.994H3V730.057H3.69886C4.04545 730.057 4.34943 729.994 4.6108 729.869C4.875 729.744 5.08097 729.568 5.22869 729.341C5.37926 729.114 5.45455 728.847 5.45455 728.54C5.45455 728.244 5.3892 727.987 5.25852 727.768C5.12784 727.55 4.94318 727.379 4.70455 727.257C4.46875 727.135 4.19034 727.074 3.86932 727.074C3.56818 727.074 3.28409 727.129 3.01705 727.24C2.75284 727.348 2.53693 727.506 2.36932 727.713C2.2017 727.918 2.1108 728.165 2.09659 728.455H1.07386C1.09091 727.997 1.22869 727.597 1.48722 727.253C1.74574 726.906 2.08381 726.636 2.50142 726.443C2.92188 726.25 3.38352 726.153 3.88636 726.153C4.42614 726.153 4.8892 726.263 5.27557 726.482C5.66193 726.697 5.95881 726.983 6.16619 727.338C6.37358 727.693 6.47727 728.077 6.47727 728.489C6.47727 728.98 6.34801 729.399 6.08949 729.746C5.83381 730.092 5.4858 730.332 5.04545 730.466V730.534C5.59659 730.625 6.02699 730.859 6.33665 731.237C6.64631 731.612 6.80114 732.077 6.80114 732.631C6.80114 733.105 6.67188 733.531 6.41335 733.909C6.15767 734.284 5.80824 734.58 5.36506 734.795C4.92188 735.011 4.41761 735.119 3.85227 735.119Z" fill="white"/>
<line x1="16.5" x2="16.5" y2="226" stroke="#D9D9D9"/>
<line x1="24.5" y1="10" x2="24.5" y2="226" stroke="#D9D9D9"/>
<line x1="16.5" y1="501" x2="16.5" y2="735" stroke="#D9D9D9"/>
<line x1="24.5" y1="501" x2="24.5" y2="712" stroke="#D9D9D9"/>
</svg>
