<svg width="17" height="214" viewBox="0 0 17 214" fill="none" xmlns="http://www.w3.org/2000/svg">
<path d="M1 0.534091L11.9091 0.534091V2.15341L10.2045 2.15341V2.29545C10.7869 2.52273 11.2391 2.88968 11.5611 3.39631C11.8878 3.90294 12.0511 4.51136 12.0511 5.22159C12.0511 5.94129 11.8878 6.54025 11.5611 7.01847C11.2391 7.50142 10.7869 7.87784 10.2045 8.14773V8.26136C10.768 8.54072 11.2154 8.95975 11.5469 9.51847C11.883 10.0772 12.0511 10.7472 12.0511 11.5284C12.0511 12.5038 11.7457 13.3016 11.1349 13.9219C10.5289 14.5421 9.58428 14.8523 8.30114 14.8523L1 14.8523V13.1761L8.30114 13.1761C9.10606 13.1761 9.68134 12.956 10.027 12.5156C10.3726 12.0753 10.5455 11.5568 10.5455 10.9602C10.5455 10.1932 10.3134 9.59896 9.84943 9.17756C9.39015 8.75616 8.80777 8.54545 8.10227 8.54545L1 8.54545L1 6.84091L8.47159 6.84091C9.09186 6.84091 9.59138 6.63968 9.97017 6.23722C10.3537 5.83475 10.5455 5.31629 10.5455 4.68182C10.5455 4.24621 10.4295 3.83902 10.1974 3.46023C9.96544 3.08617 9.64347 2.78314 9.23153 2.55114C8.82434 2.32386 8.35322 2.21023 7.81818 2.21023L1 2.21023V0.534091ZM0.744318 21.1271C0.744318 20.4358 0.874527 19.8085 1.13494 19.245C1.40009 18.6816 1.78125 18.2341 2.27841 17.9027C2.7803 17.5713 3.38636 17.4055 4.09659 17.4055C4.72159 17.4055 5.22822 17.5286 5.61648 17.7749C6.00947 18.0211 6.31724 18.3501 6.53977 18.7621C6.76231 19.174 6.92803 19.6286 7.03693 20.1257C7.15057 20.6276 7.24053 21.1319 7.30682 21.6385C7.39205 22.3014 7.45597 22.8388 7.49858 23.2507C7.54593 23.6674 7.62405 23.9704 7.73295 24.1598C7.84186 24.3539 8.03125 24.451 8.30114 24.451H8.35795C9.05871 24.451 9.60322 24.2592 9.99148 23.8757C10.3797 23.4969 10.5739 22.9216 10.5739 22.1499C10.5739 21.3497 10.3987 20.7223 10.0483 20.2678C9.69792 19.8132 9.32386 19.4936 8.92614 19.3089L9.49432 17.718C10.1572 18.0021 10.6733 18.3809 11.0426 18.8544C11.4167 19.3326 11.6771 19.8535 11.8239 20.4169C11.9754 20.9851 12.0511 21.5438 12.0511 22.093C12.0511 22.4434 12.0085 22.8459 11.9233 23.3004C11.8428 23.7597 11.6747 24.2024 11.419 24.6286C11.1634 25.0594 10.7775 25.4169 10.2614 25.701C9.74527 25.9851 9.05398 26.1271 8.1875 26.1271H1V24.451H2.47727V24.3658C2.24053 24.2521 1.98722 24.0627 1.71733 23.7976C1.44744 23.5324 1.2178 23.1797 1.02841 22.7393C0.839015 22.299 0.744318 21.7616 0.744318 21.1271ZM2.25 21.3828C2.25 22.0457 2.38021 22.6044 2.64062 23.0589C2.90104 23.5182 3.23722 23.8639 3.64915 24.0959C4.06108 24.3326 4.49432 24.451 4.94886 24.451H6.48295C6.39773 24.38 6.3196 24.2237 6.24858 23.9822C6.18229 23.7455 6.12311 23.4709 6.07102 23.1584C6.02367 22.8506 5.98106 22.55 5.94318 22.2564C5.91004 21.9676 5.88163 21.7332 5.85795 21.5533C5.80114 21.1177 5.70881 20.7105 5.58097 20.3317C5.45786 19.9576 5.27083 19.6546 5.01989 19.4226C4.77367 19.1953 4.4375 19.0817 4.01136 19.0817C3.42898 19.0817 2.98864 19.2971 2.69034 19.728C2.39678 20.1636 2.25 20.7152 2.25 21.3828ZM7.5625 30.8626H1V29.1864L11.9091 29.1864V30.8058L10.2045 30.8058V30.9478C10.7585 31.2035 11.2036 31.5917 11.5398 32.1126C11.8807 32.6334 12.0511 33.3058 12.0511 34.1296C12.0511 34.8683 11.8996 35.5146 11.5966 36.0685C11.2983 36.6225 10.8437 37.0534 10.233 37.3612C9.62689 37.6689 8.85985 37.8228 7.93182 37.8228L1 37.8228V36.1467L7.81818 36.1467C8.67519 36.1467 9.3428 35.9241 9.82102 35.479C10.304 35.034 10.5455 34.4232 10.5455 33.6467C10.5455 33.1116 10.4295 32.6334 10.1974 32.212C9.96544 31.7953 9.62689 31.4663 9.18182 31.2248C8.73674 30.9833 8.19697 30.8626 7.5625 30.8626ZM1 40.8857L11.9091 40.8857V42.5618L1 42.5618V40.8857ZM13.7273 41.7379C13.7273 41.4112 13.8385 41.1295 14.0611 40.8928C14.2836 40.6607 14.5511 40.5447 14.8636 40.5447C15.1761 40.5447 15.4437 40.6607 15.6662 40.8928C15.8887 41.1295 16 41.4112 16 41.7379C16 42.0646 15.8887 42.344 15.6662 42.576C15.4437 42.8127 15.1761 42.9311 14.8636 42.9311C14.5511 42.9311 14.2836 42.8127 14.0611 42.576C13.8385 42.344 13.7273 42.0646 13.7273 41.7379ZM11.9091 50.4897H10.4886V44.609H11.9091V50.4897ZM1 46.3704L13.4148 46.3704C14.0398 46.3704 14.5606 46.5172 14.9773 46.8107C15.3939 47.1043 15.7064 47.4854 15.9148 47.9542C16.1231 48.4229 16.2273 48.9177 16.2273 49.4386C16.2273 49.8505 16.1941 50.1867 16.1278 50.4471C16.0616 50.7075 16 50.9016 15.9432 51.0295L14.4943 50.5465C14.5227 50.4613 14.5582 50.3429 14.6009 50.1914C14.6435 50.0446 14.6648 49.8505 14.6648 49.609C14.6648 49.055 14.5251 48.6549 14.2457 48.4087C13.9664 48.1673 13.5568 48.0465 13.017 48.0465L1 48.0465V46.3704ZM0.772727 56.9634C0.772727 55.9123 1.00473 55.0056 1.46875 54.2433C1.9375 53.4857 2.59091 52.9009 3.42898 52.489C4.27178 52.0818 5.25189 51.8782 6.36932 51.8782C7.48674 51.8782 8.47159 52.0818 9.32386 52.489C10.1809 52.9009 10.8485 53.4738 11.3267 54.2077C11.8097 54.9464 12.0511 55.8081 12.0511 56.793C12.0511 57.3612 11.9564 57.9222 11.767 58.4762C11.5777 59.0302 11.2699 59.5344 10.8437 59.989C10.4223 60.4435 9.86364 60.8058 9.16761 61.0756C8.47159 61.3455 7.61458 61.4805 6.59659 61.4805H5.88636L5.88636 53.0714H7.33523V59.7759C7.95076 59.7759 8.5 59.6528 8.98295 59.4066C9.46591 59.1651 9.84706 58.8195 10.1264 58.3697C10.4058 57.9246 10.5455 57.399 10.5455 56.793C10.5455 56.1254 10.3797 55.5477 10.0483 55.06C9.72159 54.5771 9.29545 54.2054 8.76989 53.945C8.24432 53.6845 7.68087 53.5543 7.07955 53.5543H6.11364C5.28977 53.5543 4.59138 53.6964 4.01847 53.9805C3.45028 54.2693 3.01705 54.6694 2.71875 55.1808C2.42519 55.6921 2.27841 56.2863 2.27841 56.9634C2.27841 57.4038 2.33996 57.8015 2.46307 58.1566C2.59091 58.5165 2.7803 58.8266 3.03125 59.087C3.28693 59.3474 3.60417 59.5487 3.98295 59.6907L3.52841 61.31C2.97917 61.1396 2.49621 60.8531 2.07955 60.4506C1.66761 60.0482 1.34564 59.551 1.11364 58.9592C0.886364 58.3673 0.772727 57.7021 0.772727 56.9634ZM9.46591 71.7575L9.03977 70.2518C9.29072 70.1571 9.53456 70.0174 9.77131 69.8327C10.0128 69.6528 10.2116 69.4066 10.3679 69.0941C10.5241 68.7816 10.6023 68.3815 10.6023 67.8938C10.6023 67.2262 10.4484 66.6699 10.1406 66.2248C9.83759 65.7844 9.4517 65.5643 8.98295 65.5643C8.56629 65.5643 8.23722 65.7158 7.99574 66.0188C7.75426 66.3219 7.55303 66.7953 7.39205 67.4393L6.99432 69.0586C6.75758 70.034 6.39536 70.7608 5.90767 71.239C5.42472 71.7172 4.80208 71.9563 4.03977 71.9563C3.41477 71.9563 2.85606 71.7764 2.36364 71.4165C1.87121 71.0614 1.48295 70.5643 1.19886 69.9251C0.914773 69.2859 0.772727 68.5425 0.772727 67.695C0.772727 66.5823 1.0142 65.6613 1.49716 64.9322C1.98011 64.203 2.68561 63.7414 3.61364 63.5472L4.01136 65.1381C3.42424 65.2897 2.9839 65.5761 2.69034 65.9975C2.39678 66.4237 2.25 66.98 2.25 67.6665C2.25 68.4478 2.41572 69.0681 2.74716 69.5273C3.08333 69.9914 3.4858 70.2234 3.95455 70.2234C4.33333 70.2234 4.65057 70.0908 4.90625 69.8256C5.16667 69.5605 5.3608 69.1533 5.48864 68.604L5.91477 66.7859C6.15152 65.7868 6.51847 65.0529 7.01562 64.5842C7.51752 64.1201 8.14489 63.8881 8.89773 63.8881C9.51326 63.8881 10.0578 64.061 10.5312 64.4066C11.0047 64.757 11.3764 65.2328 11.6463 65.8342C11.9162 66.4402 12.0511 67.1268 12.0511 67.8938C12.0511 68.9734 11.8144 69.8209 11.3409 70.4364C10.8674 71.0567 10.2424 71.497 9.46591 71.7575ZM11.9091 79.2237H10.4886L10.4886 73.5703H11.9091L11.9091 79.2237ZM14.5227 75.218V76.8942H4.125C3.65152 76.8942 3.2964 76.9628 3.05966 77.1001C2.82765 77.2422 2.6714 77.4221 2.59091 77.6399C2.51515 77.8625 2.47727 78.0968 2.47727 78.343C2.47727 78.5277 2.48674 78.6792 2.50568 78.7976C2.52936 78.916 2.5483 79.0107 2.5625 79.0817L1.05682 79.4226C1.0142 79.3089 0.971591 79.1503 0.928977 78.9467C0.881629 78.7431 0.857955 78.4851 0.857955 78.1726C0.857955 77.6991 0.959754 77.2351 1.16335 76.7805C1.36695 76.3307 1.67708 75.9567 2.09375 75.6584C2.51042 75.3648 3.03598 75.218 3.67045 75.218H14.5227ZM0.886364 82.9666C0.886364 82.6162 1.01184 82.3156 1.26278 82.0646C1.51373 81.8137 1.81439 81.6882 2.16477 81.6882C2.51515 81.6882 2.81581 81.8137 3.06676 82.0646C3.31771 82.3156 3.44318 82.6162 3.44318 82.9666C3.44318 83.317 3.31771 83.6177 3.06676 83.8686C2.81581 84.1196 2.51515 84.245 2.16477 84.245C1.93277 84.245 1.7197 84.1858 1.52557 84.0675C1.33144 83.9538 1.17519 83.8 1.05682 83.6058C0.943182 83.4164 0.886364 83.2034 0.886364 82.9666ZM11.9091 96.1733L1 92.1392V90.4347L11.9091 86.4006V88.2188L3.21591 91.2301V91.3438L11.9091 94.3551V96.1733ZM0.772727 102.569C0.772727 101.518 1.00473 100.611 1.46875 99.8487C1.9375 99.0911 2.59091 98.5064 3.42898 98.0945C4.27178 97.6873 5.25189 97.4837 6.36932 97.4837C7.48674 97.4837 8.47159 97.6873 9.32386 98.0945C10.1809 98.5064 10.8485 99.0793 11.3267 99.8132C11.8097 100.552 12.0511 101.414 12.0511 102.398C12.0511 102.967 11.9564 103.528 11.767 104.082C11.5777 104.636 11.2699 105.14 10.8437 105.594C10.4223 106.049 9.86364 106.411 9.16761 106.681C8.47159 106.951 7.61458 107.086 6.59659 107.086H5.88636L5.88636 98.6768H7.33523L7.33523 105.381C7.95076 105.381 8.5 105.258 8.98295 105.012C9.46591 104.771 9.84706 104.425 10.1264 103.975C10.4058 103.53 10.5455 103.004 10.5455 102.398C10.5455 101.731 10.3797 101.153 10.0483 100.665C9.72159 100.183 9.29545 99.8108 8.76989 99.5504C8.24432 99.29 7.68087 99.1598 7.07955 99.1598H6.11364C5.28977 99.1598 4.59138 99.3018 4.01847 99.5859C3.45028 99.8748 3.01705 100.275 2.71875 100.786C2.42519 101.298 2.27841 101.892 2.27841 102.569C2.27841 103.009 2.33996 103.407 2.46307 103.762C2.59091 104.122 2.7803 104.432 3.03125 104.692C3.28693 104.953 3.60417 105.154 3.98295 105.296L3.52841 106.915C2.97917 106.745 2.49621 106.459 2.07955 106.056C1.66761 105.654 1.34564 105.156 1.11364 104.565C0.886364 103.973 0.772727 103.308 0.772727 102.569ZM15.5455 111.312H1V109.636H15.5455V111.312ZM0.886364 115.603C0.886364 115.253 1.01184 114.952 1.26278 114.701C1.51373 114.45 1.81439 114.325 2.16477 114.325C2.51515 114.325 2.81581 114.45 3.06676 114.701C3.31771 114.952 3.44318 115.253 3.44318 115.603C3.44318 115.954 3.31771 116.254 3.06676 116.505C2.81581 116.756 2.51515 116.882 2.16477 116.882C1.93277 116.882 1.7197 116.823 1.52557 116.704C1.33144 116.591 1.17519 116.437 1.05682 116.243C0.943182 116.053 0.886364 115.84 0.886364 115.603ZM5.46023 126.765H11.9091V128.441H1V126.765H2.84659V126.651C2.29261 126.395 1.8215 125.998 1.43324 125.458C1.04972 124.918 0.857955 124.236 0.857955 123.412C0.857955 122.73 1.0071 122.124 1.3054 121.594C1.60843 121.064 2.06297 120.647 2.66903 120.344C3.27983 120.041 4.04924 119.89 4.97727 119.89H11.9091V121.566H5.09091C4.29545 121.566 3.66098 121.788 3.1875 122.233C2.71402 122.683 2.47727 123.256 2.47727 123.952C2.47727 124.369 2.58381 124.792 2.79687 125.223C3.00994 125.659 3.33665 126.024 3.77699 126.317C4.21733 126.615 4.77841 126.765 5.46023 126.765ZM1 131.511H11.9091V133.187H1V131.511ZM13.7273 132.363C13.7273 132.036 13.8385 131.754 14.0611 131.518C14.2836 131.286 14.5511 131.17 14.8636 131.17C15.1761 131.17 15.4437 131.286 15.6662 131.518C15.8887 131.754 16 132.036 16 132.363C16 132.69 15.8887 132.969 15.6662 133.201C15.4437 133.438 15.1761 133.556 14.8636 133.556C14.5511 133.556 14.2836 133.438 14.0611 133.201C13.8385 132.969 13.7273 132.69 13.7273 132.363ZM11.9091 137.507L7.44886 140.12L11.9091 142.734L11.9091 144.666L6.45455 141.143L1 144.666V142.734L5.23295 140.12L1 137.507V135.575L6.45455 139.041L11.9091 135.575V137.507ZM0.886364 148.279C0.886364 147.929 1.01184 147.628 1.26278 147.377C1.51373 147.126 1.81439 147.001 2.16477 147.001C2.51515 147.001 2.81581 147.126 3.06676 147.377C3.31771 147.628 3.44318 147.929 3.44318 148.279C3.44318 148.629 3.31771 148.93 3.06676 149.181C2.81581 149.432 2.51515 149.558 2.16477 149.558C1.93277 149.558 1.7197 149.498 1.52557 149.38C1.33144 149.266 1.17519 149.112 1.05682 148.918C0.943182 148.729 0.886364 148.516 0.886364 148.279ZM0.772727 157.139C0.772727 156.088 1.00473 155.181 1.46875 154.419C1.9375 153.661 2.59091 153.077 3.42898 152.665C4.27178 152.258 5.25189 152.054 6.36932 152.054C7.48674 152.054 8.47159 152.258 9.32386 152.665C10.1809 153.077 10.8485 153.65 11.3267 154.384C11.8097 155.122 12.0511 155.984 12.0511 156.969C12.0511 157.537 11.9564 158.098 11.767 158.652C11.5777 159.206 11.2699 159.71 10.8437 160.165C10.4223 160.619 9.86364 160.982 9.16761 161.251C8.47159 161.521 7.61458 161.656 6.59659 161.656H5.88636L5.88636 153.247H7.33523L7.33523 159.952C7.95076 159.952 8.5 159.829 8.98295 159.582C9.46591 159.341 9.84706 158.995 10.1264 158.545C10.4058 158.1 10.5455 157.575 10.5455 156.969C10.5455 156.301 10.3797 155.723 10.0483 155.236C9.72159 154.753 9.29545 154.381 8.76989 154.121C8.24432 153.86 7.68087 153.73 7.07955 153.73H6.11364C5.28977 153.73 4.59138 153.872 4.01847 154.156C3.45028 154.445 3.01705 154.845 2.71875 155.357C2.42519 155.868 2.27841 156.462 2.27841 157.139C2.27841 157.58 2.33996 157.977 2.46307 158.332C2.59091 158.692 2.7803 159.002 3.03125 159.263C3.28693 159.523 3.60417 159.724 3.98295 159.866L3.52841 161.486C2.97917 161.315 2.49621 161.029 2.07955 160.626C1.66761 160.224 1.34564 159.727 1.11364 159.135C0.886364 158.543 0.772727 157.878 0.772727 157.139ZM11.9091 168.95H10.4886L10.4886 163.297H11.9091L11.9091 168.95ZM14.5227 164.945V166.621H4.125C3.65152 166.621 3.2964 166.689 3.05966 166.827C2.82765 166.969 2.6714 167.149 2.59091 167.366C2.51515 167.589 2.47727 167.823 2.47727 168.07C2.47727 168.254 2.48674 168.406 2.50568 168.524C2.52936 168.643 2.5483 168.737 2.5625 168.808L1.05682 169.149C1.0142 169.036 0.971591 168.877 0.928977 168.673C0.881629 168.47 0.857955 168.212 0.857955 167.899C0.857955 167.426 0.959754 166.962 1.16335 166.507C1.36695 166.057 1.67708 165.683 2.09375 165.385C2.51042 165.091 3.03598 164.945 3.67045 164.945H14.5227ZM7.5625 173.382H1V171.706H15.5455V173.382H10.2045V173.524C10.768 173.78 11.2154 174.163 11.5469 174.675C11.883 175.191 12.0511 175.877 12.0511 176.734C12.0511 177.478 11.902 178.129 11.6037 178.688C11.3101 179.246 10.858 179.679 10.2472 179.987C9.6411 180.3 8.86932 180.456 7.93182 180.456H1V178.78H7.81818C8.68466 178.78 9.35464 178.555 9.82812 178.105C10.3063 177.66 10.5455 177.042 10.5455 176.251C10.5455 175.702 10.4295 175.21 10.1974 174.774C9.96544 174.343 9.62689 174.002 9.18182 173.751C8.73674 173.505 8.19697 173.382 7.5625 173.382ZM0.886364 184.744C0.886364 184.394 1.01184 184.093 1.26278 183.842C1.51373 183.591 1.81439 183.466 2.16477 183.466C2.51515 183.466 2.81581 183.591 3.06676 183.842C3.31771 184.093 3.44318 184.394 3.44318 184.744C3.44318 185.094 3.31771 185.395 3.06676 185.646C2.81581 185.897 2.51515 186.022 2.16477 186.022C1.93277 186.022 1.7197 185.963 1.52557 185.845C1.33144 185.731 1.17519 185.577 1.05682 185.383C0.943182 185.194 0.886364 184.981 0.886364 184.744ZM0.772727 193.604C0.772727 192.553 1.00473 191.646 1.46875 190.884C1.9375 190.126 2.59091 189.542 3.42898 189.13C4.27178 188.722 5.25189 188.519 6.36932 188.519C7.48674 188.519 8.47159 188.722 9.32386 189.13C10.1809 189.542 10.8485 190.114 11.3267 190.848C11.8097 191.587 12.0511 192.449 12.0511 193.434C12.0511 194.002 11.9564 194.563 11.767 195.117C11.5777 195.671 11.2699 196.175 10.8437 196.63C10.4223 197.084 9.86364 197.446 9.16761 197.716C8.47159 197.986 7.61458 198.121 6.59659 198.121H5.88636L5.88636 189.712H7.33523L7.33523 196.417C7.95076 196.417 8.5 196.293 8.98295 196.047C9.46591 195.806 9.84706 195.46 10.1264 195.01C10.4058 194.565 10.5455 194.04 10.5455 193.434C10.5455 192.766 10.3797 192.188 10.0483 191.701C9.72159 191.218 9.29545 190.846 8.76989 190.586C8.24432 190.325 7.68087 190.195 7.07955 190.195H6.11364C5.28977 190.195 4.59138 190.337 4.01847 190.621C3.45028 190.91 3.01705 191.31 2.71875 191.821C2.42519 192.333 2.27841 192.927 2.27841 193.604C2.27841 194.044 2.33996 194.442 2.46307 194.797C2.59091 195.157 2.7803 195.467 3.03125 195.728C3.28693 195.988 3.60417 196.189 3.98295 196.331L3.52841 197.951C2.97917 197.78 2.49621 197.494 2.07955 197.091C1.66761 196.689 1.34564 196.192 1.11364 195.6C0.886364 195.008 0.772727 194.343 0.772727 193.604ZM11.9091 205.529H10.4886L10.4886 199.648H11.9091L11.9091 205.529ZM1 201.409H13.4148C14.0398 201.409 14.5606 201.556 14.9773 201.85C15.3939 202.143 15.7064 202.525 15.9148 202.993C16.1231 203.462 16.2273 203.957 16.2273 204.478C16.2273 204.89 16.1941 205.226 16.1278 205.486C16.0616 205.747 16 205.941 15.9432 206.069L14.4943 205.586C14.5227 205.5 14.5582 205.382 14.6009 205.23C14.6435 205.084 14.6648 204.89 14.6648 204.648C14.6648 204.094 14.5251 203.694 14.2457 203.448C13.9664 203.206 13.5568 203.086 13.017 203.086H1V201.409ZM11.9091 212.736H10.4886L10.4886 206.855H11.9091L11.9091 212.736ZM1 208.616H13.4148C14.0398 208.616 14.5606 208.763 14.9773 209.057C15.3939 209.35 15.7064 209.732 15.9148 210.2C16.1231 210.669 16.2273 211.164 16.2273 211.685C16.2273 212.097 16.1941 212.433 16.1278 212.693C16.0616 212.954 16 213.148 15.9432 213.276L14.4943 212.793C14.5227 212.707 14.5582 212.589 14.6009 212.438C14.6435 212.291 14.6648 212.097 14.6648 211.855C14.6648 211.301 14.5251 210.901 14.2457 210.655C13.9664 210.413 13.5568 210.293 13.017 210.293H1V208.616Z" fill="white"/>
</svg>
