<svg width="251" height="193" viewBox="0 0 251 193" fill="none" xmlns="http://www.w3.org/2000/svg">
<path d="M250.5 112C250.5 118.01 247.105 123.802 240.814 129.135C234.526 134.465 225.397 139.289 214.073 143.349C191.429 151.468 160.114 156.5 125.5 156.5C90.8861 156.5 59.5708 151.468 36.9269 143.349C25.6027 139.289 16.474 134.465 10.1857 129.135C3.89535 123.802 0.5 118.01 0.5 112C0.5 105.99 3.89535 100.198 10.1857 94.8654C16.474 89.5346 25.6027 84.7113 36.9269 80.6509C59.5708 72.5315 90.8861 67.5 125.5 67.5C160.114 67.5 191.429 72.5315 214.073 80.6509C225.397 84.7113 234.526 89.5346 240.814 94.8654C247.105 100.198 250.5 105.99 250.5 112Z" stroke="#D9D9D9"/>
<path d="M222.727 160.616C219.129 164.903 213.034 167.524 204.973 168.531C196.912 169.538 186.953 168.92 175.745 166.779C153.334 162.5 126.048 152.157 99.2172 136.752C72.386 121.348 51.1284 103.82 38.4428 87.9494C32.0988 80.0126 27.915 72.5106 26.2356 65.912C24.556 59.3126 25.3924 53.672 28.9898 49.3844C32.5873 45.0968 38.6828 42.4756 46.7441 41.4689C54.8045 40.4623 64.764 41.0804 75.9716 43.2206C98.3825 47.5001 125.668 57.8429 152.499 73.2476C179.331 88.6523 200.588 106.18 213.274 122.051C219.618 129.987 223.802 137.489 225.481 144.088C227.161 150.687 226.324 156.328 222.727 160.616Z" stroke="#D9D9D9"/>
<path d="M185.354 68.3596C187.901 70.9968 188.73 74.6335 187.945 79.0269C187.16 83.42 184.769 88.5162 180.965 93.9948C173.358 104.949 160.163 117.347 143.172 128.574C126.181 139.801 108.648 147.707 94.0521 151.423C86.7523 153.281 80.2154 154.084 74.8627 153.746C69.5094 153.409 65.4049 151.936 62.8585 149.299C60.312 146.662 59.4831 143.025 60.2679 138.632C61.0526 134.239 63.4439 129.143 67.2481 123.664C74.8544 112.71 88.0497 100.312 105.041 89.085C122.032 77.858 139.565 69.9521 154.161 66.2362C161.46 64.3778 167.997 63.5747 173.35 63.9124C178.703 64.2501 182.808 65.7224 185.354 68.3596Z" stroke="#D9D9D9"/>
<ellipse cx="125" cy="105.5" rx="8" ry="6.5" fill="#D9D9D9"/>
<g filter="url(#filter0_d_4_162)">
<path d="M124.354 0.646447C124.158 0.451184 123.842 0.451184 123.646 0.646447L120.464 3.82843C120.269 4.02369 120.269 4.34027 120.464 4.53553C120.66 4.7308 120.976 4.7308 121.172 4.53553L124 1.70711L126.828 4.53553C127.024 4.7308 127.34 4.7308 127.536 4.53553C127.731 4.34027 127.731 4.02369 127.536 3.82843L124.354 0.646447ZM124.5 105V1H123.5V105H124.5Z" fill="#D9D9D9"/>
</g>
<g filter="url(#filter1_d_4_162)">
<path d="M173.879 6.85683C173.8 6.59226 173.521 6.44188 173.257 6.52096L168.945 7.80962C168.681 7.8887 168.53 8.16728 168.609 8.43186C168.688 8.69644 168.967 8.84681 169.232 8.76774L173.064 7.62226L174.21 11.4547C174.289 11.7193 174.567 11.8697 174.832 11.7906C175.096 11.7115 175.247 11.4329 175.168 11.1684L173.879 6.85683ZM124.44 98.7561L173.84 7.23752L172.96 6.76252L123.56 98.2811L124.44 98.7561Z" fill="#D9D9D9"/>
</g>
<defs>
<filter id="filter0_d_4_162" x="116.318" y="0.5" width="15.364" height="112.5" filterUnits="userSpaceOnUse" color-interpolation-filters="sRGB">
<feFlood flood-opacity="0" result="BackgroundImageFix"/>
<feColorMatrix in="SourceAlpha" type="matrix" values="0 0 0 0 0 0 0 0 0 0 0 0 0 0 0 0 0 0 127 0" result="hardAlpha"/>
<feOffset dy="4"/>
<feGaussianBlur stdDeviation="2"/>
<feComposite in2="hardAlpha" operator="out"/>
<feColorMatrix type="matrix" values="0 0 0 0 0 0 0 0 0 0 0 0 0 0 0 0 0 0 0.25 0"/>
<feBlend mode="normal" in2="BackgroundImageFix" result="effect1_dropShadow_4_162"/>
<feBlend mode="normal" in="SourceGraphic" in2="effect1_dropShadow_4_162" result="shape"/>
</filter>
<filter id="filter1_d_4_162" x="119.56" y="6.49989" width="59.6288" height="100.256" filterUnits="userSpaceOnUse" color-interpolation-filters="sRGB">
<feFlood flood-opacity="0" result="BackgroundImageFix"/>
<feColorMatrix in="SourceAlpha" type="matrix" values="0 0 0 0 0 0 0 0 0 0 0 0 0 0 0 0 0 0 127 0" result="hardAlpha"/>
<feOffset dy="4"/>
<feGaussianBlur stdDeviation="2"/>
<feComposite in2="hardAlpha" operator="out"/>
<feColorMatrix type="matrix" values="0 0 0 0 0 0 0 0 0 0 0 0 0 0 0 0 0 0 0.25 0"/>
<feBlend mode="normal" in2="BackgroundImageFix" result="effect1_dropShadow_4_162"/>
<feBlend mode="normal" in="SourceGraphic" in2="effect1_dropShadow_4_162" result="shape"/>
</filter>
</defs>
</svg>
