<svg width="255" height="172" viewBox="0 0 255 172" fill="none" xmlns="http://www.w3.org/2000/svg">
<rect x="19.5" y="0.5" width="235" height="153" stroke="#D9D9D9"/>
<line x1="19" y1="94.5" x2="49" y2="94.5" stroke="#D9D9D9"/>
<line x1="48.5" y1="95" x2="48.5" y2="65" stroke="#D9D9D9"/>
<line x1="51.4472" y1="59.2236" x2="48.4472" y2="65.2236" stroke="#D9D9D9"/>
<line x1="51.4808" y1="58.8626" x2="53.4808" y2="65.8626" stroke="#D9D9D9"/>
<line x1="54.4851" y1="62.1213" x2="53.4851" y2="66.1213" stroke="#D9D9D9"/>
<line x1="54.4472" y1="61.7764" x2="56.4472" y2="65.7764" stroke="#D9D9D9"/>
<line x1="57.4969" y1="57.0552" x2="56.4969" y2="66.0552" stroke="#D9D9D9"/>
<line x1="57.5257" y1="57.8419" x2="59.5257" y2="51.8419" stroke="#D9D9D9"/>
<line x1="62.5528" y1="58.2236" x2="59.5528" y2="52.2236" stroke="#D9D9D9"/>
<line x1="62.4851" y1="57.8787" x2="63.4851" y2="61.8787" stroke="#D9D9D9"/>
<line x1="65.416" y1="59.2774" x2="63.416" y2="62.2774" stroke="#D9D9D9"/>
<line x1="65.4743" y1="58.8419" x2="68.4743" y2="67.8419" stroke="#D9D9D9"/>
<line x1="71.5097" y1="82.0981" x2="68.5097" y2="67.0981" stroke="#D9D9D9"/>
<line x1="71.5128" y1="81.8876" x2="74.5128" y2="68.8876" stroke="#D9D9D9"/>
<line x1="77.4682" y1="61.1756" x2="74.4682" y2="69.1756" stroke="#D9D9D9"/>
<line x1="77.495" y1="60.9293" x2="78.495" y2="67.9293" stroke="#D9D9D9"/>
<line x1="80.4808" y1="61.1374" x2="78.4808" y2="68.1374" stroke="#D9D9D9"/>
<line x1="80.4872" y1="60.8876" x2="83.4872" y2="73.8876" stroke="#D9D9D9"/>
<line x1="85.4983" y1="50.0415" x2="83.4983" y2="74.0415" stroke="#D9D9D9"/>
<line x1="85.4961" y1="49.938" x2="88.4961" y2="73.938" stroke="#D9D9D9"/>
<line x1="90.4642" y1="69.1857" x2="88.4642" y2="74.1857" stroke="#D9D9D9"/>
<line x1="90.4886" y1="68.8938" x2="95.4886" y2="91.8938" stroke="#D9D9D9"/>
<line x1="97.4979" y1="70.0453" x2="95.4979" y2="92.0453" stroke="#D9D9D9"/>
<line x1="97.584" y1="70.7226" x2="99.584" y2="67.7226" stroke="#D9D9D9"/>
<line x1="101.495" y1="54.0707" x2="99.495" y2="68.0707" stroke="#D9D9D9"/>
<line x1="101.495" y1="53.9293" x2="103.495" y2="67.9293" stroke="#D9D9D9"/>
<line x1="104.49" y1="63.0981" x2="103.49" y2="68.0981" stroke="#D9D9D9"/>
<line x1="104.49" y1="62.9019" x2="105.49" y2="67.9019" stroke="#D9D9D9"/>
<line x1="108.277" y1="66.416" x2="105.277" y2="68.416" stroke="#D9D9D9"/>
<line x1="108.474" y1="65.8419" x2="109.474" y2="68.8419" stroke="#D9D9D9"/>
<line x1="110.474" y1="66.1581" x2="109.474" y2="69.1581" stroke="#D9D9D9"/>
<line x1="110.474" y1="65.8419" x2="111.474" y2="68.8419" stroke="#D9D9D9"/>
<line x1="113.502" y1="92.0415" x2="111.502" y2="68.0415" stroke="#D9D9D9"/>
<line x1="113" y1="91.5" x2="125" y2="91.5" stroke="#D9D9D9"/>
<line x1="125.5" y1="71" x2="125.5" y2="92" stroke="#D9D9D9"/>
<line x1="128.492" y1="59.9106" x2="130.492" y2="70.9106" stroke="#D9D9D9"/>
<line x1="132.447" y1="67.2236" x2="130.447" y2="71.2236" stroke="#D9D9D9"/>
<line x1="132.5" y1="67" x2="132.5" y2="71" stroke="#D9D9D9"/>
<line x1="132.447" y1="70.7764" x2="134.447" y2="74.7764" stroke="#D9D9D9"/>
<line x1="137.429" y1="70.2572" x2="134.429" y2="75.2572" stroke="#D9D9D9"/>
<line x1="137.416" y1="69.7226" x2="139.416" y2="72.7226" stroke="#D9D9D9"/>
<line x1="142.277" y1="71.416" x2="139.277" y2="73.416" stroke="#D9D9D9"/>
<line x1="142.497" y1="70.9448" x2="143.497" y2="79.9448" stroke="#D9D9D9"/>
<line x1="147.526" y1="91.1581" x2="143.526" y2="79.1581" stroke="#D9D9D9"/>
<line x1="128.482" y1="60.1316" x2="125.482" y2="71.1316" stroke="#D9D9D9"/>
<line x1="147" y1="91.5" x2="177" y2="91.5" stroke="#D9D9D9"/>
<line x1="176.5" y1="91" x2="176.5" y2="65" stroke="#D9D9D9"/>
<line x1="179.447" y1="59.2236" x2="176.447" y2="65.2236" stroke="#D9D9D9"/>
<line x1="179.481" y1="58.8626" x2="181.481" y2="65.8626" stroke="#D9D9D9"/>
<line x1="182.485" y1="62.1213" x2="181.485" y2="66.1213" stroke="#D9D9D9"/>
<line x1="182.447" y1="61.7764" x2="184.447" y2="65.7764" stroke="#D9D9D9"/>
<line x1="185.497" y1="57.0552" x2="184.497" y2="66.0552" stroke="#D9D9D9"/>
<line x1="185.526" y1="57.8419" x2="187.526" y2="51.8419" stroke="#D9D9D9"/>
<line x1="190.553" y1="58.2236" x2="187.553" y2="52.2236" stroke="#D9D9D9"/>
<line x1="190.485" y1="57.8787" x2="191.485" y2="61.8787" stroke="#D9D9D9"/>
<line x1="193.416" y1="59.2774" x2="191.416" y2="62.2774" stroke="#D9D9D9"/>
<line x1="193.474" y1="58.8419" x2="196.474" y2="67.8419" stroke="#D9D9D9"/>
<line x1="199.51" y1="82.0981" x2="196.51" y2="67.0981" stroke="#D9D9D9"/>
<line x1="199.513" y1="81.8876" x2="202.513" y2="68.8876" stroke="#D9D9D9"/>
<line x1="205.468" y1="61.1756" x2="202.468" y2="69.1756" stroke="#D9D9D9"/>
<line x1="205.495" y1="60.9293" x2="206.495" y2="67.9293" stroke="#D9D9D9"/>
<line x1="208.481" y1="61.1374" x2="206.481" y2="68.1374" stroke="#D9D9D9"/>
<line x1="208.487" y1="60.8876" x2="211.487" y2="73.8876" stroke="#D9D9D9"/>
<line x1="213.498" y1="50.0415" x2="211.498" y2="74.0415" stroke="#D9D9D9"/>
<line x1="213.496" y1="49.938" x2="216.496" y2="73.938" stroke="#D9D9D9"/>
<line x1="218.464" y1="69.1857" x2="216.464" y2="74.1857" stroke="#D9D9D9"/>
<line x1="218.489" y1="68.8938" x2="223.489" y2="91.8938" stroke="#D9D9D9"/>
<line x1="225.498" y1="70.0453" x2="223.498" y2="92.0453" stroke="#D9D9D9"/>
<line x1="225.584" y1="70.7226" x2="227.584" y2="67.7226" stroke="#D9D9D9"/>
<line x1="229.495" y1="54.0707" x2="227.495" y2="68.0707" stroke="#D9D9D9"/>
<line x1="229.495" y1="53.9293" x2="231.495" y2="67.9293" stroke="#D9D9D9"/>
<line x1="232.49" y1="63.0981" x2="231.49" y2="68.0981" stroke="#D9D9D9"/>
<line x1="232.49" y1="62.9019" x2="233.49" y2="67.9019" stroke="#D9D9D9"/>
<line x1="236.277" y1="66.416" x2="233.277" y2="68.416" stroke="#D9D9D9"/>
<line x1="236.474" y1="65.8419" x2="237.474" y2="68.8419" stroke="#D9D9D9"/>
<line x1="238.474" y1="66.1581" x2="237.474" y2="69.1581" stroke="#D9D9D9"/>
<line x1="238.474" y1="65.8419" x2="239.474" y2="68.8419" stroke="#D9D9D9"/>
<line x1="241.502" y1="92.0415" x2="239.502" y2="68.0415" stroke="#D9D9D9"/>
<line x1="241" y1="91.5" x2="253" y2="91.5" stroke="#D9D9D9"/>
<path d="M1.17614 24L5.07955 16.2784V16.2102H0.579545L0.579545 15.2727H6.17045V16.2614L2.28409 24H1.17614ZM3.85227 39.1193C3.28977 39.1193 2.78835 39.0227 2.34801 38.8295C1.91051 38.6364 1.5625 38.3679 1.30398 38.0241C1.0483 37.6776 0.909091 37.2756 0.886364 36.8182H1.96023C1.98295 37.0994 2.07955 37.3423 2.25 37.5469C2.42045 37.7486 2.64347 37.9048 2.91903 38.0156C3.1946 38.1264 3.5 38.1818 3.83523 38.1818C4.21023 38.1818 4.54261 38.1165 4.83239 37.9858C5.12216 37.8551 5.34943 37.6733 5.5142 37.4403C5.67898 37.2074 5.76136 36.9375 5.76136 36.6307C5.76136 36.3097 5.68182 36.027 5.52273 35.7827C5.36364 35.5355 5.13068 35.3423 4.82386 35.2031C4.51705 35.0639 4.14205 34.9943 3.69886 34.9943H3L3 34.0568H3.69886C4.04545 34.0568 4.34943 33.9943 4.6108 33.8693C4.875 33.7443 5.08097 33.5682 5.22869 33.3409C5.37926 33.1136 5.45455 32.8466 5.45455 32.5398C5.45455 32.2443 5.3892 31.9872 5.25852 31.7685C5.12784 31.5497 4.94318 31.3793 4.70455 31.2571C4.46875 31.1349 4.19034 31.0739 3.86932 31.0739C3.56818 31.0739 3.28409 31.1293 3.01705 31.2401C2.75284 31.348 2.53693 31.5057 2.36932 31.7131C2.2017 31.9176 2.1108 32.1648 2.09659 32.4545H1.07386C1.09091 31.9972 1.22869 31.5966 1.48722 31.2528C1.74574 30.9062 2.08381 30.6364 2.50142 30.4432C2.92188 30.25 3.38352 30.1534 3.88636 30.1534C4.42614 30.1534 4.8892 30.2628 5.27557 30.4815C5.66193 30.6974 5.95881 30.983 6.16619 31.3381C6.37358 31.6932 6.47727 32.0767 6.47727 32.4886C6.47727 32.9801 6.34801 33.3991 6.08949 33.7457C5.83381 34.0923 5.4858 34.3324 5.04545 34.4659V34.5341C5.59659 34.625 6.02699 34.8594 6.33665 35.2372C6.64631 35.6122 6.80114 36.0767 6.80114 36.6307C6.80114 37.1051 6.67188 37.5312 6.41335 37.9091C6.15767 38.2841 5.80824 38.5795 5.36506 38.7955C4.92188 39.0114 4.41761 39.1193 3.85227 39.1193ZM3.63068 54.1193C3.13068 54.1193 2.6804 54.0199 2.27983 53.821C1.87926 53.6222 1.55824 53.3494 1.31676 53.0028C1.07528 52.6562 0.943182 52.2614 0.920455 51.8182H1.94318C1.98295 52.2131 2.16193 52.5398 2.48011 52.7983C2.80114 53.054 3.18466 53.1818 3.63068 53.1818C3.98864 53.1818 4.30682 53.098 4.58523 52.9304C4.86648 52.7628 5.08665 52.5327 5.24574 52.2401C5.40767 51.9446 5.48864 51.6108 5.48864 51.2386C5.48864 50.858 5.40483 50.5185 5.23722 50.2202C5.07244 49.919 4.84517 49.6818 4.5554 49.5085C4.26563 49.3352 3.93466 49.2472 3.5625 49.2443C3.29545 49.2415 3.02131 49.2827 2.74006 49.3679C2.45881 49.4503 2.22727 49.5568 2.04545 49.6875L1.05682 49.5682L1.58523 45.2727H6.11932V46.2102H2.47159L2.16477 48.7841H2.21591C2.39489 48.642 2.61932 48.5241 2.8892 48.4304C3.15909 48.3366 3.44034 48.2898 3.73295 48.2898C4.26705 48.2898 4.7429 48.4176 5.16051 48.6733C5.58097 48.9261 5.91051 49.2727 6.14915 49.7131C6.39063 50.1534 6.51136 50.6562 6.51136 51.2216C6.51136 51.7784 6.38636 52.2756 6.13636 52.7131C5.8892 53.1477 5.5483 53.4915 5.11364 53.7443C4.67898 53.9943 4.18466 54.1193 3.63068 54.1193ZM3.69886 69.1193C3.11364 69.1193 2.59659 69.0156 2.14773 68.8082C1.7017 68.598 1.35369 68.3097 1.10369 67.9432C0.853693 67.5739 0.730114 67.1534 0.732955 66.6818C0.730114 66.3125 0.802557 65.9716 0.950284 65.6591C1.09801 65.3437 1.29972 65.081 1.5554 64.8707C1.81392 64.6577 2.10227 64.5227 2.42045 64.4659V64.4148C2.00284 64.3068 1.67045 64.0724 1.4233 63.7116C1.17614 63.348 1.05398 62.9347 1.05682 62.4716C1.05398 62.0284 1.16619 61.6321 1.39347 61.2827C1.62074 60.9332 1.93324 60.6577 2.33097 60.456C2.73153 60.2543 3.1875 60.1534 3.69886 60.1534C4.20455 60.1534 4.65625 60.2543 5.05398 60.456C5.4517 60.6577 5.7642 60.9332 5.99148 61.2827C6.22159 61.6321 6.33807 62.0284 6.34091 62.4716C6.33807 62.9347 6.21165 63.348 5.96165 63.7116C5.71449 64.0724 5.38636 64.3068 4.97727 64.4148V64.4659C5.29261 64.5227 5.5767 64.6577 5.82955 64.8707C6.08239 65.081 6.28409 65.3437 6.43466 65.6591C6.58523 65.9716 6.66193 66.3125 6.66477 66.6818C6.66193 67.1534 6.53409 67.5739 6.28125 67.9432C6.03125 68.3097 5.68324 68.598 5.23722 68.8082C4.79403 69.0156 4.28125 69.1193 3.69886 69.1193ZM3.69886 68.1818C4.09375 68.1818 4.43466 68.1179 4.72159 67.9901C5.00852 67.8622 5.23011 67.6818 5.38636 67.4489C5.54261 67.2159 5.62216 66.9432 5.625 66.6307C5.62216 66.3011 5.53693 66.0099 5.36932 65.7571C5.2017 65.5043 4.97301 65.3054 4.68324 65.1605C4.39631 65.0156 4.06818 64.9432 3.69886 64.9432C3.3267 64.9432 2.99432 65.0156 2.7017 65.1605C2.41193 65.3054 2.18324 65.5043 2.01563 65.7571C1.85085 66.0099 1.76989 66.3011 1.77273 66.6307C1.76989 66.9432 1.84517 67.2159 1.99858 67.4489C2.15483 67.6818 2.37784 67.8622 2.66761 67.9901C2.95739 68.1179 3.30114 68.1818 3.69886 68.1818ZM3.69886 64.0398C4.01136 64.0398 4.28835 63.9773 4.52983 63.8523C4.77415 63.7273 4.96591 63.5526 5.10511 63.3281C5.24432 63.1037 5.31534 62.8409 5.31818 62.5398C5.31534 62.2443 5.24574 61.9872 5.10938 61.7685C4.97301 61.5469 4.78409 61.3764 4.54261 61.2571C4.30114 61.1349 4.01989 61.0739 3.69886 61.0739C3.37216 61.0739 3.08665 61.1349 2.84233 61.2571C2.59801 61.3764 2.40909 61.5469 2.27557 61.7685C2.14205 61.9872 2.0767 62.2443 2.07955 62.5398C2.0767 62.8409 2.14347 63.1037 2.27983 63.3281C2.41903 63.5526 2.6108 63.7273 2.85511 63.8523C3.09943 63.9773 3.38068 64.0398 3.69886 64.0398ZM0.903409 84L0.903409 83.233L3.78409 80.0795C4.12216 79.7102 4.40057 79.3892 4.61932 79.1165C4.83807 78.8409 5 78.5824 5.10511 78.3409C5.21307 78.0966 5.26705 77.8409 5.26705 77.5739C5.26705 77.267 5.19318 77.0014 5.04545 76.777C4.90057 76.5526 4.7017 76.3793 4.44886 76.2571C4.19602 76.1349 3.91193 76.0739 3.59659 76.0739C3.26136 76.0739 2.96875 76.1435 2.71875 76.2827C2.47159 76.419 2.27983 76.6108 2.14347 76.858C2.00994 77.1051 1.94318 77.3949 1.94318 77.7273H0.9375C0.9375 77.2159 1.0554 76.767 1.29119 76.3807C1.52699 75.9943 1.84801 75.6932 2.25426 75.4773C2.66335 75.2614 3.12216 75.1534 3.63068 75.1534C4.14205 75.1534 4.59517 75.2614 4.99006 75.4773C5.38494 75.6932 5.6946 75.9844 5.91903 76.3509C6.14347 76.7173 6.25568 77.125 6.25568 77.5739C6.25568 77.8949 6.19744 78.2088 6.08097 78.5156C5.96733 78.8196 5.76847 79.1591 5.48438 79.5341C5.20313 79.9062 4.8125 80.3608 4.3125 80.8977L2.35227 82.9943V83.0625H6.40909L6.40909 84H0.903409ZM3.39205 99.1193C2.81818 99.1193 2.32386 99.0142 1.90909 98.804C1.49432 98.5937 1.17472 98.3054 0.950284 97.9389C0.725852 97.5724 0.613636 97.1534 0.613636 96.6818C0.613636 96.3182 0.690341 95.9957 0.84375 95.7145C1 95.4304 1.21449 95.1676 1.48722 94.9261C1.76278 94.6818 2.07955 94.4375 2.4375 94.1932L3.69886 93.2557C3.94602 93.0937 4.14347 92.9205 4.29119 92.7358C4.44176 92.5511 4.51705 92.3097 4.51705 92.0114C4.51705 91.7898 4.41903 91.5753 4.22301 91.3679C4.02983 91.1605 3.77557 91.0568 3.46023 91.0568C3.23864 91.0568 3.04261 91.1136 2.87216 91.2273C2.70455 91.3381 2.57244 91.4801 2.47585 91.6534C2.3821 91.8239 2.33523 92 2.33523 92.1818C2.33523 92.3864 2.39063 92.5938 2.50142 92.804C2.61506 93.0114 2.75852 93.2244 2.93182 93.4432C3.10795 93.6591 3.28977 93.8807 3.47727 94.108L7.48295 99H6.27273L2.96591 95.0114C2.65909 94.642 2.38068 94.3068 2.13068 94.0057C1.88068 93.7045 1.68182 93.4077 1.53409 93.1151C1.38636 92.8224 1.3125 92.5057 1.3125 92.1648C1.3125 91.7727 1.39915 91.429 1.57244 91.1335C1.74858 90.8352 1.99432 90.6037 2.30966 90.4389C2.62784 90.2713 3 90.1875 3.42614 90.1875C3.86364 90.1875 4.24006 90.2727 4.5554 90.4432C4.87074 90.6108 5.11364 90.8338 5.28409 91.1122C5.45455 91.3878 5.53977 91.6875 5.53977 92.0114C5.53977 92.429 5.43608 92.7912 5.22869 93.098C5.02131 93.4048 4.73864 93.6903 4.38068 93.9545L2.64205 95.25C2.25 95.5398 1.98438 95.821 1.84517 96.0938C1.70597 96.3665 1.63636 96.5625 1.63636 96.6818C1.63636 96.9545 1.70739 97.2088 1.84943 97.4446C1.99148 97.6804 2.19176 97.8707 2.45028 98.0156C2.70881 98.1605 3.01136 98.233 3.35795 98.233C3.6875 98.233 4.00852 98.1634 4.32102 98.0241C4.63352 97.8821 4.91619 97.6776 5.16903 97.4105C5.42472 97.1435 5.62642 96.8224 5.77415 96.4474C5.92472 96.0724 6 95.6506 6 95.1818H6.97159C6.97159 95.7614 6.90483 96.2344 6.77131 96.6009C6.63778 96.9673 6.48722 97.2543 6.3196 97.4616C6.15199 97.669 6.01705 97.8239 5.91477 97.9261C5.88068 97.9687 5.84943 98.0114 5.82102 98.054C5.79261 98.0966 5.76136 98.1392 5.72727 98.1818C5.44602 98.4972 5.09091 98.733 4.66193 98.8892C4.23295 99.0426 3.80966 99.1193 3.39205 99.1193ZM1.17614 114L5.07955 106.278V106.21H0.579545L0.579545 105.273H6.17045V106.261L2.28409 114H1.17614ZM5.38636 131.455V127.994H5.30114C5.22727 128.114 5.12216 128.264 4.9858 128.446C4.84943 128.625 4.65483 128.786 4.40199 128.928C4.14915 129.067 3.8125 129.136 3.39205 129.136C2.84659 129.136 2.36506 128.999 1.94744 128.723C1.52983 128.445 1.20313 128.053 0.96733 127.547C0.731534 127.038 0.613636 126.438 0.613636 125.744C0.613636 125.057 0.731534 124.46 0.96733 123.955C1.20313 123.449 1.53125 123.058 1.9517 122.783C2.37216 122.507 2.85795 122.369 3.40909 122.369C3.83523 122.369 4.17188 122.44 4.41903 122.582C4.66903 122.722 4.85938 122.881 4.99006 123.06C5.12358 123.236 5.22727 123.381 5.30114 123.494H5.42045V122.455H6.39205L6.39205 131.455H5.38636ZM3.52841 128.233C3.93182 128.233 4.27273 128.128 4.55114 127.918C4.82955 127.705 5.04119 127.411 5.18608 127.036C5.33097 126.658 5.40341 126.222 5.40341 125.727C5.40341 125.239 5.33239 124.811 5.19034 124.445C5.0483 124.075 4.83807 123.788 4.55966 123.584C4.28125 123.376 3.9375 123.273 3.52841 123.273C3.10227 123.273 2.74716 123.382 2.46307 123.601C2.18182 123.817 1.97017 124.111 1.82813 124.483C1.68892 124.852 1.61932 125.267 1.61932 125.727C1.61932 126.193 1.69034 126.616 1.83239 126.997C1.97727 127.375 2.19034 127.676 2.47159 127.901C2.75568 128.122 3.10795 128.233 3.52841 128.233ZM3.85227 144.119C3.28977 144.119 2.78835 144.023 2.34801 143.83C1.91051 143.636 1.5625 143.368 1.30398 143.024C1.0483 142.678 0.909091 142.276 0.886364 141.818H1.96023C1.98295 142.099 2.07955 142.342 2.25 142.547C2.42045 142.749 2.64347 142.905 2.91903 143.016C3.1946 143.126 3.5 143.182 3.83523 143.182C4.21023 143.182 4.54261 143.116 4.83239 142.986C5.12216 142.855 5.34943 142.673 5.5142 142.44C5.67898 142.207 5.76136 141.938 5.76136 141.631C5.76136 141.31 5.68182 141.027 5.52273 140.783C5.36364 140.536 5.13068 140.342 4.82386 140.203C4.51705 140.064 4.14205 139.994 3.69886 139.994H3V139.057H3.69886C4.04545 139.057 4.34943 138.994 4.6108 138.869C4.875 138.744 5.08097 138.568 5.22869 138.341C5.37926 138.114 5.45455 137.847 5.45455 137.54C5.45455 137.244 5.3892 136.987 5.25852 136.768C5.12784 136.55 4.94318 136.379 4.70455 136.257C4.46875 136.135 4.19034 136.074 3.86932 136.074C3.56818 136.074 3.28409 136.129 3.01705 136.24C2.75284 136.348 2.53693 136.506 2.36932 136.713C2.2017 136.918 2.1108 137.165 2.09659 137.455H1.07386C1.09091 136.997 1.22869 136.597 1.48722 136.253C1.74574 135.906 2.08381 135.636 2.50142 135.443C2.92188 135.25 3.38352 135.153 3.88636 135.153C4.42614 135.153 4.8892 135.263 5.27557 135.482C5.66193 135.697 5.95881 135.983 6.16619 136.338C6.37358 136.693 6.47727 137.077 6.47727 137.489C6.47727 137.98 6.34801 138.399 6.08949 138.746C5.83381 139.092 5.4858 139.332 5.04545 139.466V139.534C5.59659 139.625 6.02699 139.859 6.33665 140.237C6.64631 140.612 6.80114 141.077 6.80114 141.631C6.80114 142.105 6.67188 142.531 6.41335 142.909C6.15767 143.284 5.80824 143.58 5.36506 143.795C4.92188 144.011 4.41761 144.119 3.85227 144.119Z" fill="white"/>
<path d="M22.9261 165.062L22.9261 169H21.9205L21.9205 162.455H22.892V163.477H22.9773C23.1307 163.145 23.3636 162.878 23.6761 162.676C23.9886 162.472 24.392 162.369 24.8864 162.369C25.3295 162.369 25.7173 162.46 26.0497 162.642C26.3821 162.821 26.6406 163.094 26.8253 163.46C27.0099 163.824 27.1023 164.284 27.1023 164.841V169H26.0966V164.909C26.0966 164.395 25.9631 163.994 25.696 163.707C25.429 163.418 25.0625 163.273 24.5966 163.273C24.2756 163.273 23.9886 163.342 23.7358 163.482C23.4858 163.621 23.2884 163.824 23.1435 164.091C22.9986 164.358 22.9261 164.682 22.9261 165.062ZM33.065 166.324V162.455H34.0707V169H33.065V167.892H32.9968C32.8434 168.224 32.6048 168.507 32.2809 168.74C31.957 168.97 31.5479 169.085 31.0536 169.085C30.6445 169.085 30.2809 168.996 29.9627 168.817C29.6445 168.635 29.3945 168.362 29.2127 167.999C29.0309 167.632 28.94 167.17 28.94 166.614V162.455H29.9457V166.545C29.9457 167.023 30.0792 167.403 30.3462 167.688C30.6161 167.972 30.9599 168.114 31.3775 168.114C31.6275 168.114 31.8817 168.05 32.1403 167.922C32.4016 167.794 32.6204 167.598 32.7965 167.334C32.9755 167.07 33.065 166.733 33.065 166.324ZM36.9183 160.273V169H35.9126V160.273H36.9183ZM39.766 160.273V169H38.7603V160.273H39.766Z" fill="white"/>
<path d="M241.227 163.273H242.386L243.358 164.551L243.614 164.892L245.062 166.818H243.903L242.949 165.54L242.71 165.216L241.227 163.273ZM245.42 161.636C245.42 162.557 245.254 163.352 244.922 164.023C244.589 164.693 244.134 165.21 243.554 165.574C242.974 165.938 242.313 166.119 241.568 166.119C240.824 166.119 240.162 165.938 239.582 165.574C239.003 165.21 238.547 164.693 238.214 164.023C237.882 163.352 237.716 162.557 237.716 161.636C237.716 160.716 237.882 159.92 238.214 159.25C238.547 158.58 239.003 158.062 239.582 157.699C240.162 157.335 240.824 157.153 241.568 157.153C242.313 157.153 242.974 157.335 243.554 157.699C244.134 158.062 244.589 158.58 244.922 159.25C245.254 159.92 245.42 160.716 245.42 161.636ZM244.398 161.636C244.398 160.881 244.271 160.243 244.018 159.723C243.768 159.203 243.429 158.81 243 158.543C242.574 158.276 242.097 158.142 241.568 158.142C241.04 158.142 240.561 158.276 240.132 158.543C239.706 158.81 239.366 159.203 239.114 159.723C238.864 160.243 238.739 160.881 238.739 161.636C238.739 162.392 238.864 163.03 239.114 163.55C239.366 164.07 239.706 164.463 240.132 164.73C240.561 164.997 241.04 165.131 241.568 165.131C242.097 165.131 242.574 164.997 243 164.73C243.429 164.463 243.768 164.07 244.018 163.55C244.271 163.03 244.398 162.392 244.398 161.636ZM248.732 162.182L248.8 160.307L247.214 161.312L246.805 160.597L248.476 159.727L246.805 158.858L247.214 158.142L248.8 159.148L248.732 157.273H249.55L249.482 159.148L251.067 158.142L251.476 158.858L249.805 159.727L251.476 160.597L251.067 161.312L249.482 160.307L249.55 162.182H248.732Z" fill="white"/>
<path d="M33.5 135L39.9952 146.25H27.0048L33.5 135Z" fill="#D9D9D9"/>
</svg>
