<svg width="58" height="47" viewBox="0 0 58 47" fill="none" xmlns="http://www.w3.org/2000/svg">
<path d="M2.8267 44.1136C2.37216 44.1136 1.97088 43.9988 1.62287 43.7692C1.27486 43.5372 1.0026 43.2105 0.806108 42.7891C0.609612 42.3653 0.511364 41.8646 0.511364 41.2869C0.511364 40.714 0.609612 40.2169 0.806108 39.7955C1.0026 39.3741 1.27604 39.0485 1.62642 38.8189C1.9768 38.5893 2.38163 38.4744 2.84091 38.4744C3.19602 38.4744 3.47656 38.5336 3.68253 38.652C3.89086 38.768 4.04948 38.9006 4.15838 39.0497C4.26965 39.1965 4.35606 39.3172 4.41761 39.4119H4.48864V36.7273H5.3267V44H4.51705V43.1619H4.41761C4.35606 43.2614 4.26847 43.3868 4.15483 43.5384C4.04119 43.6875 3.87902 43.8213 3.66832 43.9396C3.45762 44.0556 3.17708 44.1136 2.8267 44.1136ZM2.94034 43.3608C3.27652 43.3608 3.56061 43.2732 3.79261 43.098C4.02462 42.9205 4.20099 42.6754 4.32173 42.3629C4.44247 42.0481 4.50284 41.6847 4.50284 41.2727C4.50284 40.8655 4.44366 40.5092 4.32528 40.2038C4.20691 39.8961 4.03172 39.657 3.79972 39.4865C3.56771 39.3137 3.28125 39.2273 2.94034 39.2273C2.58523 39.2273 2.2893 39.3184 2.05256 39.5007C1.81818 39.6806 1.64181 39.9257 1.52344 40.2358C1.40743 40.5436 1.34943 40.8892 1.34943 41.2727C1.34943 41.661 1.40862 42.0137 1.52699 42.331C1.64773 42.6458 1.82528 42.8968 2.05966 43.0838C2.2964 43.2685 2.58996 43.3608 2.94034 43.3608ZM6.97798 44V38.5455H7.78764V39.3693H7.84446C7.94389 39.0994 8.12382 38.8804 8.38423 38.7124C8.64465 38.5443 8.93821 38.4602 9.26491 38.4602C9.32647 38.4602 9.40341 38.4614 9.49574 38.4638C9.58807 38.4661 9.65791 38.4697 9.70526 38.4744V39.3267C9.67685 39.3196 9.61174 39.3089 9.50994 39.2947C9.41051 39.2782 9.30516 39.2699 9.19389 39.2699C8.92874 39.2699 8.692 39.3255 8.48366 39.4368C8.2777 39.5457 8.11435 39.6972 7.99361 39.8913C7.87524 40.0831 7.81605 40.3021 7.81605 40.5483V44H6.97798ZM12.3038 44.1278C11.9582 44.1278 11.6445 44.0627 11.3627 43.9325C11.081 43.8 10.8573 43.6094 10.6916 43.3608C10.5259 43.1098 10.443 42.8068 10.443 42.4517C10.443 42.1392 10.5046 41.8859 10.6277 41.6918C10.7508 41.4953 10.9153 41.3414 11.1213 41.2301C11.3272 41.1188 11.5545 41.036 11.8031 40.9815C12.054 40.9247 12.3062 40.8797 12.5595 40.8466C12.8909 40.804 13.1596 40.772 13.3656 40.7507C13.5739 40.727 13.7254 40.688 13.8201 40.6335C13.9172 40.5791 13.9657 40.4844 13.9657 40.3494V40.321C13.9657 39.9706 13.8699 39.6984 13.6781 39.5043C13.4887 39.3101 13.2011 39.2131 12.8152 39.2131C12.4151 39.2131 12.1014 39.3007 11.8741 39.4759C11.6468 39.651 11.487 39.8381 11.3947 40.0369L10.5993 39.7528C10.7413 39.4214 10.9307 39.1634 11.1674 38.9787C11.4065 38.7917 11.667 38.6615 11.9487 38.5881C12.2328 38.5123 12.5121 38.4744 12.7868 38.4744C12.9619 38.4744 13.1632 38.4957 13.3904 38.5384C13.6201 38.5786 13.8414 38.6626 14.0545 38.7905C14.2699 38.9183 14.4487 39.1113 14.5907 39.3693C14.7328 39.6274 14.8038 39.973 14.8038 40.4062V44H13.9657V43.2614H13.9231C13.8663 43.3797 13.7716 43.5064 13.639 43.6413C13.5065 43.7763 13.3301 43.8911 13.1099 43.9858C12.8897 44.0805 12.621 44.1278 12.3038 44.1278ZM12.4316 43.375C12.7631 43.375 13.0424 43.3099 13.2697 43.1797C13.4993 43.0495 13.6722 42.8814 13.7882 42.6754C13.9065 42.4695 13.9657 42.2528 13.9657 42.0256V41.2585C13.9302 41.3011 13.8521 41.3402 13.7314 41.3757C13.613 41.4089 13.4757 41.4384 13.3194 41.4645C13.1655 41.4882 13.0152 41.5095 12.8684 41.5284C12.724 41.545 12.6068 41.5592 12.5169 41.571C12.2991 41.5994 12.0955 41.6456 11.9061 41.7095C11.719 41.7711 11.5675 41.8646 11.4515 41.9901C11.3379 42.1132 11.2811 42.2812 11.2811 42.4943C11.2811 42.7855 11.3888 43.0057 11.6042 43.1548C11.822 43.3016 12.0978 43.375 12.4316 43.375ZM18.5352 46.1591C18.1303 46.1591 17.7823 46.107 17.4911 46.0028C17.1999 45.901 16.9573 45.7661 16.7631 45.598C16.5714 45.4323 16.4187 45.2547 16.305 45.0653L16.9727 44.5966C17.0484 44.696 17.1443 44.8097 17.2603 44.9375C17.3763 45.0677 17.5349 45.1802 17.7362 45.2749C17.9397 45.3719 18.2061 45.4205 18.5352 45.4205C18.9755 45.4205 19.3389 45.3139 19.6254 45.1009C19.9118 44.8878 20.055 44.554 20.055 44.0994V42.9915H19.984C19.9225 43.0909 19.8349 43.214 19.7212 43.3608C19.61 43.5052 19.449 43.6342 19.2383 43.7479C19.0299 43.8591 18.7482 43.9148 18.3931 43.9148C17.9528 43.9148 17.5574 43.8106 17.207 43.6023C16.859 43.3939 16.5832 43.0909 16.3796 42.6932C16.1784 42.2955 16.0778 41.8125 16.0778 41.2443C16.0778 40.6856 16.176 40.1991 16.3725 39.7848C16.569 39.3681 16.8424 39.0462 17.1928 38.8189C17.5432 38.5893 17.948 38.4744 18.4073 38.4744C18.7624 38.4744 19.0442 38.5336 19.2525 38.652C19.4632 38.768 19.6242 38.9006 19.7354 39.0497C19.8491 39.1965 19.9367 39.3172 19.9982 39.4119H20.0835V38.5455H20.8931V44.1562C20.8931 44.625 20.7866 45.0062 20.5735 45.2997C20.3628 45.5956 20.0787 45.8123 19.7212 45.9496C19.3661 46.0893 18.9708 46.1591 18.5352 46.1591ZM18.5067 43.1619C18.8429 43.1619 19.127 43.085 19.359 42.9311C19.591 42.7772 19.7674 42.5559 19.8881 42.267C20.0089 41.9782 20.0692 41.6326 20.0692 41.2301C20.0692 40.8371 20.0101 40.4903 19.8917 40.1896C19.7733 39.889 19.5981 39.6534 19.3661 39.483C19.1341 39.3125 18.8477 39.2273 18.5067 39.2273C18.1516 39.2273 17.8557 39.3172 17.619 39.4972C17.3846 39.6771 17.2082 39.9186 17.0898 40.2216C16.9738 40.5246 16.9158 40.8608 16.9158 41.2301C16.9158 41.6089 16.975 41.9439 17.0934 42.2351C17.2141 42.5239 17.3917 42.7512 17.6261 42.9169C17.8628 43.0803 18.1564 43.1619 18.5067 43.1619ZM26.8448 44.1278C26.4992 44.1278 26.1855 44.0627 25.9038 43.9325C25.622 43.8 25.3983 43.6094 25.2326 43.3608C25.0669 43.1098 24.984 42.8068 24.984 42.4517C24.984 42.1392 25.0456 41.8859 25.1687 41.6918C25.2918 41.4953 25.4563 41.3414 25.6623 41.2301C25.8683 41.1188 26.0955 41.036 26.3441 40.9815C26.5951 40.9247 26.8472 40.8797 27.1005 40.8466C27.4319 40.804 27.7006 40.772 27.9066 40.7507C28.1149 40.727 28.2665 40.688 28.3612 40.6335C28.4582 40.5791 28.5067 40.4844 28.5067 40.3494V40.321C28.5067 39.9706 28.4109 39.6984 28.2191 39.5043C28.0297 39.3101 27.7421 39.2131 27.3562 39.2131C26.9561 39.2131 26.6424 39.3007 26.4151 39.4759C26.1879 39.651 26.0281 39.8381 25.9357 40.0369L25.1403 39.7528C25.2823 39.4214 25.4717 39.1634 25.7085 38.9787C25.9476 38.7917 26.208 38.6615 26.4897 38.5881C26.7738 38.5123 27.0531 38.4744 27.3278 38.4744C27.503 38.4744 27.7042 38.4957 27.9315 38.5384C28.1611 38.5786 28.3825 38.6626 28.5955 38.7905C28.811 38.9183 28.9897 39.1113 29.1317 39.3693C29.2738 39.6274 29.3448 39.973 29.3448 40.4062V44H28.5067V43.2614H28.4641C28.4073 43.3797 28.3126 43.5064 28.18 43.6413C28.0475 43.7763 27.8711 43.8911 27.6509 43.9858C27.4308 44.0805 27.1621 44.1278 26.8448 44.1278ZM26.9727 43.375C27.3041 43.375 27.5835 43.3099 27.8107 43.1797C28.0404 43.0495 28.2132 42.8814 28.3292 42.6754C28.4476 42.4695 28.5067 42.2528 28.5067 42.0256V41.2585C28.4712 41.3011 28.3931 41.3402 28.2724 41.3757C28.154 41.4089 28.0167 41.4384 27.8604 41.4645C27.7066 41.4882 27.5562 41.5095 27.4094 41.5284C27.265 41.545 27.1478 41.5592 27.0579 41.571C26.8401 41.5994 26.6365 41.6456 26.4471 41.7095C26.2601 41.7711 26.1085 41.8646 25.9925 41.9901C25.8789 42.1132 25.8221 42.2812 25.8221 42.4943C25.8221 42.7855 25.9298 43.0057 26.1452 43.1548C26.363 43.3016 26.6388 43.375 26.9727 43.375ZM30.8745 44V38.5455H31.6841V39.3693H31.7409C31.8404 39.0994 32.0203 38.8804 32.2807 38.7124C32.5411 38.5443 32.8347 38.4602 33.1614 38.4602C33.223 38.4602 33.2999 38.4614 33.3922 38.4638C33.4846 38.4661 33.5544 38.4697 33.6017 38.4744V39.3267C33.5733 39.3196 33.5082 39.3089 33.4064 39.2947C33.307 39.2782 33.2016 39.2699 33.0904 39.2699C32.8252 39.2699 32.5885 39.3255 32.3801 39.4368C32.1742 39.5457 32.0108 39.6972 31.8901 39.8913C31.7717 40.0831 31.7125 40.3021 31.7125 40.5483V44H30.8745ZM36.6451 44.1136C36.1526 44.1136 35.7206 43.9964 35.3489 43.7621C34.9796 43.5277 34.6908 43.1998 34.4824 42.7784C34.2765 42.357 34.1735 41.8646 34.1735 41.3011C34.1735 40.733 34.2765 40.237 34.4824 39.8132C34.6908 39.3894 34.9796 39.0604 35.3489 38.826C35.7206 38.5916 36.1526 38.4744 36.6451 38.4744C37.1375 38.4744 37.5684 38.5916 37.9377 38.826C38.3094 39.0604 38.5982 39.3894 38.8042 39.8132C39.0125 40.237 39.1167 40.733 39.1167 41.3011C39.1167 41.8646 39.0125 42.357 38.8042 42.7784C38.5982 43.1998 38.3094 43.5277 37.9377 43.7621C37.5684 43.9964 37.1375 44.1136 36.6451 44.1136ZM36.6451 43.3608C37.0191 43.3608 37.3269 43.2649 37.5684 43.0732C37.8098 42.8814 37.9886 42.6293 38.1046 42.3168C38.2206 42.0043 38.2786 41.6657 38.2786 41.3011C38.2786 40.9366 38.2206 40.5968 38.1046 40.282C37.9886 39.9671 37.8098 39.7126 37.5684 39.5185C37.3269 39.3243 37.0191 39.2273 36.6451 39.2273C36.271 39.2273 35.9632 39.3243 35.7218 39.5185C35.4803 39.7126 35.3016 39.9671 35.1855 40.282C35.0695 40.5968 35.0115 40.9366 35.0115 41.3011C35.0115 41.6657 35.0695 42.0043 35.1855 42.3168C35.3016 42.6293 35.4803 42.8814 35.7218 43.0732C35.9632 43.2649 36.271 43.3608 36.6451 43.3608ZM43.8335 41.7699V38.5455H44.6715V44H43.8335V43.0767H43.7766C43.6488 43.3537 43.4499 43.5893 43.18 43.7834C42.9102 43.9751 42.5692 44.071 42.1573 44.071C41.8164 44.071 41.5134 43.9964 41.2482 43.8473C40.9831 43.6958 40.7747 43.4685 40.6232 43.1655C40.4717 42.8601 40.396 42.4754 40.396 42.0114V38.5455H41.234V41.9545C41.234 42.3523 41.3453 42.6695 41.5678 42.9062C41.7927 43.143 42.0792 43.2614 42.4272 43.2614C42.6355 43.2614 42.8474 43.2081 43.0629 43.1016C43.2807 42.995 43.4629 42.8317 43.6097 42.6115C43.7589 42.3913 43.8335 42.1108 43.8335 41.7699ZM47.0446 40.7188V44H46.2065V38.5455H47.0162V39.3977H47.0872C47.215 39.1207 47.4092 38.8982 47.6696 38.7301C47.93 38.5597 48.2662 38.4744 48.6781 38.4744C49.0474 38.4744 49.3706 38.5502 49.6475 38.7017C49.9245 38.8509 50.14 39.0781 50.2939 39.3835C50.4477 39.6866 50.5247 40.0701 50.5247 40.5341V44H49.6866V40.5909C49.6866 40.1624 49.5753 39.8286 49.3528 39.5895C49.1303 39.348 48.8249 39.2273 48.4366 39.2273C48.1691 39.2273 47.93 39.2853 47.7193 39.4013C47.5109 39.5173 47.3464 39.6866 47.2257 39.9091C47.1049 40.1316 47.0446 40.4015 47.0446 40.7188ZM54.1158 44.1136C53.6612 44.1136 53.2599 43.9988 52.9119 43.7692C52.5639 43.5372 52.2917 43.2105 52.0952 42.7891C51.8987 42.3653 51.8004 41.8646 51.8004 41.2869C51.8004 40.714 51.8987 40.2169 52.0952 39.7955C52.2917 39.3741 52.5651 39.0485 52.9155 38.8189C53.2659 38.5893 53.6707 38.4744 54.13 38.4744C54.4851 38.4744 54.7656 38.5336 54.9716 38.652C55.1799 38.768 55.3385 38.9006 55.4474 39.0497C55.5587 39.1965 55.6451 39.3172 55.7067 39.4119H55.7777V36.7273H56.6158V44H55.8061V43.1619H55.7067C55.6451 43.2614 55.5575 43.3868 55.4439 43.5384C55.3303 43.6875 55.1681 43.8213 54.9574 43.9396C54.7467 44.0556 54.4661 44.1136 54.1158 44.1136ZM54.2294 43.3608C54.5656 43.3608 54.8497 43.2732 55.0817 43.098C55.3137 42.9205 55.4901 42.6754 55.6108 42.3629C55.7315 42.0481 55.7919 41.6847 55.7919 41.2727C55.7919 40.8655 55.7327 40.5092 55.6143 40.2038C55.496 39.8961 55.3208 39.657 55.0888 39.4865C54.8568 39.3137 54.5703 39.2273 54.2294 39.2273C53.8743 39.2273 53.5784 39.3184 53.3416 39.5007C53.1072 39.6806 52.9309 39.9257 52.8125 40.2358C52.6965 40.5436 52.6385 40.8892 52.6385 41.2727C52.6385 41.661 52.6977 42.0137 52.8161 42.331C52.9368 42.6458 53.1143 42.8968 53.3487 43.0838C53.5855 43.2685 53.879 43.3608 54.2294 43.3608Z" fill="white"/>
<rect x="17" width="20" height="30" rx="10" fill="#D9D9D9"/>
<rect x="25" y="3" width="4" height="11" rx="2" fill="black"/>
</svg>