<svg width="56" height="46" viewBox="0 0 56 46" fill="none" xmlns="http://www.w3.org/2000/svg">
<path d="M1.60511 36.7273V44H0.767045V36.7273H1.60511ZM5.356 44.1136C4.86358 44.1136 4.43152 43.9964 4.05984 43.7621C3.69052 43.5277 3.40169 43.1998 3.19336 42.7784C2.98739 42.357 2.88441 41.8646 2.88441 41.3011C2.88441 40.733 2.98739 40.237 3.19336 39.8132C3.40169 39.3894 3.69052 39.0604 4.05984 38.826C4.43152 38.5916 4.86358 38.4744 5.356 38.4744C5.84843 38.4744 6.2793 38.5916 6.64862 38.826C7.0203 39.0604 7.30913 39.3894 7.51509 39.8132C7.72343 40.237 7.82759 40.733 7.82759 41.3011C7.82759 41.8646 7.72343 42.357 7.51509 42.7784C7.30913 43.1998 7.0203 43.5277 6.64862 43.7621C6.2793 43.9964 5.84843 44.1136 5.356 44.1136ZM5.356 43.3608C5.73005 43.3608 6.03782 43.2649 6.2793 43.0732C6.52077 42.8814 6.69951 42.6293 6.81552 42.3168C6.93152 42.0043 6.98952 41.6657 6.98952 41.3011C6.98952 40.9366 6.93152 40.5968 6.81552 40.282C6.69951 39.9671 6.52077 39.7126 6.2793 39.5185C6.03782 39.3243 5.73005 39.2273 5.356 39.2273C4.98195 39.2273 4.67418 39.3243 4.43271 39.5185C4.19123 39.7126 4.01249 39.9671 3.89648 40.282C3.78048 40.5968 3.72248 40.9366 3.72248 41.3011C3.72248 41.6657 3.78048 42.0043 3.89648 42.3168C4.01249 42.6293 4.19123 42.8814 4.43271 43.0732C4.67418 43.2649 4.98195 43.3608 5.356 43.3608ZM11.3228 44.1136C10.8304 44.1136 10.3983 43.9964 10.0266 43.7621C9.65732 43.5277 9.36849 43.1998 9.16016 42.7784C8.95419 42.357 8.85121 41.8646 8.85121 41.3011C8.85121 40.733 8.95419 40.237 9.16016 39.8132C9.36849 39.3894 9.65732 39.0604 10.0266 38.826C10.3983 38.5916 10.8304 38.4744 11.3228 38.4744C11.8152 38.4744 12.2461 38.5916 12.6154 38.826C12.9871 39.0604 13.2759 39.3894 13.4819 39.8132C13.6902 40.237 13.7944 40.733 13.7944 41.3011C13.7944 41.8646 13.6902 42.357 13.4819 42.7784C13.2759 43.1998 12.9871 43.5277 12.6154 43.7621C12.2461 43.9964 11.8152 44.1136 11.3228 44.1136ZM11.3228 43.3608C11.6969 43.3608 12.0046 43.2649 12.2461 43.0732C12.4876 42.8814 12.6663 42.6293 12.7823 42.3168C12.8983 42.0043 12.9563 41.6657 12.9563 41.3011C12.9563 40.9366 12.8983 40.5968 12.7823 40.282C12.6663 39.9671 12.4876 39.7126 12.2461 39.5185C12.0046 39.3243 11.6969 39.2273 11.3228 39.2273C10.9487 39.2273 10.641 39.3243 10.3995 39.5185C10.158 39.7126 9.97929 39.9671 9.86328 40.282C9.74728 40.5968 9.68928 40.9366 9.68928 41.3011C9.68928 41.6657 9.74728 42.0043 9.86328 42.3168C9.97929 42.6293 10.158 42.8814 10.3995 43.0732C10.641 43.2649 10.9487 43.3608 11.3228 43.3608ZM15.8549 42.0114L15.8407 40.9744H16.0112L18.3975 38.5455H19.4345L16.8919 41.1165H16.8208L15.8549 42.0114ZM15.0737 44V36.7273H15.9118V44H15.0737ZM18.5396 44L16.4089 41.3011L17.0055 40.7188L19.6049 44H18.5396ZM24.9308 44.1278C24.5851 44.1278 24.2714 44.0627 23.9897 43.9325C23.708 43.8 23.4843 43.6094 23.3185 43.3608C23.1528 43.1098 23.07 42.8068 23.07 42.4517C23.07 42.1392 23.1315 41.8859 23.2546 41.6918C23.3777 41.4953 23.5423 41.3414 23.7482 41.2301C23.9542 41.1188 24.1815 41.036 24.43 40.9815C24.681 40.9247 24.9331 40.8797 25.1864 40.8466C25.5179 40.804 25.7866 40.772 25.9925 40.7507C26.2009 40.727 26.3524 40.688 26.4471 40.6335C26.5442 40.5791 26.5927 40.4844 26.5927 40.3494V40.321C26.5927 39.9706 26.4968 39.6984 26.305 39.5043C26.1156 39.3101 25.828 39.2131 25.4421 39.2131C25.042 39.2131 24.7283 39.3007 24.5011 39.4759C24.2738 39.651 24.114 39.8381 24.0217 40.0369L23.2262 39.7528C23.3683 39.4214 23.5576 39.1634 23.7944 38.9787C24.0335 38.7917 24.2939 38.6615 24.5756 38.5881C24.8597 38.5123 25.1391 38.4744 25.4137 38.4744C25.5889 38.4744 25.7901 38.4957 26.0174 38.5384C26.247 38.5786 26.4684 38.6626 26.6815 38.7905C26.8969 38.9183 27.0756 39.1113 27.2177 39.3693C27.3597 39.6274 27.4308 39.973 27.4308 40.4062V44H26.5927V43.2614H26.5501C26.4933 43.3797 26.3986 43.5064 26.266 43.6413C26.1334 43.7763 25.957 43.8911 25.7369 43.9858C25.5167 44.0805 25.248 44.1278 24.9308 44.1278ZM25.0586 43.375C25.39 43.375 25.6694 43.3099 25.8967 43.1797C26.1263 43.0495 26.2991 42.8814 26.4151 42.6754C26.5335 42.4695 26.5927 42.2528 26.5927 42.0256V41.2585C26.5572 41.3011 26.479 41.3402 26.3583 41.3757C26.2399 41.4089 26.1026 41.4384 25.9464 41.4645C25.7925 41.4882 25.6422 41.5095 25.4954 41.5284C25.351 41.545 25.2338 41.5592 25.1438 41.571C24.926 41.5994 24.7224 41.6456 24.533 41.7095C24.346 41.7711 24.1945 41.8646 24.0785 41.9901C23.9648 42.1132 23.908 42.2812 23.908 42.4943C23.908 42.7855 24.0157 43.0057 24.2312 43.1548C24.449 43.3016 24.7248 43.375 25.0586 43.375ZM28.9604 44V38.5455H29.7701V39.3693H29.8269C29.9263 39.0994 30.1062 38.8804 30.3667 38.7124C30.6271 38.5443 30.9206 38.4602 31.2473 38.4602C31.3089 38.4602 31.3858 38.4614 31.4782 38.4638C31.5705 38.4661 31.6403 38.4697 31.6877 38.4744V39.3267C31.6593 39.3196 31.5942 39.3089 31.4924 39.2947C31.3929 39.2782 31.2876 39.2699 31.1763 39.2699C30.9112 39.2699 30.6744 39.3255 30.4661 39.4368C30.2601 39.5457 30.0968 39.6972 29.976 39.8913C29.8577 40.0831 29.7985 40.3021 29.7985 40.5483V44H28.9604ZM34.731 44.1136C34.2386 44.1136 33.8065 43.9964 33.4348 43.7621C33.0655 43.5277 32.7767 43.1998 32.5684 42.7784C32.3624 42.357 32.2594 41.8646 32.2594 41.3011C32.2594 40.733 32.3624 40.237 32.5684 39.8132C32.7767 39.3894 33.0655 39.0604 33.4348 38.826C33.8065 38.5916 34.2386 38.4744 34.731 38.4744C35.2234 38.4744 35.6543 38.5916 36.0236 38.826C36.3953 39.0604 36.6841 39.3894 36.8901 39.8132C37.0984 40.237 37.2026 40.733 37.2026 41.3011C37.2026 41.8646 37.0984 42.357 36.8901 42.7784C36.6841 43.1998 36.3953 43.5277 36.0236 43.7621C35.6543 43.9964 35.2234 44.1136 34.731 44.1136ZM34.731 43.3608C35.1051 43.3608 35.4128 43.2649 35.6543 43.0732C35.8958 42.8814 36.0745 42.6293 36.1905 42.3168C36.3065 42.0043 36.3645 41.6657 36.3645 41.3011C36.3645 40.9366 36.3065 40.5968 36.1905 40.282C36.0745 39.9671 35.8958 39.7126 35.6543 39.5185C35.4128 39.3243 35.1051 39.2273 34.731 39.2273C34.3569 39.2273 34.0492 39.3243 33.8077 39.5185C33.5662 39.7126 33.3875 39.9671 33.2715 40.282C33.1555 40.5968 33.0975 40.9366 33.0975 41.3011C33.0975 41.6657 33.1555 42.0043 33.2715 42.3168C33.3875 42.6293 33.5662 42.8814 33.8077 43.0732C34.0492 43.2649 34.3569 43.3608 34.731 43.3608ZM41.9194 41.7699V38.5455H42.7575V44H41.9194V43.0767H41.8626C41.7347 43.3537 41.5359 43.5893 41.266 43.7834C40.9961 43.9751 40.6552 44.071 40.2433 44.071C39.9023 44.071 39.5993 43.9964 39.3342 43.8473C39.069 43.6958 38.8607 43.4685 38.7092 43.1655C38.5576 42.8601 38.4819 42.4754 38.4819 42.0114V38.5455H39.32V41.9545C39.32 42.3523 39.4312 42.6695 39.6538 42.9062C39.8787 43.143 40.1651 43.2614 40.5131 43.2614C40.7215 43.2614 40.9334 43.2081 41.1488 43.1016C41.3666 42.995 41.5489 42.8317 41.6957 42.6115C41.8448 42.3913 41.9194 42.1108 41.9194 41.7699ZM45.1305 40.7188V44H44.2924V38.5455H45.1021V39.3977H45.1731C45.301 39.1207 45.4951 38.8982 45.7555 38.7301C46.0159 38.5597 46.3521 38.4744 46.764 38.4744C47.1333 38.4744 47.4565 38.5502 47.7335 38.7017C48.0105 38.8509 48.2259 39.0781 48.3798 39.3835C48.5337 39.6866 48.6106 40.0701 48.6106 40.5341V44H47.7725V40.5909C47.7725 40.1624 47.6613 39.8286 47.4387 39.5895C47.2162 39.348 46.9108 39.2273 46.5225 39.2273C46.255 39.2273 46.0159 39.2853 45.8052 39.4013C45.5969 39.5173 45.4324 39.6866 45.3116 39.9091C45.1909 40.1316 45.1305 40.4015 45.1305 40.7188ZM52.2017 44.1136C51.7472 44.1136 51.3459 43.9988 50.9979 43.7692C50.6499 43.5372 50.3776 43.2105 50.1811 42.7891C49.9846 42.3653 49.8864 41.8646 49.8864 41.2869C49.8864 40.714 49.9846 40.2169 50.1811 39.7955C50.3776 39.3741 50.651 39.0485 51.0014 38.8189C51.3518 38.5893 51.7566 38.4744 52.2159 38.4744C52.571 38.4744 52.8516 38.5336 53.0575 38.652C53.2659 38.768 53.4245 38.9006 53.5334 39.0497C53.6446 39.1965 53.7311 39.3172 53.7926 39.4119H53.8636V36.7273H54.7017V44H53.892V43.1619H53.7926C53.7311 43.2614 53.6435 43.3868 53.5298 43.5384C53.4162 43.6875 53.254 43.8213 53.0433 43.9396C52.8326 44.0556 52.5521 44.1136 52.2017 44.1136ZM52.3153 43.3608C52.6515 43.3608 52.9356 43.2732 53.1676 43.098C53.3996 42.9205 53.576 42.6754 53.6967 42.3629C53.8175 42.0481 53.8778 41.6847 53.8778 41.2727C53.8778 40.8655 53.8187 40.5092 53.7003 40.2038C53.5819 39.8961 53.4067 39.657 53.1747 39.4865C52.9427 39.3137 52.6563 39.2273 52.3153 39.2273C51.9602 39.2273 51.6643 39.3184 51.4276 39.5007C51.1932 39.6806 51.0168 39.9257 50.8984 40.2358C50.7824 40.5436 50.7244 40.8892 50.7244 41.2727C50.7244 41.661 50.7836 42.0137 50.902 42.331C51.0227 42.6458 51.2003 42.8968 51.4347 43.0838C51.6714 43.2685 51.965 43.3608 52.3153 43.3608Z" fill="white"/>
<rect x="17" width="20" height="30" rx="10" fill="#D9D9D9"/>
<rect x="25" y="3" width="4" height="11" rx="2" fill="black"/>
</svg>
